<ttFont>
<head>
    <!-- Most of this table will be recalculated by the compiler -->
    <tableVersion value="1.0"/>
    <fontRevision value="1.002"/>
    <checkSumAdjustment value="0x39ff3adb"/>
    <magicNumber value="0x5f0f3cf5"/>
    <flags value="00000000 00000011"/>
    <unitsPerEm value="1000"/>
    <created value="Thu Jan 14 20:43:15 2016"/>
    <modified value="Thu Jan 14 20:43:18 2016"/>
    <xMin value="-10"/>
    <yMin value="-281"/>
    <xMax value="592"/>
    <yMax value="1137"/>
    <macStyle value="00000000 00000000"/>
    <lowestRecPPEM value="6"/>
    <fontDirectionHint value="2"/>
    <indexToLocFormat value="0"/>
    <glyphDataFormat value="0"/>
  </head>
    <TTGlyph name=".notdef" xMin="5" yMin="-200" xMax="545" yMax="800">
      <contour>
        <pt x="5" y="-200" on="1"/>
        <pt x="5" y="800" on="1"/>
        <pt x="545" y="800" on="1"/>
        <pt x="545" y="-200" on="1"/>
      </contour>
      <contour>
        <pt x="82" y="750" on="1"/>
        <pt x="275" y="360" on="1"/>
        <pt x="468" y="750" on="1"/>
      </contour>
      <contour>
        <pt x="491" y="676" on="1"/>
        <pt x="305" y="300" on="1"/>
        <pt x="491" y="-76" on="1"/>
      </contour>
      <contour>
        <pt x="59" y="-76" on="1"/>
        <pt x="245" y="300" on="1"/>
        <pt x="59" y="676" on="1"/>
      </contour>
      <contour>
        <pt x="275" y="240" on="1"/>
        <pt x="82" y="-150" on="1"/>
        <pt x="468" y="-150" on="1"/>
      </contour>
    </TTGlyph>
    <TTGlyph name="A" xMin="48" yMin="-2" xMax="502" yMax="623">
      <contour>
        <pt x="457" y="-2" on="1"/>
        <pt x="441" y="52" on="0"/>
        <pt x="409" y="159" on="0"/>
        <pt x="393" y="212" on="1"/>
        <pt x="155" y="212" on="1"/>
        <pt x="139" y="160" on="0"/>
        <pt x="108" y="53" on="0"/>
        <pt x="92" y="0" on="1"/>
        <pt x="48" y="0" on="1"/>
        <pt x="94" y="154" on="0"/>
        <pt x="192" y="466" on="0"/>
        <pt x="243" y="623" on="1"/>
        <pt x="307" y="623" on="1"/>
        <pt x="358" y="467" on="0"/>
        <pt x="456" y="156" on="0"/>
        <pt x="502" y="2" on="1"/>
      </contour>
      <contour>
        <pt x="270" y="580" on="1"/>
        <pt x="243" y="496" on="0"/>
        <pt x="191" y="330" on="0"/>
        <pt x="166" y="248" on="1"/>
        <pt x="382" y="248" on="1"/>
        <pt x="357" y="331" on="0"/>
        <pt x="304" y="497" on="0"/>
        <pt x="277" y="580" on="1"/>
      </contour>
    </TTGlyph>
    <TTGlyph name="AE" xMin="12" yMin="0" xMax="502" yMax="620">
      <contour>
        <pt x="261" y="580" on="1"/>
        <pt x="231" y="497" on="0"/>
        <pt x="170" y="324" on="0"/>
        <pt x="140" y="238" on="1"/>
        <pt x="267" y="238" on="1"/>
        <pt x="267" y="580" on="1"/>
      </contour>
      <contour>
        <pt x="267" y="0" on="1"/>
        <pt x="267" y="202" on="1"/>
        <pt x="128" y="202" on="1"/>
        <pt x="110" y="151" on="0"/>
        <pt x="75" y="49" on="0"/>
        <pt x="59" y="0" on="1"/>
        <pt x="12" y="0" on="1"/>
        <pt x="66" y="154" on="0"/>
        <pt x="176" y="466" on="0"/>
        <pt x="233" y="620" on="1"/>
        <pt x="499" y="620" on="1"/>
        <pt x="499" y="580" on="1"/>
        <pt x="312" y="580" on="1"/>
        <pt x="312" y="333" on="1"/>
        <pt x="475" y="333" on="1"/>
        <pt x="475" y="297" on="1"/>
        <pt x="312" y="297" on="1"/>
        <pt x="312" y="40" on="1"/>
        <pt x="502" y="40" on="1"/>
        <pt x="497" y="0" on="1"/>
      </contour>
    </TTGlyph>
    <TTGlyph name="AEacute" xMin="12" yMin="0" xMax="502" yMax="896">
      <contour>
        <pt x="229" y="717" on="1"/>
        <pt x="250" y="733" on="0"/>
        <pt x="300" y="778" on="0"/>
        <pt x="348" y="826" on="0"/>
        <pt x="391" y="875" on="0"/>
        <pt x="407" y="896" on="1"/>
        <pt x="450" y="859" on="1"/>
        <pt x="431" y="840" on="0"/>
        <pt x="380" y="795" on="0"/>
        <pt x="324" y="752" on="0"/>
        <pt x="269" y="711" on="0"/>
        <pt x="245" y="696" on="1"/>
      </contour>
      <contour>
        <pt x="261" y="580" on="1"/>
        <pt x="231" y="497" on="0"/>
        <pt x="170" y="324" on="0"/>
        <pt x="140" y="238" on="1"/>
        <pt x="267" y="238" on="1"/>
        <pt x="267" y="580" on="1"/>
      </contour>
      <contour>
        <pt x="267" y="0" on="1"/>
        <pt x="267" y="202" on="1"/>
        <pt x="128" y="202" on="1"/>
        <pt x="110" y="151" on="0"/>
        <pt x="75" y="49" on="0"/>
        <pt x="59" y="0" on="1"/>
        <pt x="12" y="0" on="1"/>
        <pt x="66" y="154" on="0"/>
        <pt x="176" y="466" on="0"/>
        <pt x="233" y="620" on="1"/>
        <pt x="499" y="620" on="1"/>
        <pt x="499" y="580" on="1"/>
        <pt x="312" y="580" on="1"/>
        <pt x="312" y="333" on="1"/>
        <pt x="475" y="333" on="1"/>
        <pt x="475" y="297" on="1"/>
        <pt x="312" y="297" on="1"/>
        <pt x="312" y="40" on="1"/>
        <pt x="502" y="40" on="1"/>
        <pt x="497" y="0" on="1"/>
      </contour>
    </TTGlyph>
    <TTGlyph name="Aacute" xMin="48" yMin="-2" xMax="502" yMax="896">
      <contour>
        <pt x="186" y="717" on="1"/>
        <pt x="207" y="733" on="0"/>
        <pt x="257" y="778" on="0"/>
        <pt x="305" y="826" on="0"/>
        <pt x="348" y="875" on="0"/>
        <pt x="364" y="896" on="1"/>
        <pt x="407" y="859" on="1"/>
        <pt x="388" y="840" on="0"/>
        <pt x="337" y="795" on="0"/>
        <pt x="281" y="752" on="0"/>
        <pt x="226" y="711" on="0"/>
        <pt x="202" y="696" on="1"/>
      </contour>
      <contour>
        <pt x="457" y="-2" on="1"/>
        <pt x="441" y="52" on="0"/>
        <pt x="409" y="159" on="0"/>
        <pt x="393" y="212" on="1"/>
        <pt x="155" y="212" on="1"/>
        <pt x="139" y="160" on="0"/>
        <pt x="108" y="53" on="0"/>
        <pt x="92" y="0" on="1"/>
        <pt x="48" y="0" on="1"/>
        <pt x="94" y="154" on="0"/>
        <pt x="192" y="466" on="0"/>
        <pt x="243" y="623" on="1"/>
        <pt x="307" y="623" on="1"/>
        <pt x="358" y="467" on="0"/>
        <pt x="456" y="156" on="0"/>
        <pt x="502" y="2" on="1"/>
      </contour>
      <contour>
        <pt x="270" y="580" on="1"/>
        <pt x="243" y="496" on="0"/>
        <pt x="191" y="330" on="0"/>
        <pt x="166" y="248" on="1"/>
        <pt x="382" y="248" on="1"/>
        <pt x="357" y="331" on="0"/>
        <pt x="304" y="497" on="0"/>
        <pt x="277" y="580" on="1"/>
      </contour>
    </TTGlyph>
    <TTGlyph name="Abreve" xMin="48" yMin="-2" xMax="502" yMax="867">
      <contour>
        <pt x="270" y="705" on="1"/>
        <pt x="222" y="705" on="0"/>
        <pt x="138" y="775" on="0"/>
        <pt x="96" y="847" on="1"/>
        <pt x="129" y="867" on="1"/>
        <pt x="169" y="800" on="0"/>
        <pt x="234" y="743" on="0"/>
        <pt x="273" y="743" on="1"/>
        <pt x="316" y="743" on="0"/>
        <pt x="385" y="805" on="0"/>
        <pt x="425" y="863" on="1"/>
        <pt x="454" y="848" on="1"/>
        <pt x="412" y="781" on="0"/>
        <pt x="320" y="705" on="0"/>
      </contour>
      <contour>
        <pt x="457" y="-2" on="1"/>
        <pt x="441" y="52" on="0"/>
        <pt x="409" y="159" on="0"/>
        <pt x="393" y="212" on="1"/>
        <pt x="155" y="212" on="1"/>
        <pt x="139" y="160" on="0"/>
        <pt x="108" y="53" on="0"/>
        <pt x="92" y="0" on="1"/>
        <pt x="48" y="0" on="1"/>
        <pt x="94" y="154" on="0"/>
        <pt x="192" y="466" on="0"/>
        <pt x="243" y="623" on="1"/>
        <pt x="307" y="623" on="1"/>
        <pt x="358" y="467" on="0"/>
        <pt x="456" y="156" on="0"/>
        <pt x="502" y="2" on="1"/>
      </contour>
      <contour>
        <pt x="270" y="580" on="1"/>
        <pt x="243" y="496" on="0"/>
        <pt x="191" y="330" on="0"/>
        <pt x="166" y="248" on="1"/>
        <pt x="382" y="248" on="1"/>
        <pt x="357" y="331" on="0"/>
        <pt x="304" y="497" on="0"/>
        <pt x="277" y="580" on="1"/>
      </contour>
    </TTGlyph>
    <TTGlyph name="Acircumflex" xMin="48" yMin="-2" xMax="502" yMax="876">
      <contour>
        <pt x="413" y="700" on="1"/>
        <pt x="273" y="827" on="1"/>
        <pt x="131" y="701" on="1"/>
        <pt x="106" y="724" on="1"/>
        <pt x="275" y="876" on="1"/>
        <pt x="276" y="876" on="1"/>
        <pt x="442" y="728" on="1"/>
      </contour>
      <contour>
        <pt x="457" y="-2" on="1"/>
        <pt x="441" y="52" on="0"/>
        <pt x="409" y="159" on="0"/>
        <pt x="393" y="212" on="1"/>
        <pt x="155" y="212" on="1"/>
        <pt x="139" y="160" on="0"/>
        <pt x="108" y="53" on="0"/>
        <pt x="92" y="0" on="1"/>
        <pt x="48" y="0" on="1"/>
        <pt x="94" y="154" on="0"/>
        <pt x="192" y="466" on="0"/>
        <pt x="243" y="623" on="1"/>
        <pt x="307" y="623" on="1"/>
        <pt x="358" y="467" on="0"/>
        <pt x="456" y="156" on="0"/>
        <pt x="502" y="2" on="1"/>
      </contour>
      <contour>
        <pt x="270" y="580" on="1"/>
        <pt x="243" y="496" on="0"/>
        <pt x="191" y="330" on="0"/>
        <pt x="166" y="248" on="1"/>
        <pt x="382" y="248" on="1"/>
        <pt x="357" y="331" on="0"/>
        <pt x="304" y="497" on="0"/>
        <pt x="277" y="580" on="1"/>
      </contour>
    </TTGlyph>
    <TTGlyph name="Adieresis" xMin="48" yMin="-2" xMax="502" yMax="835">
      <contour>
        <pt x="406" y="705" on="1"/>
        <pt x="362" y="705" on="1"/>
        <pt x="361" y="835" on="1"/>
        <pt x="408" y="835" on="1"/>
      </contour>
      <contour>
        <pt x="189" y="705" on="1"/>
        <pt x="145" y="705" on="1"/>
        <pt x="144" y="835" on="1"/>
        <pt x="191" y="835" on="1"/>
      </contour>
      <contour>
        <pt x="457" y="-2" on="1"/>
        <pt x="441" y="52" on="0"/>
        <pt x="409" y="159" on="0"/>
        <pt x="393" y="212" on="1"/>
        <pt x="155" y="212" on="1"/>
        <pt x="139" y="160" on="0"/>
        <pt x="108" y="53" on="0"/>
        <pt x="92" y="0" on="1"/>
        <pt x="48" y="0" on="1"/>
        <pt x="94" y="154" on="0"/>
        <pt x="192" y="466" on="0"/>
        <pt x="243" y="623" on="1"/>
        <pt x="307" y="623" on="1"/>
        <pt x="358" y="467" on="0"/>
        <pt x="456" y="156" on="0"/>
        <pt x="502" y="2" on="1"/>
      </contour>
      <contour>
        <pt x="270" y="580" on="1"/>
        <pt x="243" y="496" on="0"/>
        <pt x="191" y="330" on="0"/>
        <pt x="166" y="248" on="1"/>
        <pt x="382" y="248" on="1"/>
        <pt x="357" y="331" on="0"/>
        <pt x="304" y="497" on="0"/>
        <pt x="277" y="580" on="1"/>
      </contour>
    </TTGlyph>
    <TTGlyph name="Agrave" xMin="48" yMin="-2" xMax="502" yMax="888">
      <contour>
        <pt x="360" y="708" on="1"/>
        <pt x="344" y="688" on="1"/>
        <pt x="320" y="703" on="0"/>
        <pt x="265" y="744" on="0"/>
        <pt x="210" y="787" on="0"/>
        <pt x="159" y="830" on="0"/>
        <pt x="140" y="849" on="1"/>
        <pt x="181" y="888" on="1"/>
        <pt x="197" y="868" on="0"/>
        <pt x="241" y="819" on="0"/>
        <pt x="290" y="770" on="0"/>
        <pt x="339" y="724" on="0"/>
      </contour>
      <contour>
        <pt x="457" y="-2" on="1"/>
        <pt x="441" y="52" on="0"/>
        <pt x="409" y="159" on="0"/>
        <pt x="393" y="212" on="1"/>
        <pt x="155" y="212" on="1"/>
        <pt x="139" y="160" on="0"/>
        <pt x="108" y="53" on="0"/>
        <pt x="92" y="0" on="1"/>
        <pt x="48" y="0" on="1"/>
        <pt x="94" y="154" on="0"/>
        <pt x="192" y="466" on="0"/>
        <pt x="243" y="623" on="1"/>
        <pt x="307" y="623" on="1"/>
        <pt x="358" y="467" on="0"/>
        <pt x="456" y="156" on="0"/>
        <pt x="502" y="2" on="1"/>
      </contour>
      <contour>
        <pt x="270" y="580" on="1"/>
        <pt x="243" y="496" on="0"/>
        <pt x="191" y="330" on="0"/>
        <pt x="166" y="248" on="1"/>
        <pt x="382" y="248" on="1"/>
        <pt x="357" y="331" on="0"/>
        <pt x="304" y="497" on="0"/>
        <pt x="277" y="580" on="1"/>
      </contour>
    </TTGlyph>
    <TTGlyph name="Amacron" xMin="48" yMin="-2" xMax="502" yMax="793">
      <contour>
        <pt x="433" y="793" on="1"/>
        <pt x="433" y="754" on="1"/>
        <pt x="115" y="754" on="1"/>
        <pt x="115" y="793" on="1"/>
      </contour>
      <contour>
        <pt x="457" y="-2" on="1"/>
        <pt x="441" y="52" on="0"/>
        <pt x="409" y="159" on="0"/>
        <pt x="393" y="212" on="1"/>
        <pt x="155" y="212" on="1"/>
        <pt x="139" y="160" on="0"/>
        <pt x="108" y="53" on="0"/>
        <pt x="92" y="0" on="1"/>
        <pt x="48" y="0" on="1"/>
        <pt x="94" y="154" on="0"/>
        <pt x="192" y="466" on="0"/>
        <pt x="243" y="623" on="1"/>
        <pt x="307" y="623" on="1"/>
        <pt x="358" y="467" on="0"/>
        <pt x="456" y="156" on="0"/>
        <pt x="502" y="2" on="1"/>
      </contour>
      <contour>
        <pt x="270" y="580" on="1"/>
        <pt x="243" y="496" on="0"/>
        <pt x="191" y="330" on="0"/>
        <pt x="166" y="248" on="1"/>
        <pt x="382" y="248" on="1"/>
        <pt x="357" y="331" on="0"/>
        <pt x="304" y="497" on="0"/>
        <pt x="277" y="580" on="1"/>
      </contour>
    </TTGlyph>
    <TTGlyph name="Aogonek" xMin="48" yMin="-203" xMax="502" yMax="623">
      <contour>
        <pt x="480" y="-203" on="1"/>
        <pt x="391" y="-193" on="0"/>
        <pt x="319" y="-152" on="0"/>
        <pt x="319" y="-120" on="1"/>
        <pt x="319" y="-92" on="0"/>
        <pt x="379" y="-33" on="0"/>
        <pt x="454" y="7" on="1"/>
        <pt x="439" y="58" on="0"/>
        <pt x="409" y="161" on="0"/>
        <pt x="393" y="212" on="1"/>
        <pt x="155" y="212" on="1"/>
        <pt x="139" y="160" on="0"/>
        <pt x="108" y="53" on="0"/>
        <pt x="92" y="0" on="1"/>
        <pt x="48" y="0" on="1"/>
        <pt x="94" y="154" on="0"/>
        <pt x="192" y="466" on="0"/>
        <pt x="243" y="623" on="1"/>
        <pt x="307" y="623" on="1"/>
        <pt x="358" y="467" on="0"/>
        <pt x="456" y="156" on="0"/>
        <pt x="502" y="2" on="1"/>
        <pt x="418" y="-40" on="0"/>
        <pt x="359" y="-93" on="0"/>
        <pt x="359" y="-112" on="1"/>
        <pt x="359" y="-131" on="0"/>
        <pt x="417" y="-157" on="0"/>
        <pt x="485" y="-165" on="1"/>
      </contour>
      <contour>
        <pt x="270" y="580" on="1"/>
        <pt x="243" y="496" on="0"/>
        <pt x="191" y="330" on="0"/>
        <pt x="166" y="248" on="1"/>
        <pt x="382" y="248" on="1"/>
        <pt x="357" y="331" on="0"/>
        <pt x="304" y="497" on="0"/>
        <pt x="277" y="580" on="1"/>
      </contour>
    </TTGlyph>
    <TTGlyph name="Aring" xMin="48" yMin="-2" xMax="502" yMax="889">
      <contour>
        <pt x="273" y="889" on="1"/>
        <pt x="329" y="889" on="0"/>
        <pt x="402" y="830" on="0"/>
        <pt x="402" y="788" on="1"/>
        <pt x="402" y="742" on="0"/>
        <pt x="331" y="683" on="0"/>
        <pt x="273" y="683" on="1"/>
        <pt x="217" y="683" on="0"/>
        <pt x="144" y="742" on="0"/>
        <pt x="144" y="784" on="1"/>
        <pt x="144" y="830" on="0"/>
        <pt x="215" y="889" on="0"/>
      </contour>
      <contour>
        <pt x="273" y="858" on="1"/>
        <pt x="230" y="858" on="0"/>
        <pt x="180" y="817" on="0"/>
        <pt x="180" y="786" on="1"/>
        <pt x="180" y="755" on="0"/>
        <pt x="230" y="714" on="0"/>
        <pt x="273" y="714" on="1"/>
        <pt x="316" y="714" on="0"/>
        <pt x="366" y="755" on="0"/>
        <pt x="366" y="786" on="1"/>
        <pt x="366" y="817" on="0"/>
        <pt x="316" y="858" on="0"/>
      </contour>
      <contour>
        <pt x="457" y="-2" on="1"/>
        <pt x="441" y="52" on="0"/>
        <pt x="409" y="159" on="0"/>
        <pt x="393" y="212" on="1"/>
        <pt x="155" y="212" on="1"/>
        <pt x="139" y="160" on="0"/>
        <pt x="108" y="53" on="0"/>
        <pt x="92" y="0" on="1"/>
        <pt x="48" y="0" on="1"/>
        <pt x="94" y="154" on="0"/>
        <pt x="192" y="466" on="0"/>
        <pt x="243" y="623" on="1"/>
        <pt x="307" y="623" on="1"/>
        <pt x="358" y="467" on="0"/>
        <pt x="456" y="156" on="0"/>
        <pt x="502" y="2" on="1"/>
      </contour>
      <contour>
        <pt x="270" y="580" on="1"/>
        <pt x="243" y="496" on="0"/>
        <pt x="191" y="330" on="0"/>
        <pt x="166" y="248" on="1"/>
        <pt x="382" y="248" on="1"/>
        <pt x="357" y="331" on="0"/>
        <pt x="304" y="497" on="0"/>
        <pt x="277" y="580" on="1"/>
      </contour>
    </TTGlyph>
    <TTGlyph name="Aringacute" xMin="48" yMin="-2" xMax="502" yMax="1137">
      <contour>
        <pt x="186" y="958" on="1"/>
        <pt x="207" y="974" on="0"/>
        <pt x="257" y="1019" on="0"/>
        <pt x="305" y="1067" on="0"/>
        <pt x="348" y="1116" on="0"/>
        <pt x="364" y="1137" on="1"/>
        <pt x="407" y="1100" on="1"/>
        <pt x="388" y="1081" on="0"/>
        <pt x="337" y="1036" on="0"/>
        <pt x="281" y="993" on="0"/>
        <pt x="226" y="952" on="0"/>
        <pt x="202" y="937" on="1"/>
      </contour>
      <contour>
        <pt x="273" y="889" on="1"/>
        <pt x="329" y="889" on="0"/>
        <pt x="402" y="830" on="0"/>
        <pt x="402" y="788" on="1"/>
        <pt x="402" y="742" on="0"/>
        <pt x="331" y="683" on="0"/>
        <pt x="273" y="683" on="1"/>
        <pt x="217" y="683" on="0"/>
        <pt x="144" y="742" on="0"/>
        <pt x="144" y="784" on="1"/>
        <pt x="144" y="830" on="0"/>
        <pt x="215" y="889" on="0"/>
      </contour>
      <contour>
        <pt x="273" y="858" on="1"/>
        <pt x="230" y="858" on="0"/>
        <pt x="180" y="817" on="0"/>
        <pt x="180" y="786" on="1"/>
        <pt x="180" y="755" on="0"/>
        <pt x="230" y="714" on="0"/>
        <pt x="273" y="714" on="1"/>
        <pt x="316" y="714" on="0"/>
        <pt x="366" y="755" on="0"/>
        <pt x="366" y="786" on="1"/>
        <pt x="366" y="817" on="0"/>
        <pt x="316" y="858" on="0"/>
      </contour>
      <contour>
        <pt x="457" y="-2" on="1"/>
        <pt x="441" y="52" on="0"/>
        <pt x="409" y="159" on="0"/>
        <pt x="393" y="212" on="1"/>
        <pt x="155" y="212" on="1"/>
        <pt x="139" y="160" on="0"/>
        <pt x="108" y="53" on="0"/>
        <pt x="92" y="0" on="1"/>
        <pt x="48" y="0" on="1"/>
        <pt x="94" y="154" on="0"/>
        <pt x="192" y="466" on="0"/>
        <pt x="243" y="623" on="1"/>
        <pt x="307" y="623" on="1"/>
        <pt x="358" y="467" on="0"/>
        <pt x="456" y="156" on="0"/>
        <pt x="502" y="2" on="1"/>
      </contour>
      <contour>
        <pt x="270" y="580" on="1"/>
        <pt x="243" y="496" on="0"/>
        <pt x="191" y="330" on="0"/>
        <pt x="166" y="248" on="1"/>
        <pt x="382" y="248" on="1"/>
        <pt x="357" y="331" on="0"/>
        <pt x="304" y="497" on="0"/>
        <pt x="277" y="580" on="1"/>
      </contour>
    </TTGlyph>
    <TTGlyph name="Atilde" xMin="48" yMin="-2" xMax="502" yMax="862">
      <contour>
        <pt x="351" y="705" on="1"/>
        <pt x="327" y="705" on="0"/>
        <pt x="289" y="742" on="0"/>
        <pt x="255" y="786" on="0"/>
        <pt x="224" y="823" on="0"/>
        <pt x="206" y="823" on="1"/>
        <pt x="181" y="823" on="0"/>
        <pt x="137" y="762" on="0"/>
        <pt x="117" y="714" on="1"/>
        <pt x="88" y="726" on="1"/>
        <pt x="114" y="791" on="0"/>
        <pt x="176" y="862" on="0"/>
        <pt x="210" y="862" on="1"/>
        <pt x="234" y="862" on="0"/>
        <pt x="272" y="825" on="0"/>
        <pt x="306" y="781" on="0"/>
        <pt x="337" y="744" on="0"/>
        <pt x="355" y="744" on="1"/>
        <pt x="380" y="744" on="0"/>
        <pt x="423" y="805" on="0"/>
        <pt x="443" y="853" on="1"/>
        <pt x="473" y="841" on="1"/>
        <pt x="447" y="776" on="0"/>
        <pt x="385" y="705" on="0"/>
      </contour>
      <contour>
        <pt x="457" y="-2" on="1"/>
        <pt x="441" y="52" on="0"/>
        <pt x="409" y="159" on="0"/>
        <pt x="393" y="212" on="1"/>
        <pt x="155" y="212" on="1"/>
        <pt x="139" y="160" on="0"/>
        <pt x="108" y="53" on="0"/>
        <pt x="92" y="0" on="1"/>
        <pt x="48" y="0" on="1"/>
        <pt x="94" y="154" on="0"/>
        <pt x="192" y="466" on="0"/>
        <pt x="243" y="623" on="1"/>
        <pt x="307" y="623" on="1"/>
        <pt x="358" y="467" on="0"/>
        <pt x="456" y="156" on="0"/>
        <pt x="502" y="2" on="1"/>
      </contour>
      <contour>
        <pt x="270" y="580" on="1"/>
        <pt x="243" y="496" on="0"/>
        <pt x="191" y="330" on="0"/>
        <pt x="166" y="248" on="1"/>
        <pt x="382" y="248" on="1"/>
        <pt x="357" y="331" on="0"/>
        <pt x="304" y="497" on="0"/>
        <pt x="277" y="580" on="1"/>
      </contour>
    </TTGlyph>
    <TTGlyph name="B" xMin="107" yMin="-9" xMax="486" yMax="628">
      <contour>
        <pt x="223" y="-9" on="1"/>
        <pt x="195" y="-9" on="0"/>
        <pt x="137" y="-4" on="0"/>
        <pt x="107" y="0" on="1"/>
        <pt x="107" y="620" on="1"/>
        <pt x="139" y="624" on="0"/>
        <pt x="200" y="628" on="0"/>
        <pt x="227" y="628" on="1"/>
        <pt x="338" y="628" on="0"/>
        <pt x="464" y="557" on="0"/>
        <pt x="464" y="479" on="1"/>
        <pt x="464" y="410" on="0"/>
        <pt x="379" y="333" on="0"/>
        <pt x="319" y="320" on="1"/>
        <pt x="391" y="312" on="0"/>
        <pt x="485" y="240" on="0"/>
        <pt x="486" y="169" on="1"/>
        <pt x="486" y="168" on="1"/>
        <pt x="486" y="122" on="0"/>
        <pt x="447" y="55" on="0"/>
        <pt x="378" y="12" on="0"/>
        <pt x="280" y="-9" on="0"/>
      </contour>
      <contour>
        <pt x="175" y="331" on="1"/>
        <pt x="307" y="331" on="0"/>
        <pt x="421" y="400" on="0"/>
        <pt x="421" y="469" on="1"/>
        <pt x="421" y="534" on="0"/>
        <pt x="319" y="590" on="0"/>
        <pt x="235" y="590" on="1"/>
        <pt x="216" y="590" on="0"/>
        <pt x="174" y="587" on="0"/>
        <pt x="152" y="585" on="1"/>
        <pt x="152" y="332" on="1"/>
        <pt x="158" y="331" on="0"/>
        <pt x="170" y="331" on="0"/>
      </contour>
      <contour>
        <pt x="249" y="30" on="1"/>
        <pt x="336" y="30" on="0"/>
        <pt x="441" y="92" on="0"/>
        <pt x="441" y="164" on="1"/>
        <pt x="441" y="239" on="0"/>
        <pt x="318" y="295" on="0"/>
        <pt x="195" y="295" on="1"/>
        <pt x="185" y="295" on="0"/>
        <pt x="163" y="295" on="0"/>
        <pt x="152" y="294" on="1"/>
        <pt x="152" y="37" on="1"/>
        <pt x="177" y="33" on="0"/>
        <pt x="227" y="30" on="0"/>
      </contour>
    </TTGlyph>
    <TTGlyph name="C" xMin="72" yMin="-4" xMax="473" yMax="626">
      <contour>
        <pt x="473" y="37" on="1"/>
        <pt x="469" y="-3" on="1"/>
        <pt x="456" y="-4" on="0"/>
        <pt x="430" y="-4" on="0"/>
        <pt x="418" y="-4" on="1"/>
        <pt x="317" y="-4" on="0"/>
        <pt x="183" y="42" on="0"/>
        <pt x="104" y="123" on="0"/>
        <pt x="72" y="234" on="0"/>
        <pt x="72" y="298" on="1"/>
        <pt x="72" y="361" on="0"/>
        <pt x="111" y="476" on="0"/>
        <pt x="201" y="564" on="0"/>
        <pt x="352" y="621" on="0"/>
        <pt x="464" y="626" on="1"/>
        <pt x="467" y="583" on="1"/>
        <pt x="359" y="579" on="0"/>
        <pt x="222" y="533" on="0"/>
        <pt x="145" y="459" on="0"/>
        <pt x="117" y="361" on="0"/>
        <pt x="117" y="305" on="1"/>
        <pt x="117" y="244" on="0"/>
        <pt x="145" y="144" on="0"/>
        <pt x="216" y="74" on="0"/>
        <pt x="340" y="36" on="0"/>
        <pt x="434" y="36" on="1"/>
        <pt x="444" y="36" on="0"/>
        <pt x="463" y="36" on="0"/>
      </contour>
    </TTGlyph>
    <TTGlyph name="Cacute" xMin="72" yMin="-4" xMax="473" yMax="896">
      <contour>
        <pt x="227" y="717" on="1"/>
        <pt x="248" y="733" on="0"/>
        <pt x="298" y="778" on="0"/>
        <pt x="346" y="826" on="0"/>
        <pt x="389" y="875" on="0"/>
        <pt x="405" y="896" on="1"/>
        <pt x="448" y="859" on="1"/>
        <pt x="429" y="840" on="0"/>
        <pt x="378" y="795" on="0"/>
        <pt x="322" y="752" on="0"/>
        <pt x="267" y="711" on="0"/>
        <pt x="243" y="696" on="1"/>
      </contour>
      <contour>
        <pt x="473" y="37" on="1"/>
        <pt x="469" y="-3" on="1"/>
        <pt x="456" y="-4" on="0"/>
        <pt x="430" y="-4" on="0"/>
        <pt x="418" y="-4" on="1"/>
        <pt x="317" y="-4" on="0"/>
        <pt x="183" y="42" on="0"/>
        <pt x="104" y="123" on="0"/>
        <pt x="72" y="234" on="0"/>
        <pt x="72" y="298" on="1"/>
        <pt x="72" y="361" on="0"/>
        <pt x="111" y="476" on="0"/>
        <pt x="201" y="564" on="0"/>
        <pt x="352" y="621" on="0"/>
        <pt x="464" y="626" on="1"/>
        <pt x="467" y="583" on="1"/>
        <pt x="359" y="579" on="0"/>
        <pt x="222" y="533" on="0"/>
        <pt x="145" y="459" on="0"/>
        <pt x="117" y="361" on="0"/>
        <pt x="117" y="305" on="1"/>
        <pt x="117" y="244" on="0"/>
        <pt x="145" y="144" on="0"/>
        <pt x="216" y="74" on="0"/>
        <pt x="340" y="36" on="0"/>
        <pt x="434" y="36" on="1"/>
        <pt x="444" y="36" on="0"/>
        <pt x="463" y="36" on="0"/>
      </contour>
    </TTGlyph>
    <TTGlyph name="Ccaron" xMin="72" yMin="-4" xMax="489" yMax="870">
      <contour>
        <pt x="320" y="695" on="1"/>
        <pt x="319" y="695" on="1"/>
        <pt x="153" y="842" on="1"/>
        <pt x="182" y="870" on="1"/>
        <pt x="322" y="743" on="1"/>
        <pt x="464" y="870" on="1"/>
        <pt x="489" y="846" on="1"/>
      </contour>
      <contour>
        <pt x="473" y="37" on="1"/>
        <pt x="469" y="-3" on="1"/>
        <pt x="456" y="-4" on="0"/>
        <pt x="430" y="-4" on="0"/>
        <pt x="418" y="-4" on="1"/>
        <pt x="317" y="-4" on="0"/>
        <pt x="183" y="42" on="0"/>
        <pt x="104" y="123" on="0"/>
        <pt x="72" y="234" on="0"/>
        <pt x="72" y="298" on="1"/>
        <pt x="72" y="361" on="0"/>
        <pt x="111" y="476" on="0"/>
        <pt x="201" y="564" on="0"/>
        <pt x="352" y="621" on="0"/>
        <pt x="464" y="626" on="1"/>
        <pt x="467" y="583" on="1"/>
        <pt x="359" y="579" on="0"/>
        <pt x="222" y="533" on="0"/>
        <pt x="145" y="459" on="0"/>
        <pt x="117" y="361" on="0"/>
        <pt x="117" y="305" on="1"/>
        <pt x="117" y="244" on="0"/>
        <pt x="145" y="144" on="0"/>
        <pt x="216" y="74" on="0"/>
        <pt x="340" y="36" on="0"/>
        <pt x="434" y="36" on="1"/>
        <pt x="444" y="36" on="0"/>
        <pt x="463" y="36" on="0"/>
      </contour>
    </TTGlyph>
    <TTGlyph name="Ccedilla" xMin="72" yMin="-203" xMax="473" yMax="626">
      <contour>
        <pt x="376" y="-110" on="1"/>
        <pt x="376" y="-144" on="0"/>
        <pt x="295" y="-190" on="0"/>
        <pt x="216" y="-203" on="1"/>
        <pt x="211" y="-165" on="1"/>
        <pt x="278" y="-154" on="0"/>
        <pt x="337" y="-127" on="0"/>
        <pt x="337" y="-108" on="1"/>
        <pt x="337" y="-90" on="0"/>
        <pt x="291" y="-37" on="0"/>
        <pt x="237" y="-1" on="1"/>
        <pt x="249" y="19" on="1"/>
        <pt x="148" y="53" on="0"/>
        <pt x="72" y="202" on="0"/>
        <pt x="72" y="298" on="1"/>
        <pt x="72" y="361" on="0"/>
        <pt x="111" y="476" on="0"/>
        <pt x="201" y="564" on="0"/>
        <pt x="352" y="621" on="0"/>
        <pt x="464" y="626" on="1"/>
        <pt x="467" y="583" on="1"/>
        <pt x="359" y="579" on="0"/>
        <pt x="222" y="533" on="0"/>
        <pt x="145" y="459" on="0"/>
        <pt x="117" y="361" on="0"/>
        <pt x="117" y="305" on="1"/>
        <pt x="117" y="244" on="0"/>
        <pt x="145" y="144" on="0"/>
        <pt x="216" y="74" on="0"/>
        <pt x="340" y="36" on="0"/>
        <pt x="434" y="36" on="1"/>
        <pt x="444" y="36" on="0"/>
        <pt x="463" y="36" on="0"/>
        <pt x="473" y="37" on="1"/>
        <pt x="469" y="-3" on="1"/>
        <pt x="456" y="-4" on="0"/>
        <pt x="430" y="-4" on="0"/>
        <pt x="418" y="-4" on="1"/>
        <pt x="377" y="-4" on="0"/>
        <pt x="306" y="4" on="0"/>
        <pt x="276" y="11" on="1"/>
        <pt x="325" y="-23" on="0"/>
        <pt x="376" y="-83" on="0"/>
      </contour>
    </TTGlyph>
    <TTGlyph name="Cdotaccent" xMin="72" yMin="-4" xMax="473" yMax="835">
      <contour>
        <pt x="335" y="705" on="1"/>
        <pt x="291" y="705" on="1"/>
        <pt x="294" y="835" on="1"/>
        <pt x="340" y="835" on="1"/>
      </contour>
      <contour>
        <pt x="473" y="37" on="1"/>
        <pt x="469" y="-3" on="1"/>
        <pt x="456" y="-4" on="0"/>
        <pt x="430" y="-4" on="0"/>
        <pt x="418" y="-4" on="1"/>
        <pt x="317" y="-4" on="0"/>
        <pt x="183" y="42" on="0"/>
        <pt x="104" y="123" on="0"/>
        <pt x="72" y="234" on="0"/>
        <pt x="72" y="298" on="1"/>
        <pt x="72" y="361" on="0"/>
        <pt x="111" y="476" on="0"/>
        <pt x="201" y="564" on="0"/>
        <pt x="352" y="621" on="0"/>
        <pt x="464" y="626" on="1"/>
        <pt x="467" y="583" on="1"/>
        <pt x="359" y="579" on="0"/>
        <pt x="222" y="533" on="0"/>
        <pt x="145" y="459" on="0"/>
        <pt x="117" y="361" on="0"/>
        <pt x="117" y="305" on="1"/>
        <pt x="117" y="244" on="0"/>
        <pt x="145" y="144" on="0"/>
        <pt x="216" y="74" on="0"/>
        <pt x="340" y="36" on="0"/>
        <pt x="434" y="36" on="1"/>
        <pt x="444" y="36" on="0"/>
        <pt x="463" y="36" on="0"/>
      </contour>
    </TTGlyph>
    <TTGlyph name="D" xMin="97" yMin="-9" xMax="492" yMax="630">
      <contour>
        <pt x="492" y="323" on="1"/>
        <pt x="492" y="163" on="0"/>
        <pt x="335" y="-9" on="0"/>
        <pt x="191" y="-9" on="1"/>
        <pt x="169" y="-9" on="0"/>
        <pt x="122" y="-5" on="0"/>
        <pt x="97" y="-1" on="1"/>
        <pt x="97" y="621" on="1"/>
        <pt x="128" y="625" on="0"/>
        <pt x="184" y="630" on="0"/>
        <pt x="209" y="630" on="1"/>
        <pt x="358" y="630" on="0"/>
        <pt x="492" y="474" on="0"/>
      </contour>
      <contour>
        <pt x="447" y="313" on="1"/>
        <pt x="447" y="453" on="0"/>
        <pt x="334" y="589" on="0"/>
        <pt x="213" y="589" on="1"/>
        <pt x="197" y="589" on="0"/>
        <pt x="161" y="586" on="0"/>
        <pt x="142" y="584" on="1"/>
        <pt x="142" y="37" on="1"/>
        <pt x="159" y="34" on="0"/>
        <pt x="192" y="32" on="0"/>
        <pt x="208" y="32" on="1"/>
        <pt x="325" y="32" on="0"/>
        <pt x="447" y="179" on="0"/>
      </contour>
    </TTGlyph>
    <TTGlyph name="Dcaron" xMin="97" yMin="-9" xMax="492" yMax="877">
      <contour>
        <pt x="274" y="702" on="1"/>
        <pt x="273" y="702" on="1"/>
        <pt x="107" y="849" on="1"/>
        <pt x="136" y="877" on="1"/>
        <pt x="276" y="750" on="1"/>
        <pt x="418" y="877" on="1"/>
        <pt x="443" y="853" on="1"/>
      </contour>
      <contour>
        <pt x="492" y="323" on="1"/>
        <pt x="492" y="163" on="0"/>
        <pt x="335" y="-9" on="0"/>
        <pt x="191" y="-9" on="1"/>
        <pt x="169" y="-9" on="0"/>
        <pt x="122" y="-5" on="0"/>
        <pt x="97" y="-1" on="1"/>
        <pt x="97" y="621" on="1"/>
        <pt x="128" y="625" on="0"/>
        <pt x="184" y="630" on="0"/>
        <pt x="209" y="630" on="1"/>
        <pt x="358" y="630" on="0"/>
        <pt x="492" y="474" on="0"/>
      </contour>
      <contour>
        <pt x="447" y="313" on="1"/>
        <pt x="447" y="453" on="0"/>
        <pt x="334" y="589" on="0"/>
        <pt x="213" y="589" on="1"/>
        <pt x="197" y="589" on="0"/>
        <pt x="161" y="586" on="0"/>
        <pt x="142" y="584" on="1"/>
        <pt x="142" y="37" on="1"/>
        <pt x="159" y="34" on="0"/>
        <pt x="192" y="32" on="0"/>
        <pt x="208" y="32" on="1"/>
        <pt x="325" y="32" on="0"/>
        <pt x="447" y="179" on="0"/>
      </contour>
    </TTGlyph>
    <TTGlyph name="Dcroat" xMin="18" yMin="-9" xMax="492" yMax="630">
      <contour>
        <pt x="191" y="-9" on="1"/>
        <pt x="169" y="-9" on="0"/>
        <pt x="122" y="-5" on="0"/>
        <pt x="97" y="-1" on="1"/>
        <pt x="97" y="298" on="1"/>
        <pt x="18" y="298" on="1"/>
        <pt x="18" y="333" on="1"/>
        <pt x="97" y="333" on="1"/>
        <pt x="97" y="621" on="1"/>
        <pt x="128" y="625" on="0"/>
        <pt x="184" y="630" on="0"/>
        <pt x="209" y="630" on="1"/>
        <pt x="358" y="630" on="0"/>
        <pt x="492" y="474" on="0"/>
        <pt x="492" y="323" on="1"/>
        <pt x="492" y="163" on="0"/>
        <pt x="335" y="-9" on="0"/>
      </contour>
      <contour>
        <pt x="208" y="32" on="1"/>
        <pt x="325" y="32" on="0"/>
        <pt x="447" y="179" on="0"/>
        <pt x="447" y="313" on="1"/>
        <pt x="447" y="453" on="0"/>
        <pt x="334" y="589" on="0"/>
        <pt x="213" y="589" on="1"/>
        <pt x="197" y="589" on="0"/>
        <pt x="161" y="586" on="0"/>
        <pt x="142" y="584" on="1"/>
        <pt x="142" y="333" on="1"/>
        <pt x="299" y="333" on="1"/>
        <pt x="297" y="298" on="1"/>
        <pt x="142" y="298" on="1"/>
        <pt x="142" y="37" on="1"/>
        <pt x="159" y="34" on="0"/>
        <pt x="192" y="32" on="0"/>
      </contour>
    </TTGlyph>
    <TTGlyph name="E" xMin="115" yMin="0" xMax="481" yMax="620">
      <contour>
        <pt x="481" y="40" on="1"/>
        <pt x="476" y="0" on="1"/>
        <pt x="115" y="0" on="1"/>
        <pt x="115" y="620" on="1"/>
        <pt x="478" y="620" on="1"/>
        <pt x="478" y="580" on="1"/>
        <pt x="160" y="580" on="1"/>
        <pt x="160" y="333" on="1"/>
        <pt x="438" y="333" on="1"/>
        <pt x="438" y="297" on="1"/>
        <pt x="160" y="297" on="1"/>
        <pt x="160" y="40" on="1"/>
      </contour>
    </TTGlyph>
    <TTGlyph name="Eacute" xMin="115" yMin="0" xMax="481" yMax="896">
      <contour>
        <pt x="213" y="717" on="1"/>
        <pt x="234" y="733" on="0"/>
        <pt x="284" y="778" on="0"/>
        <pt x="332" y="826" on="0"/>
        <pt x="375" y="875" on="0"/>
        <pt x="391" y="896" on="1"/>
        <pt x="434" y="859" on="1"/>
        <pt x="415" y="840" on="0"/>
        <pt x="364" y="795" on="0"/>
        <pt x="308" y="752" on="0"/>
        <pt x="253" y="711" on="0"/>
        <pt x="229" y="696" on="1"/>
      </contour>
      <contour>
        <pt x="481" y="40" on="1"/>
        <pt x="476" y="0" on="1"/>
        <pt x="115" y="0" on="1"/>
        <pt x="115" y="620" on="1"/>
        <pt x="478" y="620" on="1"/>
        <pt x="478" y="580" on="1"/>
        <pt x="160" y="580" on="1"/>
        <pt x="160" y="333" on="1"/>
        <pt x="438" y="333" on="1"/>
        <pt x="438" y="297" on="1"/>
        <pt x="160" y="297" on="1"/>
        <pt x="160" y="40" on="1"/>
      </contour>
    </TTGlyph>
    <TTGlyph name="Ebreve" xMin="115" yMin="0" xMax="481" yMax="867">
      <contour>
        <pt x="297" y="705" on="1"/>
        <pt x="249" y="705" on="0"/>
        <pt x="165" y="775" on="0"/>
        <pt x="123" y="847" on="1"/>
        <pt x="156" y="867" on="1"/>
        <pt x="196" y="800" on="0"/>
        <pt x="261" y="743" on="0"/>
        <pt x="300" y="743" on="1"/>
        <pt x="343" y="743" on="0"/>
        <pt x="412" y="805" on="0"/>
        <pt x="452" y="863" on="1"/>
        <pt x="481" y="848" on="1"/>
        <pt x="439" y="781" on="0"/>
        <pt x="347" y="705" on="0"/>
      </contour>
      <contour>
        <pt x="481" y="40" on="1"/>
        <pt x="476" y="0" on="1"/>
        <pt x="115" y="0" on="1"/>
        <pt x="115" y="620" on="1"/>
        <pt x="478" y="620" on="1"/>
        <pt x="478" y="580" on="1"/>
        <pt x="160" y="580" on="1"/>
        <pt x="160" y="333" on="1"/>
        <pt x="438" y="333" on="1"/>
        <pt x="438" y="297" on="1"/>
        <pt x="160" y="297" on="1"/>
        <pt x="160" y="40" on="1"/>
      </contour>
    </TTGlyph>
    <TTGlyph name="Ecaron" xMin="115" yMin="0" xMax="481" yMax="870">
      <contour>
        <pt x="306" y="695" on="1"/>
        <pt x="305" y="695" on="1"/>
        <pt x="139" y="842" on="1"/>
        <pt x="168" y="870" on="1"/>
        <pt x="308" y="743" on="1"/>
        <pt x="450" y="870" on="1"/>
        <pt x="475" y="846" on="1"/>
      </contour>
      <contour>
        <pt x="481" y="40" on="1"/>
        <pt x="476" y="0" on="1"/>
        <pt x="115" y="0" on="1"/>
        <pt x="115" y="620" on="1"/>
        <pt x="478" y="620" on="1"/>
        <pt x="478" y="580" on="1"/>
        <pt x="160" y="580" on="1"/>
        <pt x="160" y="333" on="1"/>
        <pt x="438" y="333" on="1"/>
        <pt x="438" y="297" on="1"/>
        <pt x="160" y="297" on="1"/>
        <pt x="160" y="40" on="1"/>
      </contour>
    </TTGlyph>
    <TTGlyph name="Ecircumflex" xMin="115" yMin="0" xMax="481" yMax="876">
      <contour>
        <pt x="440" y="700" on="1"/>
        <pt x="300" y="827" on="1"/>
        <pt x="158" y="701" on="1"/>
        <pt x="133" y="724" on="1"/>
        <pt x="302" y="876" on="1"/>
        <pt x="303" y="876" on="1"/>
        <pt x="469" y="728" on="1"/>
      </contour>
      <contour>
        <pt x="481" y="40" on="1"/>
        <pt x="476" y="0" on="1"/>
        <pt x="115" y="0" on="1"/>
        <pt x="115" y="620" on="1"/>
        <pt x="478" y="620" on="1"/>
        <pt x="478" y="580" on="1"/>
        <pt x="160" y="580" on="1"/>
        <pt x="160" y="333" on="1"/>
        <pt x="438" y="333" on="1"/>
        <pt x="438" y="297" on="1"/>
        <pt x="160" y="297" on="1"/>
        <pt x="160" y="40" on="1"/>
      </contour>
    </TTGlyph>
    <TTGlyph name="Edieresis" xMin="115" yMin="0" xMax="481" yMax="835">
      <contour>
        <pt x="433" y="705" on="1"/>
        <pt x="389" y="705" on="1"/>
        <pt x="388" y="835" on="1"/>
        <pt x="435" y="835" on="1"/>
      </contour>
      <contour>
        <pt x="216" y="705" on="1"/>
        <pt x="172" y="705" on="1"/>
        <pt x="171" y="835" on="1"/>
        <pt x="218" y="835" on="1"/>
      </contour>
      <contour>
        <pt x="481" y="40" on="1"/>
        <pt x="476" y="0" on="1"/>
        <pt x="115" y="0" on="1"/>
        <pt x="115" y="620" on="1"/>
        <pt x="478" y="620" on="1"/>
        <pt x="478" y="580" on="1"/>
        <pt x="160" y="580" on="1"/>
        <pt x="160" y="333" on="1"/>
        <pt x="438" y="333" on="1"/>
        <pt x="438" y="297" on="1"/>
        <pt x="160" y="297" on="1"/>
        <pt x="160" y="40" on="1"/>
      </contour>
    </TTGlyph>
    <TTGlyph name="Edotaccent" xMin="115" yMin="0" xMax="481" yMax="835">
      <contour>
        <pt x="321" y="705" on="1"/>
        <pt x="277" y="705" on="1"/>
        <pt x="280" y="835" on="1"/>
        <pt x="326" y="835" on="1"/>
      </contour>
      <contour>
        <pt x="481" y="40" on="1"/>
        <pt x="476" y="0" on="1"/>
        <pt x="115" y="0" on="1"/>
        <pt x="115" y="620" on="1"/>
        <pt x="478" y="620" on="1"/>
        <pt x="478" y="580" on="1"/>
        <pt x="160" y="580" on="1"/>
        <pt x="160" y="333" on="1"/>
        <pt x="438" y="333" on="1"/>
        <pt x="438" y="297" on="1"/>
        <pt x="160" y="297" on="1"/>
        <pt x="160" y="40" on="1"/>
      </contour>
    </TTGlyph>
    <TTGlyph name="Egrave" xMin="115" yMin="0" xMax="481" yMax="888">
      <contour>
        <pt x="387" y="708" on="1"/>
        <pt x="371" y="688" on="1"/>
        <pt x="347" y="703" on="0"/>
        <pt x="292" y="744" on="0"/>
        <pt x="237" y="787" on="0"/>
        <pt x="186" y="830" on="0"/>
        <pt x="167" y="849" on="1"/>
        <pt x="208" y="888" on="1"/>
        <pt x="224" y="868" on="0"/>
        <pt x="268" y="819" on="0"/>
        <pt x="317" y="770" on="0"/>
        <pt x="366" y="724" on="0"/>
      </contour>
      <contour>
        <pt x="481" y="40" on="1"/>
        <pt x="476" y="0" on="1"/>
        <pt x="115" y="0" on="1"/>
        <pt x="115" y="620" on="1"/>
        <pt x="478" y="620" on="1"/>
        <pt x="478" y="580" on="1"/>
        <pt x="160" y="580" on="1"/>
        <pt x="160" y="333" on="1"/>
        <pt x="438" y="333" on="1"/>
        <pt x="438" y="297" on="1"/>
        <pt x="160" y="297" on="1"/>
        <pt x="160" y="40" on="1"/>
      </contour>
    </TTGlyph>
    <TTGlyph name="Emacron" xMin="115" yMin="0" xMax="481" yMax="793">
      <contour>
        <pt x="460" y="793" on="1"/>
        <pt x="460" y="754" on="1"/>
        <pt x="142" y="754" on="1"/>
        <pt x="142" y="793" on="1"/>
      </contour>
      <contour>
        <pt x="481" y="40" on="1"/>
        <pt x="476" y="0" on="1"/>
        <pt x="115" y="0" on="1"/>
        <pt x="115" y="620" on="1"/>
        <pt x="478" y="620" on="1"/>
        <pt x="478" y="580" on="1"/>
        <pt x="160" y="580" on="1"/>
        <pt x="160" y="333" on="1"/>
        <pt x="438" y="333" on="1"/>
        <pt x="438" y="297" on="1"/>
        <pt x="160" y="297" on="1"/>
        <pt x="160" y="40" on="1"/>
      </contour>
    </TTGlyph>
    <TTGlyph name="Eogonek" xMin="115" yMin="-205" xMax="481" yMax="620">
      <contour>
        <pt x="460" y="-167" on="1"/>
        <pt x="455" y="-205" on="1"/>
        <pt x="366" y="-195" on="0"/>
        <pt x="294" y="-154" on="0"/>
        <pt x="294" y="-122" on="1"/>
        <pt x="294" y="-95" on="0"/>
        <pt x="350" y="-38" on="0"/>
        <pt x="420" y="0" on="1"/>
        <pt x="115" y="0" on="1"/>
        <pt x="115" y="620" on="1"/>
        <pt x="478" y="620" on="1"/>
        <pt x="478" y="580" on="1"/>
        <pt x="160" y="580" on="1"/>
        <pt x="160" y="333" on="1"/>
        <pt x="438" y="333" on="1"/>
        <pt x="438" y="297" on="1"/>
        <pt x="160" y="297" on="1"/>
        <pt x="160" y="40" on="1"/>
        <pt x="481" y="40" on="1"/>
        <pt x="476" y="0" on="1"/>
        <pt x="392" y="-42" on="0"/>
        <pt x="334" y="-95" on="0"/>
        <pt x="334" y="-114" on="1"/>
        <pt x="334" y="-133" on="0"/>
        <pt x="392" y="-159" on="0"/>
      </contour>
    </TTGlyph>
    <TTGlyph name="Eth" xMin="18" yMin="-9" xMax="492" yMax="630">
      <contour>
        <pt x="191" y="-9" on="1"/>
        <pt x="169" y="-9" on="0"/>
        <pt x="122" y="-5" on="0"/>
        <pt x="97" y="-1" on="1"/>
        <pt x="97" y="298" on="1"/>
        <pt x="18" y="298" on="1"/>
        <pt x="18" y="333" on="1"/>
        <pt x="97" y="333" on="1"/>
        <pt x="97" y="621" on="1"/>
        <pt x="128" y="625" on="0"/>
        <pt x="184" y="630" on="0"/>
        <pt x="209" y="630" on="1"/>
        <pt x="358" y="630" on="0"/>
        <pt x="492" y="474" on="0"/>
        <pt x="492" y="323" on="1"/>
        <pt x="492" y="163" on="0"/>
        <pt x="335" y="-9" on="0"/>
      </contour>
      <contour>
        <pt x="208" y="32" on="1"/>
        <pt x="325" y="32" on="0"/>
        <pt x="447" y="179" on="0"/>
        <pt x="447" y="313" on="1"/>
        <pt x="447" y="453" on="0"/>
        <pt x="334" y="589" on="0"/>
        <pt x="213" y="589" on="1"/>
        <pt x="197" y="589" on="0"/>
        <pt x="161" y="586" on="0"/>
        <pt x="142" y="584" on="1"/>
        <pt x="142" y="333" on="1"/>
        <pt x="299" y="333" on="1"/>
        <pt x="297" y="298" on="1"/>
        <pt x="142" y="298" on="1"/>
        <pt x="142" y="37" on="1"/>
        <pt x="159" y="34" on="0"/>
        <pt x="192" y="32" on="0"/>
      </contour>
    </TTGlyph>
    <TTGlyph name="Euro" xMin="68" yMin="-20" xMax="484" yMax="640">
      <contour>
        <pt x="484" y="19" on="1"/>
        <pt x="477" y="-20" on="1"/>
        <pt x="326" y="0" on="0"/>
        <pt x="169" y="117" on="0"/>
        <pt x="145" y="208" on="1"/>
        <pt x="68" y="208" on="1"/>
        <pt x="68" y="246" on="1"/>
        <pt x="138" y="246" on="1"/>
        <pt x="136" y="260" on="0"/>
        <pt x="134" y="290" on="0"/>
        <pt x="134" y="306" on="1"/>
        <pt x="134" y="322" on="0"/>
        <pt x="136" y="353" on="0"/>
        <pt x="138" y="367" on="1"/>
        <pt x="68" y="367" on="1"/>
        <pt x="68" y="405" on="1"/>
        <pt x="144" y="405" on="1"/>
        <pt x="165" y="492" on="0"/>
        <pt x="314" y="610" on="0"/>
        <pt x="469" y="640" on="1"/>
        <pt x="478" y="597" on="1"/>
        <pt x="334" y="573" on="0"/>
        <pt x="203" y="480" on="0"/>
        <pt x="185" y="403" on="1"/>
        <pt x="424" y="403" on="1"/>
        <pt x="422" y="367" on="1"/>
        <pt x="179" y="367" on="1"/>
        <pt x="178" y="354" on="0"/>
        <pt x="176" y="325" on="0"/>
        <pt x="176" y="310" on="1"/>
        <pt x="176" y="294" on="0"/>
        <pt x="178" y="262" on="0"/>
        <pt x="180" y="247" on="1"/>
        <pt x="423" y="247" on="1"/>
        <pt x="420" y="211" on="1"/>
        <pt x="188" y="211" on="1"/>
        <pt x="210" y="136" on="0"/>
        <pt x="347" y="40" on="0"/>
      </contour>
    </TTGlyph>
    <TTGlyph name="F" xMin="123" yMin="0" xMax="490" yMax="620">
      <contour>
        <pt x="448" y="287" on="1"/>
        <pt x="168" y="287" on="1"/>
        <pt x="168" y="0" on="1"/>
        <pt x="123" y="0" on="1"/>
        <pt x="123" y="620" on="1"/>
        <pt x="490" y="620" on="1"/>
        <pt x="490" y="580" on="1"/>
        <pt x="168" y="580" on="1"/>
        <pt x="168" y="323" on="1"/>
        <pt x="448" y="323" on="1"/>
      </contour>
    </TTGlyph>
    <TTGlyph name="G" xMin="60" yMin="-9" xMax="467" yMax="626">
      <contour>
        <pt x="340" y="-9" on="1"/>
        <pt x="265" y="-9" on="0"/>
        <pt x="159" y="36" on="0"/>
        <pt x="91" y="117" on="0"/>
        <pt x="60" y="228" on="0"/>
        <pt x="60" y="294" on="1"/>
        <pt x="60" y="359" on="0"/>
        <pt x="97" y="476" on="0"/>
        <pt x="186" y="565" on="0"/>
        <pt x="335" y="622" on="0"/>
        <pt x="446" y="626" on="1"/>
        <pt x="449" y="583" on="1"/>
        <pt x="343" y="579" on="0"/>
        <pt x="209" y="533" on="0"/>
        <pt x="133" y="459" on="0"/>
        <pt x="105" y="360" on="0"/>
        <pt x="105" y="304" on="1"/>
        <pt x="105" y="243" on="0"/>
        <pt x="130" y="142" on="0"/>
        <pt x="188" y="70" on="0"/>
        <pt x="285" y="30" on="0"/>
        <pt x="357" y="30" on="1"/>
        <pt x="372" y="30" on="0"/>
        <pt x="405" y="32" on="0"/>
        <pt x="422" y="34" on="1"/>
        <pt x="422" y="88" on="0"/>
        <pt x="421" y="229" on="0"/>
        <pt x="421" y="311" on="1"/>
        <pt x="466" y="311" on="1"/>
        <pt x="466" y="257" on="0"/>
        <pt x="465" y="161" on="0"/>
        <pt x="465" y="119" on="1"/>
        <pt x="465" y="88" on="0"/>
        <pt x="466" y="30" on="0"/>
        <pt x="467" y="5" on="1"/>
        <pt x="432" y="-2" on="0"/>
        <pt x="368" y="-9" on="0"/>
      </contour>
    </TTGlyph>
    <TTGlyph name="Gbreve" xMin="60" yMin="-9" xMax="470" yMax="867">
      <contour>
        <pt x="286" y="705" on="1"/>
        <pt x="238" y="705" on="0"/>
        <pt x="154" y="775" on="0"/>
        <pt x="112" y="847" on="1"/>
        <pt x="145" y="867" on="1"/>
        <pt x="185" y="800" on="0"/>
        <pt x="250" y="743" on="0"/>
        <pt x="289" y="743" on="1"/>
        <pt x="332" y="743" on="0"/>
        <pt x="401" y="805" on="0"/>
        <pt x="441" y="863" on="1"/>
        <pt x="470" y="848" on="1"/>
        <pt x="428" y="781" on="0"/>
        <pt x="336" y="705" on="0"/>
      </contour>
      <contour>
        <pt x="340" y="-9" on="1"/>
        <pt x="265" y="-9" on="0"/>
        <pt x="159" y="36" on="0"/>
        <pt x="91" y="117" on="0"/>
        <pt x="60" y="228" on="0"/>
        <pt x="60" y="294" on="1"/>
        <pt x="60" y="359" on="0"/>
        <pt x="97" y="476" on="0"/>
        <pt x="186" y="565" on="0"/>
        <pt x="335" y="622" on="0"/>
        <pt x="446" y="626" on="1"/>
        <pt x="449" y="583" on="1"/>
        <pt x="343" y="579" on="0"/>
        <pt x="209" y="533" on="0"/>
        <pt x="133" y="459" on="0"/>
        <pt x="105" y="360" on="0"/>
        <pt x="105" y="304" on="1"/>
        <pt x="105" y="243" on="0"/>
        <pt x="130" y="142" on="0"/>
        <pt x="188" y="70" on="0"/>
        <pt x="285" y="30" on="0"/>
        <pt x="357" y="30" on="1"/>
        <pt x="372" y="30" on="0"/>
        <pt x="405" y="32" on="0"/>
        <pt x="422" y="34" on="1"/>
        <pt x="422" y="88" on="0"/>
        <pt x="421" y="229" on="0"/>
        <pt x="421" y="311" on="1"/>
        <pt x="466" y="311" on="1"/>
        <pt x="466" y="257" on="0"/>
        <pt x="465" y="161" on="0"/>
        <pt x="465" y="119" on="1"/>
        <pt x="465" y="88" on="0"/>
        <pt x="466" y="30" on="0"/>
        <pt x="467" y="5" on="1"/>
        <pt x="432" y="-2" on="0"/>
        <pt x="368" y="-9" on="0"/>
      </contour>
    </TTGlyph>
    <TTGlyph name="Gcommaaccent" xMin="60" yMin="-277" xMax="467" yMax="626">
      <contour>
        <pt x="340" y="-9" on="1"/>
        <pt x="265" y="-9" on="0"/>
        <pt x="159" y="36" on="0"/>
        <pt x="91" y="117" on="0"/>
        <pt x="60" y="228" on="0"/>
        <pt x="60" y="294" on="1"/>
        <pt x="60" y="359" on="0"/>
        <pt x="97" y="476" on="0"/>
        <pt x="186" y="565" on="0"/>
        <pt x="335" y="622" on="0"/>
        <pt x="446" y="626" on="1"/>
        <pt x="449" y="583" on="1"/>
        <pt x="343" y="579" on="0"/>
        <pt x="209" y="533" on="0"/>
        <pt x="133" y="459" on="0"/>
        <pt x="105" y="360" on="0"/>
        <pt x="105" y="304" on="1"/>
        <pt x="105" y="243" on="0"/>
        <pt x="130" y="142" on="0"/>
        <pt x="188" y="70" on="0"/>
        <pt x="285" y="30" on="0"/>
        <pt x="357" y="30" on="1"/>
        <pt x="372" y="30" on="0"/>
        <pt x="405" y="32" on="0"/>
        <pt x="422" y="34" on="1"/>
        <pt x="422" y="88" on="0"/>
        <pt x="421" y="229" on="0"/>
        <pt x="421" y="311" on="1"/>
        <pt x="466" y="311" on="1"/>
        <pt x="466" y="257" on="0"/>
        <pt x="465" y="161" on="0"/>
        <pt x="465" y="119" on="1"/>
        <pt x="465" y="88" on="0"/>
        <pt x="466" y="30" on="0"/>
        <pt x="467" y="5" on="1"/>
        <pt x="432" y="-2" on="0"/>
        <pt x="368" y="-9" on="0"/>
      </contour>
      <contour>
        <pt x="247" y="-270" on="1"/>
        <pt x="263" y="-242" on="0"/>
        <pt x="276" y="-192" on="0"/>
        <pt x="276" y="-170" on="1"/>
        <pt x="276" y="-147" on="0"/>
        <pt x="264" y="-103" on="0"/>
        <pt x="255" y="-82" on="1"/>
        <pt x="258" y="-82" on="0"/>
        <pt x="275" y="-81" on="0"/>
        <pt x="294" y="-80" on="0"/>
        <pt x="312" y="-79" on="0"/>
        <pt x="315" y="-79" on="1"/>
        <pt x="318" y="-91" on="0"/>
        <pt x="322" y="-117" on="0"/>
        <pt x="322" y="-130" on="1"/>
        <pt x="322" y="-164" on="0"/>
        <pt x="296" y="-240" on="0"/>
        <pt x="268" y="-277" on="1"/>
      </contour>
    </TTGlyph>
    <TTGlyph name="Gdotaccent" xMin="60" yMin="-9" xMax="467" yMax="835">
      <contour>
        <pt x="310" y="705" on="1"/>
        <pt x="266" y="705" on="1"/>
        <pt x="269" y="835" on="1"/>
        <pt x="315" y="835" on="1"/>
      </contour>
      <contour>
        <pt x="340" y="-9" on="1"/>
        <pt x="265" y="-9" on="0"/>
        <pt x="159" y="36" on="0"/>
        <pt x="91" y="117" on="0"/>
        <pt x="60" y="228" on="0"/>
        <pt x="60" y="294" on="1"/>
        <pt x="60" y="359" on="0"/>
        <pt x="97" y="476" on="0"/>
        <pt x="186" y="565" on="0"/>
        <pt x="335" y="622" on="0"/>
        <pt x="446" y="626" on="1"/>
        <pt x="449" y="583" on="1"/>
        <pt x="343" y="579" on="0"/>
        <pt x="209" y="533" on="0"/>
        <pt x="133" y="459" on="0"/>
        <pt x="105" y="360" on="0"/>
        <pt x="105" y="304" on="1"/>
        <pt x="105" y="243" on="0"/>
        <pt x="130" y="142" on="0"/>
        <pt x="188" y="70" on="0"/>
        <pt x="285" y="30" on="0"/>
        <pt x="357" y="30" on="1"/>
        <pt x="372" y="30" on="0"/>
        <pt x="405" y="32" on="0"/>
        <pt x="422" y="34" on="1"/>
        <pt x="422" y="88" on="0"/>
        <pt x="421" y="229" on="0"/>
        <pt x="421" y="311" on="1"/>
        <pt x="466" y="311" on="1"/>
        <pt x="466" y="257" on="0"/>
        <pt x="465" y="161" on="0"/>
        <pt x="465" y="119" on="1"/>
        <pt x="465" y="88" on="0"/>
        <pt x="466" y="30" on="0"/>
        <pt x="467" y="5" on="1"/>
        <pt x="432" y="-2" on="0"/>
        <pt x="368" y="-9" on="0"/>
      </contour>
    </TTGlyph>
    <TTGlyph name="H" xMin="92" yMin="0" xMax="458" yMax="620">
      <contour>
        <pt x="413" y="0" on="1"/>
        <pt x="413" y="297" on="1"/>
        <pt x="137" y="297" on="1"/>
        <pt x="137" y="0" on="1"/>
        <pt x="92" y="0" on="1"/>
        <pt x="92" y="620" on="1"/>
        <pt x="137" y="620" on="1"/>
        <pt x="137" y="333" on="1"/>
        <pt x="413" y="333" on="1"/>
        <pt x="413" y="620" on="1"/>
        <pt x="458" y="620" on="1"/>
        <pt x="458" y="0" on="1"/>
      </contour>
    </TTGlyph>
    <TTGlyph name="Hbar" xMin="13" yMin="0" xMax="537" yMax="620">
      <contour>
        <pt x="413" y="323" on="1"/>
        <pt x="413" y="454" on="1"/>
        <pt x="137" y="454" on="1"/>
        <pt x="137" y="323" on="1"/>
      </contour>
      <contour>
        <pt x="413" y="0" on="1"/>
        <pt x="413" y="287" on="1"/>
        <pt x="137" y="287" on="1"/>
        <pt x="137" y="0" on="1"/>
        <pt x="92" y="0" on="1"/>
        <pt x="92" y="453" on="1"/>
        <pt x="13" y="453" on="1"/>
        <pt x="13" y="488" on="1"/>
        <pt x="92" y="488" on="1"/>
        <pt x="92" y="620" on="1"/>
        <pt x="137" y="620" on="1"/>
        <pt x="137" y="487" on="1"/>
        <pt x="413" y="487" on="1"/>
        <pt x="413" y="620" on="1"/>
        <pt x="458" y="620" on="1"/>
        <pt x="458" y="488" on="1"/>
        <pt x="537" y="488" on="1"/>
        <pt x="537" y="453" on="1"/>
        <pt x="458" y="453" on="1"/>
        <pt x="458" y="0" on="1"/>
      </contour>
    </TTGlyph>
    <TTGlyph name="I" xMin="85" yMin="0" xMax="466" yMax="620">
      <contour>
        <pt x="296" y="583" on="1"/>
        <pt x="296" y="37" on="1"/>
        <pt x="466" y="37" on="1"/>
        <pt x="462" y="0" on="1"/>
        <pt x="85" y="0" on="1"/>
        <pt x="85" y="37" on="1"/>
        <pt x="251" y="37" on="1"/>
        <pt x="251" y="583" on="1"/>
        <pt x="85" y="583" on="1"/>
        <pt x="85" y="620" on="1"/>
        <pt x="462" y="620" on="1"/>
        <pt x="462" y="583" on="1"/>
      </contour>
    </TTGlyph>
    <TTGlyph name="Iacute" xMin="85" yMin="0" xMax="466" yMax="896">
      <contour>
        <pt x="188" y="717" on="1"/>
        <pt x="209" y="733" on="0"/>
        <pt x="259" y="778" on="0"/>
        <pt x="307" y="826" on="0"/>
        <pt x="350" y="875" on="0"/>
        <pt x="366" y="896" on="1"/>
        <pt x="409" y="859" on="1"/>
        <pt x="390" y="840" on="0"/>
        <pt x="339" y="795" on="0"/>
        <pt x="283" y="752" on="0"/>
        <pt x="228" y="711" on="0"/>
        <pt x="204" y="696" on="1"/>
      </contour>
      <contour>
        <pt x="296" y="583" on="1"/>
        <pt x="296" y="37" on="1"/>
        <pt x="466" y="37" on="1"/>
        <pt x="462" y="0" on="1"/>
        <pt x="85" y="0" on="1"/>
        <pt x="85" y="37" on="1"/>
        <pt x="251" y="37" on="1"/>
        <pt x="251" y="583" on="1"/>
        <pt x="85" y="583" on="1"/>
        <pt x="85" y="620" on="1"/>
        <pt x="462" y="620" on="1"/>
        <pt x="462" y="583" on="1"/>
      </contour>
    </TTGlyph>
    <TTGlyph name="Ibreve" xMin="85" yMin="0" xMax="466" yMax="867">
      <contour>
        <pt x="272" y="705" on="1"/>
        <pt x="224" y="705" on="0"/>
        <pt x="140" y="775" on="0"/>
        <pt x="98" y="847" on="1"/>
        <pt x="131" y="867" on="1"/>
        <pt x="171" y="800" on="0"/>
        <pt x="236" y="743" on="0"/>
        <pt x="275" y="743" on="1"/>
        <pt x="318" y="743" on="0"/>
        <pt x="387" y="805" on="0"/>
        <pt x="427" y="863" on="1"/>
        <pt x="456" y="848" on="1"/>
        <pt x="414" y="781" on="0"/>
        <pt x="322" y="705" on="0"/>
      </contour>
      <contour>
        <pt x="296" y="583" on="1"/>
        <pt x="296" y="37" on="1"/>
        <pt x="466" y="37" on="1"/>
        <pt x="462" y="0" on="1"/>
        <pt x="85" y="0" on="1"/>
        <pt x="85" y="37" on="1"/>
        <pt x="251" y="37" on="1"/>
        <pt x="251" y="583" on="1"/>
        <pt x="85" y="583" on="1"/>
        <pt x="85" y="620" on="1"/>
        <pt x="462" y="620" on="1"/>
        <pt x="462" y="583" on="1"/>
      </contour>
    </TTGlyph>
    <TTGlyph name="Icircumflex" xMin="85" yMin="0" xMax="466" yMax="876">
      <contour>
        <pt x="415" y="700" on="1"/>
        <pt x="275" y="827" on="1"/>
        <pt x="133" y="701" on="1"/>
        <pt x="108" y="724" on="1"/>
        <pt x="277" y="876" on="1"/>
        <pt x="278" y="876" on="1"/>
        <pt x="444" y="728" on="1"/>
      </contour>
      <contour>
        <pt x="296" y="583" on="1"/>
        <pt x="296" y="37" on="1"/>
        <pt x="466" y="37" on="1"/>
        <pt x="462" y="0" on="1"/>
        <pt x="85" y="0" on="1"/>
        <pt x="85" y="37" on="1"/>
        <pt x="251" y="37" on="1"/>
        <pt x="251" y="583" on="1"/>
        <pt x="85" y="583" on="1"/>
        <pt x="85" y="620" on="1"/>
        <pt x="462" y="620" on="1"/>
        <pt x="462" y="583" on="1"/>
      </contour>
    </TTGlyph>
    <TTGlyph name="Idieresis" xMin="85" yMin="0" xMax="466" yMax="835">
      <contour>
        <pt x="408" y="705" on="1"/>
        <pt x="364" y="705" on="1"/>
        <pt x="363" y="835" on="1"/>
        <pt x="410" y="835" on="1"/>
      </contour>
      <contour>
        <pt x="191" y="705" on="1"/>
        <pt x="147" y="705" on="1"/>
        <pt x="146" y="835" on="1"/>
        <pt x="193" y="835" on="1"/>
      </contour>
      <contour>
        <pt x="296" y="583" on="1"/>
        <pt x="296" y="37" on="1"/>
        <pt x="466" y="37" on="1"/>
        <pt x="462" y="0" on="1"/>
        <pt x="85" y="0" on="1"/>
        <pt x="85" y="37" on="1"/>
        <pt x="251" y="37" on="1"/>
        <pt x="251" y="583" on="1"/>
        <pt x="85" y="583" on="1"/>
        <pt x="85" y="620" on="1"/>
        <pt x="462" y="620" on="1"/>
        <pt x="462" y="583" on="1"/>
      </contour>
    </TTGlyph>
    <TTGlyph name="Idotaccent" xMin="85" yMin="0" xMax="466" yMax="835">
      <contour>
        <pt x="296" y="705" on="1"/>
        <pt x="252" y="705" on="1"/>
        <pt x="255" y="835" on="1"/>
        <pt x="301" y="835" on="1"/>
      </contour>
      <contour>
        <pt x="296" y="583" on="1"/>
        <pt x="296" y="37" on="1"/>
        <pt x="466" y="37" on="1"/>
        <pt x="462" y="0" on="1"/>
        <pt x="85" y="0" on="1"/>
        <pt x="85" y="37" on="1"/>
        <pt x="251" y="37" on="1"/>
        <pt x="251" y="583" on="1"/>
        <pt x="85" y="583" on="1"/>
        <pt x="85" y="620" on="1"/>
        <pt x="462" y="620" on="1"/>
        <pt x="462" y="583" on="1"/>
      </contour>
    </TTGlyph>
    <TTGlyph name="Igrave" xMin="85" yMin="0" xMax="466" yMax="888">
      <contour>
        <pt x="361" y="708" on="1"/>
        <pt x="345" y="688" on="1"/>
        <pt x="321" y="703" on="0"/>
        <pt x="266" y="744" on="0"/>
        <pt x="211" y="787" on="0"/>
        <pt x="160" y="830" on="0"/>
        <pt x="141" y="849" on="1"/>
        <pt x="182" y="888" on="1"/>
        <pt x="198" y="868" on="0"/>
        <pt x="242" y="819" on="0"/>
        <pt x="291" y="770" on="0"/>
        <pt x="340" y="724" on="0"/>
      </contour>
      <contour>
        <pt x="296" y="583" on="1"/>
        <pt x="296" y="37" on="1"/>
        <pt x="466" y="37" on="1"/>
        <pt x="462" y="0" on="1"/>
        <pt x="85" y="0" on="1"/>
        <pt x="85" y="37" on="1"/>
        <pt x="251" y="37" on="1"/>
        <pt x="251" y="583" on="1"/>
        <pt x="85" y="583" on="1"/>
        <pt x="85" y="620" on="1"/>
        <pt x="462" y="620" on="1"/>
        <pt x="462" y="583" on="1"/>
      </contour>
    </TTGlyph>
    <TTGlyph name="Imacron" xMin="85" yMin="0" xMax="466" yMax="793">
      <contour>
        <pt x="435" y="793" on="1"/>
        <pt x="435" y="754" on="1"/>
        <pt x="117" y="754" on="1"/>
        <pt x="117" y="793" on="1"/>
      </contour>
      <contour>
        <pt x="296" y="583" on="1"/>
        <pt x="296" y="37" on="1"/>
        <pt x="466" y="37" on="1"/>
        <pt x="462" y="0" on="1"/>
        <pt x="85" y="0" on="1"/>
        <pt x="85" y="37" on="1"/>
        <pt x="251" y="37" on="1"/>
        <pt x="251" y="583" on="1"/>
        <pt x="85" y="583" on="1"/>
        <pt x="85" y="620" on="1"/>
        <pt x="462" y="620" on="1"/>
        <pt x="462" y="583" on="1"/>
      </contour>
    </TTGlyph>
    <TTGlyph name="Iogonek" xMin="85" yMin="-205" xMax="466" yMax="620">
      <contour>
        <pt x="334" y="-167" on="1"/>
        <pt x="329" y="-205" on="1"/>
        <pt x="240" y="-195" on="0"/>
        <pt x="168" y="-152" on="0"/>
        <pt x="168" y="-118" on="1"/>
        <pt x="168" y="-91" on="0"/>
        <pt x="208" y="-37" on="0"/>
        <pt x="254" y="0" on="1"/>
        <pt x="85" y="0" on="1"/>
        <pt x="85" y="37" on="1"/>
        <pt x="251" y="37" on="1"/>
        <pt x="251" y="583" on="1"/>
        <pt x="85" y="583" on="1"/>
        <pt x="85" y="620" on="1"/>
        <pt x="462" y="620" on="1"/>
        <pt x="462" y="583" on="1"/>
        <pt x="296" y="583" on="1"/>
        <pt x="296" y="37" on="1"/>
        <pt x="466" y="37" on="1"/>
        <pt x="462" y="0" on="1"/>
        <pt x="296" y="0" on="1"/>
        <pt x="246" y="-42" on="0"/>
        <pt x="208" y="-91" on="0"/>
        <pt x="208" y="-110" on="1"/>
        <pt x="208" y="-132" on="0"/>
        <pt x="266" y="-159" on="0"/>
      </contour>
    </TTGlyph>
    <TTGlyph name="J" xMin="98" yMin="-11" xMax="408" yMax="620">
      <contour>
        <pt x="137" y="620" on="1"/>
        <pt x="408" y="620" on="1"/>
        <pt x="408" y="190" on="1"/>
        <pt x="408" y="140" on="0"/>
        <pt x="380" y="64" on="0"/>
        <pt x="316" y="14" on="0"/>
        <pt x="207" y="-11" on="0"/>
        <pt x="127" y="-11" on="1"/>
        <pt x="98" y="-11" on="1"/>
        <pt x="98" y="32" on="1"/>
        <pt x="113" y="31" on="0"/>
        <pt x="140" y="31" on="0"/>
        <pt x="153" y="31" on="1"/>
        <pt x="218" y="31" on="0"/>
        <pt x="300" y="47" on="0"/>
        <pt x="346" y="84" on="0"/>
        <pt x="363" y="146" on="0"/>
        <pt x="363" y="191" on="1"/>
        <pt x="363" y="583" on="1"/>
        <pt x="137" y="583" on="1"/>
      </contour>
    </TTGlyph>
    <TTGlyph name="K" xMin="107" yMin="-4" xMax="507" yMax="620">
      <contour>
        <pt x="457" y="-4" on="1"/>
        <pt x="227" y="295" on="1"/>
        <pt x="152" y="295" on="1"/>
        <pt x="152" y="0" on="1"/>
        <pt x="107" y="0" on="1"/>
        <pt x="107" y="620" on="1"/>
        <pt x="152" y="620" on="1"/>
        <pt x="152" y="330" on="1"/>
        <pt x="230" y="330" on="1"/>
        <pt x="444" y="620" on="1"/>
        <pt x="493" y="620" on="1"/>
        <pt x="267" y="313" on="1"/>
        <pt x="507" y="3" on="1"/>
      </contour>
    </TTGlyph>
    <TTGlyph name="Kcommaaccent" xMin="107" yMin="-272" xMax="507" yMax="620">
      <contour>
        <pt x="457" y="-4" on="1"/>
        <pt x="227" y="295" on="1"/>
        <pt x="152" y="295" on="1"/>
        <pt x="152" y="0" on="1"/>
        <pt x="107" y="0" on="1"/>
        <pt x="107" y="620" on="1"/>
        <pt x="152" y="620" on="1"/>
        <pt x="152" y="330" on="1"/>
        <pt x="230" y="330" on="1"/>
        <pt x="444" y="620" on="1"/>
        <pt x="493" y="620" on="1"/>
        <pt x="267" y="313" on="1"/>
        <pt x="507" y="3" on="1"/>
      </contour>
      <contour>
        <pt x="231" y="-265" on="1"/>
        <pt x="247" y="-237" on="0"/>
        <pt x="260" y="-187" on="0"/>
        <pt x="260" y="-165" on="1"/>
        <pt x="260" y="-142" on="0"/>
        <pt x="248" y="-98" on="0"/>
        <pt x="239" y="-77" on="1"/>
        <pt x="242" y="-77" on="0"/>
        <pt x="259" y="-76" on="0"/>
        <pt x="278" y="-75" on="0"/>
        <pt x="296" y="-74" on="0"/>
        <pt x="299" y="-74" on="1"/>
        <pt x="302" y="-86" on="0"/>
        <pt x="306" y="-112" on="0"/>
        <pt x="306" y="-125" on="1"/>
        <pt x="306" y="-159" on="0"/>
        <pt x="280" y="-235" on="0"/>
        <pt x="252" y="-272" on="1"/>
      </contour>
    </TTGlyph>
    <TTGlyph name="L" xMin="125" yMin="0" xMax="496" yMax="620">
      <contour>
        <pt x="492" y="0" on="1"/>
        <pt x="125" y="0" on="1"/>
        <pt x="125" y="620" on="1"/>
        <pt x="170" y="620" on="1"/>
        <pt x="170" y="40" on="1"/>
        <pt x="496" y="40" on="1"/>
      </contour>
    </TTGlyph>
    <TTGlyph name="Lacute" xMin="125" yMin="0" xMax="496" yMax="896">
      <contour>
        <pt x="222" y="717" on="1"/>
        <pt x="243" y="733" on="0"/>
        <pt x="293" y="778" on="0"/>
        <pt x="341" y="826" on="0"/>
        <pt x="384" y="875" on="0"/>
        <pt x="400" y="896" on="1"/>
        <pt x="443" y="859" on="1"/>
        <pt x="424" y="840" on="0"/>
        <pt x="373" y="795" on="0"/>
        <pt x="317" y="752" on="0"/>
        <pt x="262" y="711" on="0"/>
        <pt x="238" y="696" on="1"/>
      </contour>
      <contour>
        <pt x="492" y="0" on="1"/>
        <pt x="125" y="0" on="1"/>
        <pt x="125" y="620" on="1"/>
        <pt x="170" y="620" on="1"/>
        <pt x="170" y="40" on="1"/>
        <pt x="496" y="40" on="1"/>
      </contour>
    </TTGlyph>
    <TTGlyph name="Lcaron" xMin="125" yMin="0" xMax="496" yMax="696">
      <contour>
        <pt x="389" y="459" on="1"/>
        <pt x="409" y="495" on="0"/>
        <pt x="425" y="559" on="0"/>
        <pt x="425" y="588" on="1"/>
        <pt x="425" y="616" on="0"/>
        <pt x="413" y="668" on="0"/>
        <pt x="404" y="694" on="1"/>
        <pt x="462" y="696" on="1"/>
        <pt x="466" y="680" on="0"/>
        <pt x="471" y="646" on="0"/>
        <pt x="471" y="628" on="1"/>
        <pt x="471" y="588" on="0"/>
        <pt x="443" y="499" on="0"/>
        <pt x="409" y="450" on="1"/>
      </contour>
      <contour>
        <pt x="492" y="0" on="1"/>
        <pt x="125" y="0" on="1"/>
        <pt x="125" y="620" on="1"/>
        <pt x="170" y="620" on="1"/>
        <pt x="170" y="40" on="1"/>
        <pt x="496" y="40" on="1"/>
      </contour>
    </TTGlyph>
    <TTGlyph name="Lcommaaccent" xMin="125" yMin="-268" xMax="496" yMax="620">
      <contour>
        <pt x="492" y="0" on="1"/>
        <pt x="125" y="0" on="1"/>
        <pt x="125" y="620" on="1"/>
        <pt x="170" y="620" on="1"/>
        <pt x="170" y="40" on="1"/>
        <pt x="496" y="40" on="1"/>
      </contour>
      <contour>
        <pt x="267" y="-261" on="1"/>
        <pt x="283" y="-233" on="0"/>
        <pt x="296" y="-183" on="0"/>
        <pt x="296" y="-161" on="1"/>
        <pt x="296" y="-138" on="0"/>
        <pt x="284" y="-94" on="0"/>
        <pt x="275" y="-73" on="1"/>
        <pt x="278" y="-73" on="0"/>
        <pt x="295" y="-72" on="0"/>
        <pt x="314" y="-71" on="0"/>
        <pt x="332" y="-70" on="0"/>
        <pt x="335" y="-70" on="1"/>
        <pt x="338" y="-82" on="0"/>
        <pt x="342" y="-108" on="0"/>
        <pt x="342" y="-121" on="1"/>
        <pt x="342" y="-155" on="0"/>
        <pt x="316" y="-231" on="0"/>
        <pt x="288" y="-268" on="1"/>
      </contour>
    </TTGlyph>
    <TTGlyph name="Ldot" xMin="125" yMin="0" xMax="496" yMax="620">
      <contour>
        <pt x="492" y="0" on="1"/>
        <pt x="125" y="0" on="1"/>
        <pt x="125" y="620" on="1"/>
        <pt x="170" y="620" on="1"/>
        <pt x="170" y="40" on="1"/>
        <pt x="496" y="40" on="1"/>
      </contour>
      <contour>
        <pt x="455" y="272" on="1"/>
        <pt x="386" y="272" on="1"/>
        <pt x="390" y="357" on="1"/>
        <pt x="459" y="357" on="1"/>
      </contour>
    </TTGlyph>
    <TTGlyph name="Lslash" xMin="37" yMin="0" xMax="496" yMax="620">
      <contour>
        <pt x="492" y="0" on="1"/>
        <pt x="125" y="0" on="1"/>
        <pt x="125" y="315" on="1"/>
        <pt x="46" y="273" on="1"/>
        <pt x="37" y="307" on="1"/>
        <pt x="125" y="353" on="1"/>
        <pt x="125" y="620" on="1"/>
        <pt x="170" y="620" on="1"/>
        <pt x="170" y="377" on="1"/>
        <pt x="335" y="464" on="1"/>
        <pt x="344" y="430" on="1"/>
        <pt x="170" y="338" on="1"/>
        <pt x="170" y="40" on="1"/>
        <pt x="496" y="40" on="1"/>
      </contour>
    </TTGlyph>
    <TTGlyph name="M" xMin="75" yMin="0" xMax="474" yMax="620">
      <contour>
        <pt x="403" y="620" on="1"/>
        <pt x="474" y="620" on="1"/>
        <pt x="474" y="0" on="1"/>
        <pt x="429" y="0" on="1"/>
        <pt x="430" y="562" on="1"/>
        <pt x="426" y="562" on="1"/>
        <pt x="299" y="90" on="1"/>
        <pt x="252" y="90" on="1"/>
        <pt x="121" y="562" on="1"/>
        <pt x="117" y="562" on="1"/>
        <pt x="118" y="0" on="1"/>
        <pt x="75" y="0" on="1"/>
        <pt x="75" y="620" on="1"/>
        <pt x="147" y="620" on="1"/>
        <pt x="147" y="620" on="0"/>
        <pt x="180" y="498" on="0"/>
        <pt x="223" y="340" on="0"/>
        <pt x="265" y="186" on="0"/>
        <pt x="274" y="154" on="1"/>
        <pt x="278" y="154" on="1"/>
        <pt x="287" y="186" on="0"/>
        <pt x="328" y="340" on="0"/>
        <pt x="370" y="498" on="0"/>
        <pt x="403" y="620" on="0"/>
      </contour>
    </TTGlyph>
    <TTGlyph name="N" xMin="92" yMin="0" xMax="458" yMax="620">
      <contour>
        <pt x="404" y="0" on="1"/>
        <pt x="139" y="563" on="1"/>
        <pt x="134" y="563" on="1"/>
        <pt x="135" y="0" on="1"/>
        <pt x="92" y="0" on="1"/>
        <pt x="92" y="620" on="1"/>
        <pt x="155" y="620" on="1"/>
        <pt x="412" y="71" on="1"/>
        <pt x="416" y="71" on="1"/>
        <pt x="415" y="620" on="1"/>
        <pt x="458" y="620" on="1"/>
        <pt x="458" y="0" on="1"/>
      </contour>
    </TTGlyph>
    <TTGlyph name="Nacute" xMin="92" yMin="0" xMax="458" yMax="896">
      <contour>
        <pt x="184" y="717" on="1"/>
        <pt x="205" y="733" on="0"/>
        <pt x="255" y="778" on="0"/>
        <pt x="303" y="826" on="0"/>
        <pt x="346" y="875" on="0"/>
        <pt x="362" y="896" on="1"/>
        <pt x="405" y="859" on="1"/>
        <pt x="386" y="840" on="0"/>
        <pt x="335" y="795" on="0"/>
        <pt x="279" y="752" on="0"/>
        <pt x="224" y="711" on="0"/>
        <pt x="200" y="696" on="1"/>
      </contour>
      <contour>
        <pt x="404" y="0" on="1"/>
        <pt x="139" y="563" on="1"/>
        <pt x="134" y="563" on="1"/>
        <pt x="135" y="0" on="1"/>
        <pt x="92" y="0" on="1"/>
        <pt x="92" y="620" on="1"/>
        <pt x="155" y="620" on="1"/>
        <pt x="412" y="71" on="1"/>
        <pt x="416" y="71" on="1"/>
        <pt x="415" y="620" on="1"/>
        <pt x="458" y="620" on="1"/>
        <pt x="458" y="0" on="1"/>
      </contour>
    </TTGlyph>
    <TTGlyph name="Ncaron" xMin="92" yMin="0" xMax="458" yMax="870">
      <contour>
        <pt x="277" y="695" on="1"/>
        <pt x="276" y="695" on="1"/>
        <pt x="110" y="842" on="1"/>
        <pt x="139" y="870" on="1"/>
        <pt x="279" y="743" on="1"/>
        <pt x="421" y="870" on="1"/>
        <pt x="446" y="846" on="1"/>
      </contour>
      <contour>
        <pt x="404" y="0" on="1"/>
        <pt x="139" y="563" on="1"/>
        <pt x="134" y="563" on="1"/>
        <pt x="135" y="0" on="1"/>
        <pt x="92" y="0" on="1"/>
        <pt x="92" y="620" on="1"/>
        <pt x="155" y="620" on="1"/>
        <pt x="412" y="71" on="1"/>
        <pt x="416" y="71" on="1"/>
        <pt x="415" y="620" on="1"/>
        <pt x="458" y="620" on="1"/>
        <pt x="458" y="0" on="1"/>
      </contour>
    </TTGlyph>
    <TTGlyph name="Ncommaaccent" xMin="92" yMin="-268" xMax="458" yMax="620">
      <contour>
        <pt x="404" y="0" on="1"/>
        <pt x="139" y="563" on="1"/>
        <pt x="134" y="563" on="1"/>
        <pt x="135" y="0" on="1"/>
        <pt x="92" y="0" on="1"/>
        <pt x="92" y="620" on="1"/>
        <pt x="155" y="620" on="1"/>
        <pt x="412" y="71" on="1"/>
        <pt x="416" y="71" on="1"/>
        <pt x="415" y="620" on="1"/>
        <pt x="458" y="620" on="1"/>
        <pt x="458" y="0" on="1"/>
      </contour>
      <contour>
        <pt x="229" y="-261" on="1"/>
        <pt x="245" y="-233" on="0"/>
        <pt x="258" y="-183" on="0"/>
        <pt x="258" y="-161" on="1"/>
        <pt x="258" y="-138" on="0"/>
        <pt x="246" y="-94" on="0"/>
        <pt x="237" y="-73" on="1"/>
        <pt x="240" y="-73" on="0"/>
        <pt x="257" y="-72" on="0"/>
        <pt x="276" y="-71" on="0"/>
        <pt x="294" y="-70" on="0"/>
        <pt x="297" y="-70" on="1"/>
        <pt x="300" y="-82" on="0"/>
        <pt x="304" y="-108" on="0"/>
        <pt x="304" y="-121" on="1"/>
        <pt x="304" y="-155" on="0"/>
        <pt x="278" y="-231" on="0"/>
        <pt x="250" y="-268" on="1"/>
      </contour>
    </TTGlyph>
    <TTGlyph name="Ntilde" xMin="86" yMin="0" xMax="471" yMax="862">
      <contour>
        <pt x="349" y="705" on="1"/>
        <pt x="325" y="705" on="0"/>
        <pt x="287" y="742" on="0"/>
        <pt x="253" y="786" on="0"/>
        <pt x="222" y="823" on="0"/>
        <pt x="204" y="823" on="1"/>
        <pt x="179" y="823" on="0"/>
        <pt x="135" y="762" on="0"/>
        <pt x="115" y="714" on="1"/>
        <pt x="86" y="726" on="1"/>
        <pt x="112" y="791" on="0"/>
        <pt x="174" y="862" on="0"/>
        <pt x="208" y="862" on="1"/>
        <pt x="232" y="862" on="0"/>
        <pt x="270" y="825" on="0"/>
        <pt x="304" y="781" on="0"/>
        <pt x="335" y="744" on="0"/>
        <pt x="353" y="744" on="1"/>
        <pt x="378" y="744" on="0"/>
        <pt x="421" y="805" on="0"/>
        <pt x="441" y="853" on="1"/>
        <pt x="471" y="841" on="1"/>
        <pt x="445" y="776" on="0"/>
        <pt x="383" y="705" on="0"/>
      </contour>
      <contour>
        <pt x="404" y="0" on="1"/>
        <pt x="139" y="563" on="1"/>
        <pt x="134" y="563" on="1"/>
        <pt x="135" y="0" on="1"/>
        <pt x="92" y="0" on="1"/>
        <pt x="92" y="620" on="1"/>
        <pt x="155" y="620" on="1"/>
        <pt x="412" y="71" on="1"/>
        <pt x="416" y="71" on="1"/>
        <pt x="415" y="620" on="1"/>
        <pt x="458" y="620" on="1"/>
        <pt x="458" y="0" on="1"/>
      </contour>
    </TTGlyph>
    <TTGlyph name="O" xMin="52" yMin="-15" xMax="498" yMax="635">
      <contour>
        <pt x="268" y="-15" on="1"/>
        <pt x="167" y="-15" on="0"/>
        <pt x="52" y="151" on="0"/>
        <pt x="52" y="301" on="1"/>
        <pt x="52" y="461" on="0"/>
        <pt x="178" y="635" on="0"/>
        <pt x="283" y="635" on="1"/>
        <pt x="384" y="635" on="0"/>
        <pt x="497" y="470" on="0"/>
        <pt x="498" y="319" on="1"/>
        <pt x="498" y="315" on="1"/>
        <pt x="498" y="158" on="0"/>
        <pt x="372" y="-15" on="0"/>
      </contour>
      <contour>
        <pt x="274" y="596" on="1"/>
        <pt x="190" y="596" on="0"/>
        <pt x="97" y="447" on="0"/>
        <pt x="97" y="310" on="1"/>
        <pt x="97" y="172" on="0"/>
        <pt x="189" y="24" on="0"/>
        <pt x="276" y="24" on="1"/>
        <pt x="360" y="24" on="0"/>
        <pt x="453" y="173" on="0"/>
        <pt x="453" y="310" on="1"/>
        <pt x="453" y="448" on="0"/>
        <pt x="361" y="596" on="0"/>
      </contour>
    </TTGlyph>
    <TTGlyph name="OE" xMin="45" yMin="0" xMax="502" yMax="620">
      <contour>
        <pt x="90" y="307" on="1"/>
        <pt x="90" y="170" on="0"/>
        <pt x="181" y="43" on="0"/>
        <pt x="279" y="41" on="1"/>
        <pt x="279" y="579" on="1"/>
        <pt x="184" y="577" on="0"/>
        <pt x="90" y="443" on="0"/>
      </contour>
      <contour>
        <pt x="502" y="40" on="1"/>
        <pt x="498" y="0" on="1"/>
        <pt x="298" y="0" on="1"/>
        <pt x="167" y="0" on="0"/>
        <pt x="45" y="149" on="0"/>
        <pt x="45" y="298" on="1"/>
        <pt x="45" y="450" on="0"/>
        <pt x="169" y="620" on="0"/>
        <pt x="300" y="620" on="1"/>
        <pt x="499" y="620" on="1"/>
        <pt x="499" y="580" on="1"/>
        <pt x="324" y="580" on="1"/>
        <pt x="324" y="333" on="1"/>
        <pt x="476" y="333" on="1"/>
        <pt x="476" y="297" on="1"/>
        <pt x="324" y="297" on="1"/>
        <pt x="324" y="40" on="1"/>
      </contour>
    </TTGlyph>
    <TTGlyph name="Oacute" xMin="52" yMin="-15" xMax="498" yMax="903">
      <contour>
        <pt x="189" y="724" on="1"/>
        <pt x="210" y="740" on="0"/>
        <pt x="260" y="785" on="0"/>
        <pt x="308" y="833" on="0"/>
        <pt x="351" y="882" on="0"/>
        <pt x="367" y="903" on="1"/>
        <pt x="410" y="866" on="1"/>
        <pt x="391" y="847" on="0"/>
        <pt x="340" y="802" on="0"/>
        <pt x="284" y="759" on="0"/>
        <pt x="229" y="718" on="0"/>
        <pt x="205" y="703" on="1"/>
      </contour>
      <contour>
        <pt x="268" y="-15" on="1"/>
        <pt x="167" y="-15" on="0"/>
        <pt x="52" y="151" on="0"/>
        <pt x="52" y="301" on="1"/>
        <pt x="52" y="461" on="0"/>
        <pt x="178" y="635" on="0"/>
        <pt x="283" y="635" on="1"/>
        <pt x="384" y="635" on="0"/>
        <pt x="497" y="470" on="0"/>
        <pt x="498" y="319" on="1"/>
        <pt x="498" y="315" on="1"/>
        <pt x="498" y="158" on="0"/>
        <pt x="372" y="-15" on="0"/>
      </contour>
      <contour>
        <pt x="274" y="596" on="1"/>
        <pt x="190" y="596" on="0"/>
        <pt x="97" y="447" on="0"/>
        <pt x="97" y="310" on="1"/>
        <pt x="97" y="172" on="0"/>
        <pt x="189" y="24" on="0"/>
        <pt x="276" y="24" on="1"/>
        <pt x="360" y="24" on="0"/>
        <pt x="453" y="173" on="0"/>
        <pt x="453" y="310" on="1"/>
        <pt x="453" y="448" on="0"/>
        <pt x="361" y="596" on="0"/>
      </contour>
    </TTGlyph>
    <TTGlyph name="Obreve" xMin="52" yMin="-15" xMax="498" yMax="874">
      <contour>
        <pt x="273" y="712" on="1"/>
        <pt x="225" y="712" on="0"/>
        <pt x="141" y="782" on="0"/>
        <pt x="99" y="854" on="1"/>
        <pt x="132" y="874" on="1"/>
        <pt x="172" y="807" on="0"/>
        <pt x="237" y="750" on="0"/>
        <pt x="276" y="750" on="1"/>
        <pt x="319" y="750" on="0"/>
        <pt x="388" y="812" on="0"/>
        <pt x="428" y="870" on="1"/>
        <pt x="457" y="855" on="1"/>
        <pt x="415" y="788" on="0"/>
        <pt x="323" y="712" on="0"/>
      </contour>
      <contour>
        <pt x="268" y="-15" on="1"/>
        <pt x="167" y="-15" on="0"/>
        <pt x="52" y="151" on="0"/>
        <pt x="52" y="301" on="1"/>
        <pt x="52" y="461" on="0"/>
        <pt x="178" y="635" on="0"/>
        <pt x="283" y="635" on="1"/>
        <pt x="384" y="635" on="0"/>
        <pt x="497" y="470" on="0"/>
        <pt x="498" y="319" on="1"/>
        <pt x="498" y="315" on="1"/>
        <pt x="498" y="158" on="0"/>
        <pt x="372" y="-15" on="0"/>
      </contour>
      <contour>
        <pt x="274" y="596" on="1"/>
        <pt x="190" y="596" on="0"/>
        <pt x="97" y="447" on="0"/>
        <pt x="97" y="310" on="1"/>
        <pt x="97" y="172" on="0"/>
        <pt x="189" y="24" on="0"/>
        <pt x="276" y="24" on="1"/>
        <pt x="360" y="24" on="0"/>
        <pt x="453" y="173" on="0"/>
        <pt x="453" y="310" on="1"/>
        <pt x="453" y="448" on="0"/>
        <pt x="361" y="596" on="0"/>
      </contour>
    </TTGlyph>
    <TTGlyph name="Ocircumflex" xMin="52" yMin="-15" xMax="498" yMax="883">
      <contour>
        <pt x="416" y="707" on="1"/>
        <pt x="276" y="834" on="1"/>
        <pt x="134" y="708" on="1"/>
        <pt x="109" y="731" on="1"/>
        <pt x="278" y="883" on="1"/>
        <pt x="279" y="883" on="1"/>
        <pt x="445" y="735" on="1"/>
      </contour>
      <contour>
        <pt x="268" y="-15" on="1"/>
        <pt x="167" y="-15" on="0"/>
        <pt x="52" y="151" on="0"/>
        <pt x="52" y="301" on="1"/>
        <pt x="52" y="461" on="0"/>
        <pt x="178" y="635" on="0"/>
        <pt x="283" y="635" on="1"/>
        <pt x="384" y="635" on="0"/>
        <pt x="497" y="470" on="0"/>
        <pt x="498" y="319" on="1"/>
        <pt x="498" y="315" on="1"/>
        <pt x="498" y="158" on="0"/>
        <pt x="372" y="-15" on="0"/>
      </contour>
      <contour>
        <pt x="274" y="596" on="1"/>
        <pt x="190" y="596" on="0"/>
        <pt x="97" y="447" on="0"/>
        <pt x="97" y="310" on="1"/>
        <pt x="97" y="172" on="0"/>
        <pt x="189" y="24" on="0"/>
        <pt x="276" y="24" on="1"/>
        <pt x="360" y="24" on="0"/>
        <pt x="453" y="173" on="0"/>
        <pt x="453" y="310" on="1"/>
        <pt x="453" y="448" on="0"/>
        <pt x="361" y="596" on="0"/>
      </contour>
    </TTGlyph>
    <TTGlyph name="Odieresis" xMin="52" yMin="-15" xMax="498" yMax="842">
      <contour>
        <pt x="409" y="712" on="1"/>
        <pt x="365" y="712" on="1"/>
        <pt x="364" y="842" on="1"/>
        <pt x="411" y="842" on="1"/>
      </contour>
      <contour>
        <pt x="192" y="712" on="1"/>
        <pt x="148" y="712" on="1"/>
        <pt x="147" y="842" on="1"/>
        <pt x="194" y="842" on="1"/>
      </contour>
      <contour>
        <pt x="268" y="-15" on="1"/>
        <pt x="167" y="-15" on="0"/>
        <pt x="52" y="151" on="0"/>
        <pt x="52" y="301" on="1"/>
        <pt x="52" y="461" on="0"/>
        <pt x="178" y="635" on="0"/>
        <pt x="283" y="635" on="1"/>
        <pt x="384" y="635" on="0"/>
        <pt x="497" y="470" on="0"/>
        <pt x="498" y="319" on="1"/>
        <pt x="498" y="315" on="1"/>
        <pt x="498" y="158" on="0"/>
        <pt x="372" y="-15" on="0"/>
      </contour>
      <contour>
        <pt x="274" y="596" on="1"/>
        <pt x="190" y="596" on="0"/>
        <pt x="97" y="447" on="0"/>
        <pt x="97" y="310" on="1"/>
        <pt x="97" y="172" on="0"/>
        <pt x="189" y="24" on="0"/>
        <pt x="276" y="24" on="1"/>
        <pt x="360" y="24" on="0"/>
        <pt x="453" y="173" on="0"/>
        <pt x="453" y="310" on="1"/>
        <pt x="453" y="448" on="0"/>
        <pt x="361" y="596" on="0"/>
      </contour>
    </TTGlyph>
    <TTGlyph name="Ograve" xMin="52" yMin="-15" xMax="498" yMax="895">
      <contour>
        <pt x="363" y="715" on="1"/>
        <pt x="347" y="695" on="1"/>
        <pt x="323" y="710" on="0"/>
        <pt x="268" y="751" on="0"/>
        <pt x="213" y="794" on="0"/>
        <pt x="162" y="837" on="0"/>
        <pt x="143" y="856" on="1"/>
        <pt x="184" y="895" on="1"/>
        <pt x="200" y="875" on="0"/>
        <pt x="244" y="826" on="0"/>
        <pt x="293" y="777" on="0"/>
        <pt x="342" y="731" on="0"/>
      </contour>
      <contour>
        <pt x="268" y="-15" on="1"/>
        <pt x="167" y="-15" on="0"/>
        <pt x="52" y="151" on="0"/>
        <pt x="52" y="301" on="1"/>
        <pt x="52" y="461" on="0"/>
        <pt x="178" y="635" on="0"/>
        <pt x="283" y="635" on="1"/>
        <pt x="384" y="635" on="0"/>
        <pt x="497" y="470" on="0"/>
        <pt x="498" y="319" on="1"/>
        <pt x="498" y="315" on="1"/>
        <pt x="498" y="158" on="0"/>
        <pt x="372" y="-15" on="0"/>
      </contour>
      <contour>
        <pt x="274" y="596" on="1"/>
        <pt x="190" y="596" on="0"/>
        <pt x="97" y="447" on="0"/>
        <pt x="97" y="310" on="1"/>
        <pt x="97" y="172" on="0"/>
        <pt x="189" y="24" on="0"/>
        <pt x="276" y="24" on="1"/>
        <pt x="360" y="24" on="0"/>
        <pt x="453" y="173" on="0"/>
        <pt x="453" y="310" on="1"/>
        <pt x="453" y="448" on="0"/>
        <pt x="361" y="596" on="0"/>
      </contour>
    </TTGlyph>
    <TTGlyph name="Ohungarumlaut" xMin="52" yMin="-15" xMax="509" yMax="915">
      <contour>
        <pt x="144" y="719" on="1"/>
        <pt x="159" y="739" on="0"/>
        <pt x="189" y="790" on="0"/>
        <pt x="218" y="843" on="0"/>
        <pt x="244" y="894" on="0"/>
        <pt x="253" y="915" on="1"/>
        <pt x="303" y="890" on="1"/>
        <pt x="280" y="850" on="0"/>
        <pt x="201" y="743" on="0"/>
        <pt x="166" y="703" on="1"/>
      </contour>
      <contour>
        <pt x="349" y="718" on="1"/>
        <pt x="378" y="758" on="0"/>
        <pt x="439" y="870" on="0"/>
        <pt x="457" y="913" on="1"/>
        <pt x="509" y="890" on="1"/>
        <pt x="485" y="850" on="0"/>
        <pt x="407" y="743" on="0"/>
        <pt x="371" y="703" on="1"/>
      </contour>
      <contour>
        <pt x="268" y="-15" on="1"/>
        <pt x="167" y="-15" on="0"/>
        <pt x="52" y="151" on="0"/>
        <pt x="52" y="301" on="1"/>
        <pt x="52" y="461" on="0"/>
        <pt x="178" y="635" on="0"/>
        <pt x="283" y="635" on="1"/>
        <pt x="384" y="635" on="0"/>
        <pt x="497" y="470" on="0"/>
        <pt x="498" y="319" on="1"/>
        <pt x="498" y="315" on="1"/>
        <pt x="498" y="158" on="0"/>
        <pt x="372" y="-15" on="0"/>
      </contour>
      <contour>
        <pt x="274" y="596" on="1"/>
        <pt x="190" y="596" on="0"/>
        <pt x="97" y="447" on="0"/>
        <pt x="97" y="310" on="1"/>
        <pt x="97" y="172" on="0"/>
        <pt x="189" y="24" on="0"/>
        <pt x="276" y="24" on="1"/>
        <pt x="360" y="24" on="0"/>
        <pt x="453" y="173" on="0"/>
        <pt x="453" y="310" on="1"/>
        <pt x="453" y="448" on="0"/>
        <pt x="361" y="596" on="0"/>
      </contour>
    </TTGlyph>
    <TTGlyph name="Omacron" xMin="52" yMin="-15" xMax="498" yMax="800">
      <contour>
        <pt x="436" y="800" on="1"/>
        <pt x="436" y="761" on="1"/>
        <pt x="118" y="761" on="1"/>
        <pt x="118" y="800" on="1"/>
      </contour>
      <contour>
        <pt x="268" y="-15" on="1"/>
        <pt x="167" y="-15" on="0"/>
        <pt x="52" y="151" on="0"/>
        <pt x="52" y="301" on="1"/>
        <pt x="52" y="461" on="0"/>
        <pt x="178" y="635" on="0"/>
        <pt x="283" y="635" on="1"/>
        <pt x="384" y="635" on="0"/>
        <pt x="497" y="470" on="0"/>
        <pt x="498" y="319" on="1"/>
        <pt x="498" y="315" on="1"/>
        <pt x="498" y="158" on="0"/>
        <pt x="372" y="-15" on="0"/>
      </contour>
      <contour>
        <pt x="274" y="596" on="1"/>
        <pt x="190" y="596" on="0"/>
        <pt x="97" y="447" on="0"/>
        <pt x="97" y="310" on="1"/>
        <pt x="97" y="172" on="0"/>
        <pt x="189" y="24" on="0"/>
        <pt x="276" y="24" on="1"/>
        <pt x="360" y="24" on="0"/>
        <pt x="453" y="173" on="0"/>
        <pt x="453" y="310" on="1"/>
        <pt x="453" y="448" on="0"/>
        <pt x="361" y="596" on="0"/>
      </contour>
    </TTGlyph>
    <TTGlyph name="Omega" xMin="47" yMin="0" xMax="504" yMax="633">
      <contour>
        <pt x="218" y="4" on="1"/>
        <pt x="216" y="0" on="1"/>
        <pt x="47" y="0" on="1"/>
        <pt x="47" y="37" on="1"/>
        <pt x="166" y="37" on="1"/>
        <pt x="121" y="135" on="0"/>
        <pt x="78" y="308" on="0"/>
        <pt x="78" y="379" on="1"/>
        <pt x="78" y="494" on="0"/>
        <pt x="182" y="633" on="0"/>
        <pt x="278" y="633" on="1"/>
        <pt x="373" y="633" on="0"/>
        <pt x="473" y="495" on="0"/>
        <pt x="473" y="380" on="1"/>
        <pt x="473" y="309" on="0"/>
        <pt x="429" y="136" on="0"/>
        <pt x="384" y="37" on="1"/>
        <pt x="504" y="37" on="1"/>
        <pt x="504" y="0" on="1"/>
        <pt x="334" y="0" on="1"/>
        <pt x="333" y="4" on="1"/>
        <pt x="383" y="114" on="0"/>
        <pt x="429" y="303" on="0"/>
        <pt x="429" y="376" on="1"/>
        <pt x="429" y="476" on="0"/>
        <pt x="350" y="591" on="0"/>
        <pt x="275" y="591" on="1"/>
        <pt x="200" y="591" on="0"/>
        <pt x="120" y="476" on="0"/>
        <pt x="120" y="377" on="1"/>
        <pt x="120" y="304" on="0"/>
        <pt x="168" y="115" on="0"/>
      </contour>
    </TTGlyph>
    <TTGlyph name="Oslash" xMin="52" yMin="-27" xMax="498" yMax="647">
      <contour>
        <pt x="97" y="310" on="1"/>
        <pt x="97" y="244" on="0"/>
        <pt x="118" y="141" on="0"/>
        <pt x="139" y="104" on="1"/>
        <pt x="389" y="546" on="1"/>
        <pt x="367" y="571" on="0"/>
        <pt x="310" y="596" on="0"/>
        <pt x="274" y="596" on="1"/>
        <pt x="190" y="596" on="0"/>
        <pt x="97" y="447" on="0"/>
      </contour>
      <contour>
        <pt x="276" y="24" on="1"/>
        <pt x="360" y="24" on="0"/>
        <pt x="453" y="173" on="0"/>
        <pt x="453" y="310" on="1"/>
        <pt x="453" y="376" on="0"/>
        <pt x="432" y="479" on="0"/>
        <pt x="411" y="515" on="1"/>
        <pt x="160" y="74" on="1"/>
        <pt x="182" y="49" on="0"/>
        <pt x="240" y="24" on="0"/>
      </contour>
      <contour>
        <pt x="268" y="-15" on="1"/>
        <pt x="229" y="-15" on="0"/>
        <pt x="164" y="10" on="0"/>
        <pt x="138" y="34" on="1"/>
        <pt x="104" y="-27" on="1"/>
        <pt x="73" y="-10" on="1"/>
        <pt x="114" y="62" on="1"/>
        <pt x="84" y="102" on="0"/>
        <pt x="52" y="223" on="0"/>
        <pt x="52" y="301" on="1"/>
        <pt x="52" y="461" on="0"/>
        <pt x="178" y="635" on="0"/>
        <pt x="283" y="635" on="1"/>
        <pt x="322" y="635" on="0"/>
        <pt x="388" y="610" on="0"/>
        <pt x="413" y="585" on="1"/>
        <pt x="448" y="647" on="1"/>
        <pt x="479" y="630" on="1"/>
        <pt x="437" y="558" on="1"/>
        <pt x="466" y="518" on="0"/>
        <pt x="497" y="397" on="0"/>
        <pt x="498" y="319" on="1"/>
        <pt x="498" y="315" on="1"/>
        <pt x="498" y="158" on="0"/>
        <pt x="372" y="-15" on="0"/>
      </contour>
    </TTGlyph>
    <TTGlyph name="Oslashacute" xMin="52" yMin="-27" xMax="498" yMax="903">
      <contour>
        <pt x="187" y="724" on="1"/>
        <pt x="208" y="740" on="0"/>
        <pt x="258" y="785" on="0"/>
        <pt x="306" y="833" on="0"/>
        <pt x="349" y="882" on="0"/>
        <pt x="365" y="903" on="1"/>
        <pt x="408" y="866" on="1"/>
        <pt x="389" y="847" on="0"/>
        <pt x="338" y="802" on="0"/>
        <pt x="282" y="759" on="0"/>
        <pt x="227" y="718" on="0"/>
        <pt x="203" y="703" on="1"/>
      </contour>
      <contour>
        <pt x="97" y="310" on="1"/>
        <pt x="97" y="244" on="0"/>
        <pt x="118" y="141" on="0"/>
        <pt x="139" y="104" on="1"/>
        <pt x="389" y="546" on="1"/>
        <pt x="367" y="571" on="0"/>
        <pt x="310" y="596" on="0"/>
        <pt x="274" y="596" on="1"/>
        <pt x="190" y="596" on="0"/>
        <pt x="97" y="447" on="0"/>
      </contour>
      <contour>
        <pt x="276" y="24" on="1"/>
        <pt x="360" y="24" on="0"/>
        <pt x="453" y="173" on="0"/>
        <pt x="453" y="310" on="1"/>
        <pt x="453" y="376" on="0"/>
        <pt x="432" y="479" on="0"/>
        <pt x="411" y="515" on="1"/>
        <pt x="160" y="74" on="1"/>
        <pt x="182" y="49" on="0"/>
        <pt x="240" y="24" on="0"/>
      </contour>
      <contour>
        <pt x="268" y="-15" on="1"/>
        <pt x="229" y="-15" on="0"/>
        <pt x="164" y="10" on="0"/>
        <pt x="138" y="34" on="1"/>
        <pt x="104" y="-27" on="1"/>
        <pt x="73" y="-10" on="1"/>
        <pt x="114" y="62" on="1"/>
        <pt x="84" y="102" on="0"/>
        <pt x="52" y="223" on="0"/>
        <pt x="52" y="301" on="1"/>
        <pt x="52" y="461" on="0"/>
        <pt x="178" y="635" on="0"/>
        <pt x="283" y="635" on="1"/>
        <pt x="322" y="635" on="0"/>
        <pt x="388" y="610" on="0"/>
        <pt x="413" y="585" on="1"/>
        <pt x="448" y="647" on="1"/>
        <pt x="479" y="630" on="1"/>
        <pt x="437" y="558" on="1"/>
        <pt x="466" y="518" on="0"/>
        <pt x="497" y="397" on="0"/>
        <pt x="498" y="319" on="1"/>
        <pt x="498" y="315" on="1"/>
        <pt x="498" y="158" on="0"/>
        <pt x="372" y="-15" on="0"/>
      </contour>
    </TTGlyph>
    <TTGlyph name="Otilde" xMin="52" yMin="-15" xMax="498" yMax="869">
      <contour>
        <pt x="354" y="712" on="1"/>
        <pt x="330" y="712" on="0"/>
        <pt x="292" y="749" on="0"/>
        <pt x="258" y="793" on="0"/>
        <pt x="227" y="830" on="0"/>
        <pt x="209" y="830" on="1"/>
        <pt x="184" y="830" on="0"/>
        <pt x="140" y="769" on="0"/>
        <pt x="120" y="721" on="1"/>
        <pt x="91" y="733" on="1"/>
        <pt x="117" y="798" on="0"/>
        <pt x="179" y="869" on="0"/>
        <pt x="213" y="869" on="1"/>
        <pt x="237" y="869" on="0"/>
        <pt x="275" y="832" on="0"/>
        <pt x="309" y="788" on="0"/>
        <pt x="340" y="751" on="0"/>
        <pt x="358" y="751" on="1"/>
        <pt x="383" y="751" on="0"/>
        <pt x="426" y="812" on="0"/>
        <pt x="446" y="860" on="1"/>
        <pt x="476" y="848" on="1"/>
        <pt x="450" y="783" on="0"/>
        <pt x="388" y="712" on="0"/>
      </contour>
      <contour>
        <pt x="268" y="-15" on="1"/>
        <pt x="167" y="-15" on="0"/>
        <pt x="52" y="151" on="0"/>
        <pt x="52" y="301" on="1"/>
        <pt x="52" y="461" on="0"/>
        <pt x="178" y="635" on="0"/>
        <pt x="283" y="635" on="1"/>
        <pt x="384" y="635" on="0"/>
        <pt x="497" y="470" on="0"/>
        <pt x="498" y="319" on="1"/>
        <pt x="498" y="315" on="1"/>
        <pt x="498" y="158" on="0"/>
        <pt x="372" y="-15" on="0"/>
      </contour>
      <contour>
        <pt x="274" y="596" on="1"/>
        <pt x="190" y="596" on="0"/>
        <pt x="97" y="447" on="0"/>
        <pt x="97" y="310" on="1"/>
        <pt x="97" y="172" on="0"/>
        <pt x="189" y="24" on="0"/>
        <pt x="276" y="24" on="1"/>
        <pt x="360" y="24" on="0"/>
        <pt x="453" y="173" on="0"/>
        <pt x="453" y="310" on="1"/>
        <pt x="453" y="448" on="0"/>
        <pt x="361" y="596" on="0"/>
      </contour>
    </TTGlyph>
    <TTGlyph name="P" xMin="112" yMin="0" xMax="491" yMax="629">
      <contour>
        <pt x="157" y="0" on="1"/>
        <pt x="112" y="0" on="1"/>
        <pt x="112" y="618" on="1"/>
        <pt x="145" y="624" on="0"/>
        <pt x="206" y="629" on="0"/>
        <pt x="234" y="629" on="1"/>
        <pt x="359" y="629" on="0"/>
        <pt x="491" y="524" on="0"/>
        <pt x="491" y="434" on="1"/>
        <pt x="491" y="381" on="0"/>
        <pt x="444" y="302" on="0"/>
        <pt x="358" y="250" on="0"/>
        <pt x="233" y="222" on="0"/>
        <pt x="157" y="220" on="1"/>
      </contour>
      <contour>
        <pt x="196" y="262" on="1"/>
        <pt x="315" y="262" on="0"/>
        <pt x="446" y="340" on="0"/>
        <pt x="446" y="427" on="1"/>
        <pt x="446" y="501" on="0"/>
        <pt x="345" y="589" on="0"/>
        <pt x="241" y="589" on="1"/>
        <pt x="222" y="589" on="0"/>
        <pt x="179" y="586" on="0"/>
        <pt x="157" y="583" on="1"/>
        <pt x="157" y="263" on="1"/>
        <pt x="167" y="263" on="0"/>
        <pt x="186" y="262" on="0"/>
      </contour>
    </TTGlyph>
    <TTGlyph name="Q" xMin="52" yMin="-123" xMax="498" yMax="635">
      <contour>
        <pt x="451" y="-123" on="1"/>
        <pt x="236" y="-40" on="1"/>
        <pt x="246" y="-14" on="1"/>
        <pt x="155" y="-5" on="0"/>
        <pt x="52" y="159" on="0"/>
        <pt x="52" y="301" on="1"/>
        <pt x="52" y="461" on="0"/>
        <pt x="178" y="635" on="0"/>
        <pt x="283" y="635" on="1"/>
        <pt x="384" y="635" on="0"/>
        <pt x="497" y="470" on="0"/>
        <pt x="498" y="319" on="1"/>
        <pt x="498" y="315" on="1"/>
        <pt x="498" y="167" on="0"/>
        <pt x="386" y="-5" on="0"/>
        <pt x="291" y="-14" on="1"/>
        <pt x="290" y="-16" on="1"/>
        <pt x="466" y="-84" on="1"/>
      </contour>
      <contour>
        <pt x="274" y="596" on="1"/>
        <pt x="190" y="596" on="0"/>
        <pt x="97" y="447" on="0"/>
        <pt x="97" y="310" on="1"/>
        <pt x="97" y="172" on="0"/>
        <pt x="189" y="24" on="0"/>
        <pt x="276" y="24" on="1"/>
        <pt x="360" y="24" on="0"/>
        <pt x="453" y="173" on="0"/>
        <pt x="453" y="310" on="1"/>
        <pt x="453" y="448" on="0"/>
        <pt x="361" y="596" on="0"/>
      </contour>
    </TTGlyph>
    <TTGlyph name="R" xMin="106" yMin="-10" xMax="502" yMax="630">
      <contour>
        <pt x="455" y="-10" on="1"/>
        <pt x="313" y="247" on="1"/>
        <pt x="151" y="243" on="1"/>
        <pt x="151" y="0" on="1"/>
        <pt x="106" y="0" on="1"/>
        <pt x="106" y="618" on="1"/>
        <pt x="143" y="625" on="0"/>
        <pt x="208" y="630" on="0"/>
        <pt x="236" y="630" on="1"/>
        <pt x="357" y="630" on="0"/>
        <pt x="461" y="531" on="0"/>
        <pt x="461" y="456" on="1"/>
        <pt x="461" y="393" on="0"/>
        <pt x="397" y="299" on="0"/>
        <pt x="351" y="266" on="1"/>
        <pt x="502" y="0" on="1"/>
      </contour>
      <contour>
        <pt x="151" y="583" on="1"/>
        <pt x="151" y="279" on="1"/>
        <pt x="320" y="282" on="1"/>
        <pt x="362" y="310" on="0"/>
        <pt x="416" y="391" on="0"/>
        <pt x="416" y="448" on="1"/>
        <pt x="416" y="510" on="0"/>
        <pt x="331" y="590" on="0"/>
        <pt x="236" y="590" on="1"/>
        <pt x="217" y="590" on="0"/>
        <pt x="175" y="587" on="0"/>
      </contour>
    </TTGlyph>
    <TTGlyph name="R_p" xMin="52" yMin="-169" xMax="519" yMax="627">
      <contour>
        <pt x="235" y="-3" on="1"/>
        <pt x="156" y="248" on="1"/>
        <pt x="95" y="244" on="1"/>
        <pt x="95" y="0" on="1"/>
        <pt x="52" y="0" on="1"/>
        <pt x="52" y="618" on="1"/>
        <pt x="71" y="622" on="0"/>
        <pt x="105" y="627" on="0"/>
        <pt x="120" y="627" on="1"/>
        <pt x="192" y="627" on="0"/>
        <pt x="254" y="534" on="0"/>
        <pt x="254" y="456" on="1"/>
        <pt x="254" y="389" on="0"/>
        <pt x="220" y="295" on="0"/>
        <pt x="195" y="267" on="1"/>
        <pt x="277" y="4" on="1"/>
      </contour>
      <contour>
        <pt x="95" y="585" on="1"/>
        <pt x="95" y="278" on="1"/>
        <pt x="169" y="281" on="1"/>
        <pt x="188" y="309" on="0"/>
        <pt x="211" y="393" on="0"/>
        <pt x="211" y="450" on="1"/>
        <pt x="211" y="516" on="0"/>
        <pt x="170" y="588" on="0"/>
        <pt x="123" y="588" on="1"/>
        <pt x="116" y="588" on="0"/>
        <pt x="102" y="586" on="0"/>
      </contour>
      <contour>
        <pt x="403" y="26" on="1"/>
        <pt x="443" y="26" on="0"/>
        <pt x="478" y="131" on="0"/>
        <pt x="478" y="244" on="1"/>
        <pt x="478" y="345" on="0"/>
        <pt x="449" y="453" on="0"/>
        <pt x="417" y="453" on="1"/>
        <pt x="401" y="453" on="0"/>
        <pt x="367" y="427" on="0"/>
        <pt x="354" y="409" on="1"/>
        <pt x="355" y="337" on="0"/>
        <pt x="357" y="163" on="0"/>
        <pt x="357" y="35" on="1"/>
        <pt x="369" y="29" on="0"/>
        <pt x="391" y="26" on="0"/>
      </contour>
      <contour>
        <pt x="357" y="-164" on="1"/>
        <pt x="315" y="-169" on="1"/>
        <pt x="315" y="0" on="1"/>
        <pt x="315" y="154" on="0"/>
        <pt x="313" y="397" on="0"/>
        <pt x="311" y="477" on="1"/>
        <pt x="349" y="480" on="1"/>
        <pt x="352" y="443" on="1"/>
        <pt x="366" y="461" on="0"/>
        <pt x="408" y="489" on="0"/>
        <pt x="433" y="489" on="1"/>
        <pt x="478" y="489" on="0"/>
        <pt x="519" y="370" on="0"/>
        <pt x="519" y="265" on="1"/>
        <pt x="519" y="119" on="0"/>
        <pt x="451" y="-11" on="0"/>
        <pt x="389" y="-11" on="1"/>
        <pt x="381" y="-11" on="0"/>
        <pt x="365" y="-8" on="0"/>
        <pt x="357" y="-6" on="1"/>
      </contour>
    </TTGlyph>
    <TTGlyph name="Racute" xMin="106" yMin="-10" xMax="502" yMax="906">
      <contour>
        <pt x="180" y="727" on="1"/>
        <pt x="201" y="743" on="0"/>
        <pt x="251" y="788" on="0"/>
        <pt x="299" y="836" on="0"/>
        <pt x="342" y="885" on="0"/>
        <pt x="358" y="906" on="1"/>
        <pt x="401" y="869" on="1"/>
        <pt x="382" y="850" on="0"/>
        <pt x="331" y="805" on="0"/>
        <pt x="275" y="762" on="0"/>
        <pt x="220" y="721" on="0"/>
        <pt x="196" y="706" on="1"/>
      </contour>
      <contour>
        <pt x="455" y="-10" on="1"/>
        <pt x="313" y="247" on="1"/>
        <pt x="151" y="243" on="1"/>
        <pt x="151" y="0" on="1"/>
        <pt x="106" y="0" on="1"/>
        <pt x="106" y="618" on="1"/>
        <pt x="143" y="625" on="0"/>
        <pt x="208" y="630" on="0"/>
        <pt x="236" y="630" on="1"/>
        <pt x="357" y="630" on="0"/>
        <pt x="461" y="531" on="0"/>
        <pt x="461" y="456" on="1"/>
        <pt x="461" y="393" on="0"/>
        <pt x="397" y="299" on="0"/>
        <pt x="351" y="266" on="1"/>
        <pt x="502" y="0" on="1"/>
      </contour>
      <contour>
        <pt x="151" y="583" on="1"/>
        <pt x="151" y="279" on="1"/>
        <pt x="320" y="282" on="1"/>
        <pt x="362" y="310" on="0"/>
        <pt x="416" y="391" on="0"/>
        <pt x="416" y="448" on="1"/>
        <pt x="416" y="510" on="0"/>
        <pt x="331" y="590" on="0"/>
        <pt x="236" y="590" on="1"/>
        <pt x="217" y="590" on="0"/>
        <pt x="175" y="587" on="0"/>
      </contour>
    </TTGlyph>
    <TTGlyph name="Rcaron" xMin="106" yMin="-10" xMax="502" yMax="880">
      <contour>
        <pt x="273" y="705" on="1"/>
        <pt x="272" y="705" on="1"/>
        <pt x="106" y="852" on="1"/>
        <pt x="135" y="880" on="1"/>
        <pt x="275" y="753" on="1"/>
        <pt x="417" y="880" on="1"/>
        <pt x="442" y="856" on="1"/>
      </contour>
      <contour>
        <pt x="455" y="-10" on="1"/>
        <pt x="313" y="247" on="1"/>
        <pt x="151" y="243" on="1"/>
        <pt x="151" y="0" on="1"/>
        <pt x="106" y="0" on="1"/>
        <pt x="106" y="618" on="1"/>
        <pt x="143" y="625" on="0"/>
        <pt x="208" y="630" on="0"/>
        <pt x="236" y="630" on="1"/>
        <pt x="357" y="630" on="0"/>
        <pt x="461" y="531" on="0"/>
        <pt x="461" y="456" on="1"/>
        <pt x="461" y="393" on="0"/>
        <pt x="397" y="299" on="0"/>
        <pt x="351" y="266" on="1"/>
        <pt x="502" y="0" on="1"/>
      </contour>
      <contour>
        <pt x="151" y="583" on="1"/>
        <pt x="151" y="279" on="1"/>
        <pt x="320" y="282" on="1"/>
        <pt x="362" y="310" on="0"/>
        <pt x="416" y="391" on="0"/>
        <pt x="416" y="448" on="1"/>
        <pt x="416" y="510" on="0"/>
        <pt x="331" y="590" on="0"/>
        <pt x="236" y="590" on="1"/>
        <pt x="217" y="590" on="0"/>
        <pt x="175" y="587" on="0"/>
      </contour>
    </TTGlyph>
    <TTGlyph name="Rcommaaccent" xMin="106" yMin="-278" xMax="502" yMax="630">
      <contour>
        <pt x="455" y="-10" on="1"/>
        <pt x="313" y="247" on="1"/>
        <pt x="151" y="243" on="1"/>
        <pt x="151" y="0" on="1"/>
        <pt x="106" y="0" on="1"/>
        <pt x="106" y="618" on="1"/>
        <pt x="143" y="625" on="0"/>
        <pt x="208" y="630" on="0"/>
        <pt x="236" y="630" on="1"/>
        <pt x="357" y="630" on="0"/>
        <pt x="461" y="531" on="0"/>
        <pt x="461" y="456" on="1"/>
        <pt x="461" y="393" on="0"/>
        <pt x="397" y="299" on="0"/>
        <pt x="351" y="266" on="1"/>
        <pt x="502" y="0" on="1"/>
      </contour>
      <contour>
        <pt x="151" y="583" on="1"/>
        <pt x="151" y="279" on="1"/>
        <pt x="320" y="282" on="1"/>
        <pt x="362" y="310" on="0"/>
        <pt x="416" y="391" on="0"/>
        <pt x="416" y="448" on="1"/>
        <pt x="416" y="510" on="0"/>
        <pt x="331" y="590" on="0"/>
        <pt x="236" y="590" on="1"/>
        <pt x="217" y="590" on="0"/>
        <pt x="175" y="587" on="0"/>
      </contour>
      <contour>
        <pt x="260" y="-271" on="1"/>
        <pt x="276" y="-243" on="0"/>
        <pt x="289" y="-193" on="0"/>
        <pt x="289" y="-171" on="1"/>
        <pt x="289" y="-148" on="0"/>
        <pt x="277" y="-104" on="0"/>
        <pt x="268" y="-83" on="1"/>
        <pt x="271" y="-83" on="0"/>
        <pt x="288" y="-82" on="0"/>
        <pt x="307" y="-81" on="0"/>
        <pt x="325" y="-80" on="0"/>
        <pt x="328" y="-80" on="1"/>
        <pt x="331" y="-92" on="0"/>
        <pt x="335" y="-118" on="0"/>
        <pt x="335" y="-131" on="1"/>
        <pt x="335" y="-165" on="0"/>
        <pt x="309" y="-241" on="0"/>
        <pt x="281" y="-278" on="1"/>
      </contour>
    </TTGlyph>
    <TTGlyph name="S" xMin="91" yMin="-8" xMax="471" yMax="626">
      <contour>
        <pt x="92" y="40" on="1"/>
        <pt x="117" y="38" on="0"/>
        <pt x="162" y="35" on="0"/>
        <pt x="183" y="35" on="1"/>
        <pt x="315" y="35" on="0"/>
        <pt x="427" y="110" on="0"/>
        <pt x="427" y="155" on="1"/>
        <pt x="427" y="203" on="0"/>
        <pt x="323" y="274" on="0"/>
        <pt x="198" y="341" on="0"/>
        <pt x="94" y="418" on="0"/>
        <pt x="94" y="472" on="1"/>
        <pt x="94" y="500" on="0"/>
        <pt x="124" y="556" on="0"/>
        <pt x="192" y="599" on="0"/>
        <pt x="300" y="626" on="0"/>
        <pt x="378" y="626" on="1"/>
        <pt x="391" y="626" on="0"/>
        <pt x="420" y="625" on="0"/>
        <pt x="435" y="624" on="1"/>
        <pt x="438" y="580" on="1"/>
        <pt x="418" y="581" on="0"/>
        <pt x="380" y="583" on="0"/>
        <pt x="364" y="583" on="1"/>
        <pt x="233" y="583" on="0"/>
        <pt x="138" y="521" on="0"/>
        <pt x="138" y="481" on="1"/>
        <pt x="138" y="435" on="0"/>
        <pt x="242" y="366" on="0"/>
        <pt x="367" y="298" on="0"/>
        <pt x="471" y="219" on="0"/>
        <pt x="471" y="163" on="1"/>
        <pt x="471" y="132" on="0"/>
        <pt x="436" y="71" on="0"/>
        <pt x="361" y="22" on="0"/>
        <pt x="242" y="-8" on="0"/>
        <pt x="160" y="-8" on="1"/>
        <pt x="144" y="-8" on="0"/>
        <pt x="109" y="-6" on="0"/>
        <pt x="91" y="-5" on="1"/>
      </contour>
    </TTGlyph>
    <TTGlyph name="Sacute" xMin="91" yMin="-8" xMax="471" yMax="898">
      <contour>
        <pt x="210" y="719" on="1"/>
        <pt x="231" y="735" on="0"/>
        <pt x="281" y="780" on="0"/>
        <pt x="329" y="828" on="0"/>
        <pt x="372" y="877" on="0"/>
        <pt x="388" y="898" on="1"/>
        <pt x="431" y="861" on="1"/>
        <pt x="412" y="842" on="0"/>
        <pt x="361" y="797" on="0"/>
        <pt x="305" y="754" on="0"/>
        <pt x="250" y="713" on="0"/>
        <pt x="226" y="698" on="1"/>
      </contour>
      <contour>
        <pt x="92" y="40" on="1"/>
        <pt x="117" y="38" on="0"/>
        <pt x="162" y="35" on="0"/>
        <pt x="183" y="35" on="1"/>
        <pt x="315" y="35" on="0"/>
        <pt x="427" y="110" on="0"/>
        <pt x="427" y="155" on="1"/>
        <pt x="427" y="203" on="0"/>
        <pt x="323" y="274" on="0"/>
        <pt x="198" y="341" on="0"/>
        <pt x="94" y="418" on="0"/>
        <pt x="94" y="472" on="1"/>
        <pt x="94" y="500" on="0"/>
        <pt x="124" y="556" on="0"/>
        <pt x="192" y="599" on="0"/>
        <pt x="300" y="626" on="0"/>
        <pt x="378" y="626" on="1"/>
        <pt x="391" y="626" on="0"/>
        <pt x="420" y="625" on="0"/>
        <pt x="435" y="624" on="1"/>
        <pt x="438" y="580" on="1"/>
        <pt x="418" y="581" on="0"/>
        <pt x="380" y="583" on="0"/>
        <pt x="364" y="583" on="1"/>
        <pt x="233" y="583" on="0"/>
        <pt x="138" y="521" on="0"/>
        <pt x="138" y="481" on="1"/>
        <pt x="138" y="435" on="0"/>
        <pt x="242" y="366" on="0"/>
        <pt x="367" y="298" on="0"/>
        <pt x="471" y="219" on="0"/>
        <pt x="471" y="163" on="1"/>
        <pt x="471" y="132" on="0"/>
        <pt x="436" y="71" on="0"/>
        <pt x="361" y="22" on="0"/>
        <pt x="242" y="-8" on="0"/>
        <pt x="160" y="-8" on="1"/>
        <pt x="144" y="-8" on="0"/>
        <pt x="109" y="-6" on="0"/>
        <pt x="91" y="-5" on="1"/>
      </contour>
    </TTGlyph>
    <TTGlyph name="Scaron" xMin="91" yMin="-8" xMax="472" yMax="872">
      <contour>
        <pt x="303" y="697" on="1"/>
        <pt x="302" y="697" on="1"/>
        <pt x="136" y="844" on="1"/>
        <pt x="165" y="872" on="1"/>
        <pt x="305" y="745" on="1"/>
        <pt x="447" y="872" on="1"/>
        <pt x="472" y="848" on="1"/>
      </contour>
      <contour>
        <pt x="92" y="40" on="1"/>
        <pt x="117" y="38" on="0"/>
        <pt x="162" y="35" on="0"/>
        <pt x="183" y="35" on="1"/>
        <pt x="315" y="35" on="0"/>
        <pt x="427" y="110" on="0"/>
        <pt x="427" y="155" on="1"/>
        <pt x="427" y="203" on="0"/>
        <pt x="323" y="274" on="0"/>
        <pt x="198" y="341" on="0"/>
        <pt x="94" y="418" on="0"/>
        <pt x="94" y="472" on="1"/>
        <pt x="94" y="500" on="0"/>
        <pt x="124" y="556" on="0"/>
        <pt x="192" y="599" on="0"/>
        <pt x="300" y="626" on="0"/>
        <pt x="378" y="626" on="1"/>
        <pt x="391" y="626" on="0"/>
        <pt x="420" y="625" on="0"/>
        <pt x="435" y="624" on="1"/>
        <pt x="438" y="580" on="1"/>
        <pt x="418" y="581" on="0"/>
        <pt x="380" y="583" on="0"/>
        <pt x="364" y="583" on="1"/>
        <pt x="233" y="583" on="0"/>
        <pt x="138" y="521" on="0"/>
        <pt x="138" y="481" on="1"/>
        <pt x="138" y="435" on="0"/>
        <pt x="242" y="366" on="0"/>
        <pt x="367" y="298" on="0"/>
        <pt x="471" y="219" on="0"/>
        <pt x="471" y="163" on="1"/>
        <pt x="471" y="132" on="0"/>
        <pt x="436" y="71" on="0"/>
        <pt x="361" y="22" on="0"/>
        <pt x="242" y="-8" on="0"/>
        <pt x="160" y="-8" on="1"/>
        <pt x="144" y="-8" on="0"/>
        <pt x="109" y="-6" on="0"/>
        <pt x="91" y="-5" on="1"/>
      </contour>
    </TTGlyph>
    <TTGlyph name="Scedilla" xMin="91" yMin="-216" xMax="471" yMax="626">
      <contour>
        <pt x="189" y="-216" on="1"/>
        <pt x="184" y="-178" on="1"/>
        <pt x="251" y="-167" on="0"/>
        <pt x="310" y="-140" on="0"/>
        <pt x="310" y="-121" on="1"/>
        <pt x="310" y="-103" on="0"/>
        <pt x="264" y="-50" on="0"/>
        <pt x="210" y="-14" on="1"/>
        <pt x="215" y="-6" on="1"/>
        <pt x="202" y="-7" on="0"/>
        <pt x="174" y="-8" on="0"/>
        <pt x="160" y="-8" on="1"/>
        <pt x="144" y="-8" on="0"/>
        <pt x="109" y="-6" on="0"/>
        <pt x="91" y="-5" on="1"/>
        <pt x="92" y="40" on="1"/>
        <pt x="117" y="38" on="0"/>
        <pt x="162" y="35" on="0"/>
        <pt x="183" y="35" on="1"/>
        <pt x="315" y="35" on="0"/>
        <pt x="427" y="110" on="0"/>
        <pt x="427" y="155" on="1"/>
        <pt x="427" y="203" on="0"/>
        <pt x="323" y="274" on="0"/>
        <pt x="198" y="341" on="0"/>
        <pt x="94" y="418" on="0"/>
        <pt x="94" y="472" on="1"/>
        <pt x="94" y="500" on="0"/>
        <pt x="124" y="556" on="0"/>
        <pt x="192" y="599" on="0"/>
        <pt x="300" y="626" on="0"/>
        <pt x="378" y="626" on="1"/>
        <pt x="391" y="626" on="0"/>
        <pt x="420" y="625" on="0"/>
        <pt x="435" y="624" on="1"/>
        <pt x="438" y="580" on="1"/>
        <pt x="418" y="581" on="0"/>
        <pt x="380" y="583" on="0"/>
        <pt x="364" y="583" on="1"/>
        <pt x="233" y="583" on="0"/>
        <pt x="138" y="521" on="0"/>
        <pt x="138" y="481" on="1"/>
        <pt x="138" y="435" on="0"/>
        <pt x="242" y="366" on="0"/>
        <pt x="367" y="298" on="0"/>
        <pt x="471" y="219" on="0"/>
        <pt x="471" y="163" on="1"/>
        <pt x="471" y="137" on="0"/>
        <pt x="446" y="84" on="0"/>
        <pt x="393" y="39" on="0"/>
        <pt x="309" y="5" on="0"/>
        <pt x="251" y="-2" on="1"/>
        <pt x="299" y="-36" on="0"/>
        <pt x="349" y="-96" on="0"/>
        <pt x="349" y="-123" on="1"/>
        <pt x="349" y="-157" on="0"/>
        <pt x="268" y="-203" on="0"/>
      </contour>
    </TTGlyph>
    <TTGlyph name="Scommaaccent" xMin="91" yMin="-281" xMax="471" yMax="626">
      <contour>
        <pt x="92" y="40" on="1"/>
        <pt x="117" y="38" on="0"/>
        <pt x="162" y="35" on="0"/>
        <pt x="183" y="35" on="1"/>
        <pt x="315" y="35" on="0"/>
        <pt x="427" y="110" on="0"/>
        <pt x="427" y="155" on="1"/>
        <pt x="427" y="203" on="0"/>
        <pt x="323" y="274" on="0"/>
        <pt x="198" y="341" on="0"/>
        <pt x="94" y="418" on="0"/>
        <pt x="94" y="472" on="1"/>
        <pt x="94" y="500" on="0"/>
        <pt x="124" y="556" on="0"/>
        <pt x="192" y="599" on="0"/>
        <pt x="300" y="626" on="0"/>
        <pt x="378" y="626" on="1"/>
        <pt x="391" y="626" on="0"/>
        <pt x="420" y="625" on="0"/>
        <pt x="435" y="624" on="1"/>
        <pt x="438" y="580" on="1"/>
        <pt x="418" y="581" on="0"/>
        <pt x="380" y="583" on="0"/>
        <pt x="364" y="583" on="1"/>
        <pt x="233" y="583" on="0"/>
        <pt x="138" y="521" on="0"/>
        <pt x="138" y="481" on="1"/>
        <pt x="138" y="435" on="0"/>
        <pt x="242" y="366" on="0"/>
        <pt x="367" y="298" on="0"/>
        <pt x="471" y="219" on="0"/>
        <pt x="471" y="163" on="1"/>
        <pt x="471" y="132" on="0"/>
        <pt x="436" y="71" on="0"/>
        <pt x="361" y="22" on="0"/>
        <pt x="242" y="-8" on="0"/>
        <pt x="160" y="-8" on="1"/>
        <pt x="144" y="-8" on="0"/>
        <pt x="109" y="-6" on="0"/>
        <pt x="91" y="-5" on="1"/>
      </contour>
      <contour>
        <pt x="235" y="-274" on="1"/>
        <pt x="251" y="-246" on="0"/>
        <pt x="264" y="-196" on="0"/>
        <pt x="264" y="-174" on="1"/>
        <pt x="264" y="-151" on="0"/>
        <pt x="252" y="-107" on="0"/>
        <pt x="243" y="-86" on="1"/>
        <pt x="246" y="-86" on="0"/>
        <pt x="263" y="-85" on="0"/>
        <pt x="282" y="-84" on="0"/>
        <pt x="300" y="-83" on="0"/>
        <pt x="303" y="-83" on="1"/>
        <pt x="306" y="-95" on="0"/>
        <pt x="310" y="-121" on="0"/>
        <pt x="310" y="-134" on="1"/>
        <pt x="310" y="-168" on="0"/>
        <pt x="284" y="-244" on="0"/>
        <pt x="256" y="-281" on="1"/>
      </contour>
    </TTGlyph>
    <TTGlyph name="T" xMin="44" yMin="0" xMax="506" yMax="620">
      <contour>
        <pt x="298" y="580" on="1"/>
        <pt x="298" y="0" on="1"/>
        <pt x="253" y="0" on="1"/>
        <pt x="253" y="580" on="1"/>
        <pt x="44" y="580" on="1"/>
        <pt x="48" y="620" on="1"/>
        <pt x="506" y="620" on="1"/>
        <pt x="506" y="580" on="1"/>
      </contour>
    </TTGlyph>
    <TTGlyph name="Tcaron" xMin="44" yMin="0" xMax="506" yMax="870">
      <contour>
        <pt x="279" y="695" on="1"/>
        <pt x="278" y="695" on="1"/>
        <pt x="112" y="842" on="1"/>
        <pt x="141" y="870" on="1"/>
        <pt x="281" y="743" on="1"/>
        <pt x="423" y="870" on="1"/>
        <pt x="448" y="846" on="1"/>
      </contour>
      <contour>
        <pt x="298" y="580" on="1"/>
        <pt x="298" y="0" on="1"/>
        <pt x="253" y="0" on="1"/>
        <pt x="253" y="580" on="1"/>
        <pt x="44" y="580" on="1"/>
        <pt x="48" y="620" on="1"/>
        <pt x="506" y="620" on="1"/>
        <pt x="506" y="580" on="1"/>
      </contour>
    </TTGlyph>
    <TTGlyph name="Tcommaaccent" xMin="44" yMin="-268" xMax="506" yMax="620">
      <contour>
        <pt x="298" y="580" on="1"/>
        <pt x="298" y="0" on="1"/>
        <pt x="253" y="0" on="1"/>
        <pt x="253" y="580" on="1"/>
        <pt x="44" y="580" on="1"/>
        <pt x="48" y="620" on="1"/>
        <pt x="506" y="620" on="1"/>
        <pt x="506" y="580" on="1"/>
      </contour>
      <contour>
        <pt x="231" y="-261" on="1"/>
        <pt x="247" y="-233" on="0"/>
        <pt x="260" y="-183" on="0"/>
        <pt x="260" y="-161" on="1"/>
        <pt x="260" y="-138" on="0"/>
        <pt x="248" y="-94" on="0"/>
        <pt x="239" y="-73" on="1"/>
        <pt x="242" y="-73" on="0"/>
        <pt x="259" y="-72" on="0"/>
        <pt x="278" y="-71" on="0"/>
        <pt x="296" y="-70" on="0"/>
        <pt x="299" y="-70" on="1"/>
        <pt x="302" y="-82" on="0"/>
        <pt x="306" y="-108" on="0"/>
        <pt x="306" y="-121" on="1"/>
        <pt x="306" y="-155" on="0"/>
        <pt x="280" y="-231" on="0"/>
        <pt x="252" y="-268" on="1"/>
      </contour>
    </TTGlyph>
    <TTGlyph name="Thorn" xMin="113" yMin="0" xMax="495" yMax="620">
      <contour>
        <pt x="158" y="0" on="1"/>
        <pt x="113" y="0" on="1"/>
        <pt x="113" y="620" on="1"/>
        <pt x="158" y="620" on="1"/>
        <pt x="158" y="513" on="1"/>
        <pt x="179" y="515" on="0"/>
        <pt x="218" y="518" on="0"/>
        <pt x="236" y="518" on="1"/>
        <pt x="361" y="518" on="0"/>
        <pt x="495" y="415" on="0"/>
        <pt x="495" y="325" on="1"/>
        <pt x="495" y="272" on="0"/>
        <pt x="447" y="194" on="0"/>
        <pt x="360" y="142" on="0"/>
        <pt x="235" y="115" on="0"/>
        <pt x="158" y="113" on="1"/>
      </contour>
      <contour>
        <pt x="194" y="156" on="1"/>
        <pt x="315" y="156" on="0"/>
        <pt x="450" y="232" on="0"/>
        <pt x="450" y="318" on="1"/>
        <pt x="450" y="391" on="0"/>
        <pt x="343" y="478" on="0"/>
        <pt x="240" y="478" on="1"/>
        <pt x="221" y="478" on="0"/>
        <pt x="180" y="475" on="0"/>
        <pt x="158" y="472" on="1"/>
        <pt x="158" y="156" on="1"/>
        <pt x="168" y="156" on="0"/>
        <pt x="186" y="156" on="0"/>
      </contour>
    </TTGlyph>
    <TTGlyph name="U" xMin="87" yMin="-15" xMax="462" yMax="620">
      <contour>
        <pt x="270" y="-15" on="1"/>
        <pt x="185" y="-15" on="0"/>
        <pt x="87" y="91" on="0"/>
        <pt x="87" y="192" on="1"/>
        <pt x="87" y="620" on="1"/>
        <pt x="132" y="620" on="1"/>
        <pt x="132" y="201" on="1"/>
        <pt x="132" y="111" on="0"/>
        <pt x="210" y="25" on="0"/>
        <pt x="277" y="25" on="1"/>
        <pt x="347" y="25" on="0"/>
        <pt x="417" y="103" on="0"/>
        <pt x="417" y="187" on="1"/>
        <pt x="417" y="620" on="1"/>
        <pt x="462" y="620" on="1"/>
        <pt x="462" y="191" on="1"/>
        <pt x="462" y="91" on="0"/>
        <pt x="360" y="-15" on="0"/>
      </contour>
    </TTGlyph>
    <TTGlyph name="Uacute" xMin="87" yMin="-15" xMax="462" yMax="896">
      <contour>
        <pt x="187" y="717" on="1"/>
        <pt x="208" y="733" on="0"/>
        <pt x="258" y="778" on="0"/>
        <pt x="306" y="826" on="0"/>
        <pt x="349" y="875" on="0"/>
        <pt x="365" y="896" on="1"/>
        <pt x="408" y="859" on="1"/>
        <pt x="389" y="840" on="0"/>
        <pt x="338" y="795" on="0"/>
        <pt x="282" y="752" on="0"/>
        <pt x="227" y="711" on="0"/>
        <pt x="203" y="696" on="1"/>
      </contour>
      <contour>
        <pt x="270" y="-15" on="1"/>
        <pt x="185" y="-15" on="0"/>
        <pt x="87" y="91" on="0"/>
        <pt x="87" y="192" on="1"/>
        <pt x="87" y="620" on="1"/>
        <pt x="132" y="620" on="1"/>
        <pt x="132" y="201" on="1"/>
        <pt x="132" y="111" on="0"/>
        <pt x="210" y="25" on="0"/>
        <pt x="277" y="25" on="1"/>
        <pt x="347" y="25" on="0"/>
        <pt x="417" y="103" on="0"/>
        <pt x="417" y="187" on="1"/>
        <pt x="417" y="620" on="1"/>
        <pt x="462" y="620" on="1"/>
        <pt x="462" y="191" on="1"/>
        <pt x="462" y="91" on="0"/>
        <pt x="360" y="-15" on="0"/>
      </contour>
    </TTGlyph>
    <TTGlyph name="Ubreve" xMin="87" yMin="-15" xMax="462" yMax="867">
      <contour>
        <pt x="270" y="705" on="1"/>
        <pt x="222" y="705" on="0"/>
        <pt x="138" y="775" on="0"/>
        <pt x="96" y="847" on="1"/>
        <pt x="129" y="867" on="1"/>
        <pt x="169" y="800" on="0"/>
        <pt x="234" y="743" on="0"/>
        <pt x="273" y="743" on="1"/>
        <pt x="316" y="743" on="0"/>
        <pt x="385" y="805" on="0"/>
        <pt x="425" y="863" on="1"/>
        <pt x="454" y="848" on="1"/>
        <pt x="412" y="781" on="0"/>
        <pt x="320" y="705" on="0"/>
      </contour>
      <contour>
        <pt x="270" y="-15" on="1"/>
        <pt x="185" y="-15" on="0"/>
        <pt x="87" y="91" on="0"/>
        <pt x="87" y="192" on="1"/>
        <pt x="87" y="620" on="1"/>
        <pt x="132" y="620" on="1"/>
        <pt x="132" y="201" on="1"/>
        <pt x="132" y="111" on="0"/>
        <pt x="210" y="25" on="0"/>
        <pt x="277" y="25" on="1"/>
        <pt x="347" y="25" on="0"/>
        <pt x="417" y="103" on="0"/>
        <pt x="417" y="187" on="1"/>
        <pt x="417" y="620" on="1"/>
        <pt x="462" y="620" on="1"/>
        <pt x="462" y="191" on="1"/>
        <pt x="462" y="91" on="0"/>
        <pt x="360" y="-15" on="0"/>
      </contour>
    </TTGlyph>
    <TTGlyph name="Ucircumflex" xMin="87" yMin="-15" xMax="462" yMax="876">
      <contour>
        <pt x="413" y="700" on="1"/>
        <pt x="273" y="827" on="1"/>
        <pt x="131" y="701" on="1"/>
        <pt x="106" y="724" on="1"/>
        <pt x="275" y="876" on="1"/>
        <pt x="276" y="876" on="1"/>
        <pt x="442" y="728" on="1"/>
      </contour>
      <contour>
        <pt x="270" y="-15" on="1"/>
        <pt x="185" y="-15" on="0"/>
        <pt x="87" y="91" on="0"/>
        <pt x="87" y="192" on="1"/>
        <pt x="87" y="620" on="1"/>
        <pt x="132" y="620" on="1"/>
        <pt x="132" y="201" on="1"/>
        <pt x="132" y="111" on="0"/>
        <pt x="210" y="25" on="0"/>
        <pt x="277" y="25" on="1"/>
        <pt x="347" y="25" on="0"/>
        <pt x="417" y="103" on="0"/>
        <pt x="417" y="187" on="1"/>
        <pt x="417" y="620" on="1"/>
        <pt x="462" y="620" on="1"/>
        <pt x="462" y="191" on="1"/>
        <pt x="462" y="91" on="0"/>
        <pt x="360" y="-15" on="0"/>
      </contour>
    </TTGlyph>
    <TTGlyph name="Udieresis" xMin="87" yMin="-15" xMax="462" yMax="835">
      <contour>
        <pt x="406" y="705" on="1"/>
        <pt x="362" y="705" on="1"/>
        <pt x="361" y="835" on="1"/>
        <pt x="408" y="835" on="1"/>
      </contour>
      <contour>
        <pt x="189" y="705" on="1"/>
        <pt x="145" y="705" on="1"/>
        <pt x="144" y="835" on="1"/>
        <pt x="191" y="835" on="1"/>
      </contour>
      <contour>
        <pt x="270" y="-15" on="1"/>
        <pt x="185" y="-15" on="0"/>
        <pt x="87" y="91" on="0"/>
        <pt x="87" y="192" on="1"/>
        <pt x="87" y="620" on="1"/>
        <pt x="132" y="620" on="1"/>
        <pt x="132" y="201" on="1"/>
        <pt x="132" y="111" on="0"/>
        <pt x="210" y="25" on="0"/>
        <pt x="277" y="25" on="1"/>
        <pt x="347" y="25" on="0"/>
        <pt x="417" y="103" on="0"/>
        <pt x="417" y="187" on="1"/>
        <pt x="417" y="620" on="1"/>
        <pt x="462" y="620" on="1"/>
        <pt x="462" y="191" on="1"/>
        <pt x="462" y="91" on="0"/>
        <pt x="360" y="-15" on="0"/>
      </contour>
    </TTGlyph>
    <TTGlyph name="Ugrave" xMin="87" yMin="-15" xMax="462" yMax="888">
      <contour>
        <pt x="360" y="708" on="1"/>
        <pt x="344" y="688" on="1"/>
        <pt x="320" y="703" on="0"/>
        <pt x="265" y="744" on="0"/>
        <pt x="210" y="787" on="0"/>
        <pt x="159" y="830" on="0"/>
        <pt x="140" y="849" on="1"/>
        <pt x="181" y="888" on="1"/>
        <pt x="197" y="868" on="0"/>
        <pt x="241" y="819" on="0"/>
        <pt x="290" y="770" on="0"/>
        <pt x="339" y="724" on="0"/>
      </contour>
      <contour>
        <pt x="270" y="-15" on="1"/>
        <pt x="185" y="-15" on="0"/>
        <pt x="87" y="91" on="0"/>
        <pt x="87" y="192" on="1"/>
        <pt x="87" y="620" on="1"/>
        <pt x="132" y="620" on="1"/>
        <pt x="132" y="201" on="1"/>
        <pt x="132" y="111" on="0"/>
        <pt x="210" y="25" on="0"/>
        <pt x="277" y="25" on="1"/>
        <pt x="347" y="25" on="0"/>
        <pt x="417" y="103" on="0"/>
        <pt x="417" y="187" on="1"/>
        <pt x="417" y="620" on="1"/>
        <pt x="462" y="620" on="1"/>
        <pt x="462" y="191" on="1"/>
        <pt x="462" y="91" on="0"/>
        <pt x="360" y="-15" on="0"/>
      </contour>
    </TTGlyph>
    <TTGlyph name="Uhungarumlaut" xMin="87" yMin="-15" xMax="507" yMax="908">
      <contour>
        <pt x="142" y="712" on="1"/>
        <pt x="157" y="732" on="0"/>
        <pt x="187" y="783" on="0"/>
        <pt x="216" y="836" on="0"/>
        <pt x="242" y="887" on="0"/>
        <pt x="251" y="908" on="1"/>
        <pt x="301" y="883" on="1"/>
        <pt x="278" y="843" on="0"/>
        <pt x="199" y="736" on="0"/>
        <pt x="164" y="696" on="1"/>
      </contour>
      <contour>
        <pt x="347" y="711" on="1"/>
        <pt x="376" y="751" on="0"/>
        <pt x="437" y="863" on="0"/>
        <pt x="455" y="906" on="1"/>
        <pt x="507" y="883" on="1"/>
        <pt x="483" y="843" on="0"/>
        <pt x="405" y="736" on="0"/>
        <pt x="369" y="696" on="1"/>
      </contour>
      <contour>
        <pt x="270" y="-15" on="1"/>
        <pt x="185" y="-15" on="0"/>
        <pt x="87" y="91" on="0"/>
        <pt x="87" y="192" on="1"/>
        <pt x="87" y="620" on="1"/>
        <pt x="132" y="620" on="1"/>
        <pt x="132" y="201" on="1"/>
        <pt x="132" y="111" on="0"/>
        <pt x="210" y="25" on="0"/>
        <pt x="277" y="25" on="1"/>
        <pt x="347" y="25" on="0"/>
        <pt x="417" y="103" on="0"/>
        <pt x="417" y="187" on="1"/>
        <pt x="417" y="620" on="1"/>
        <pt x="462" y="620" on="1"/>
        <pt x="462" y="191" on="1"/>
        <pt x="462" y="91" on="0"/>
        <pt x="360" y="-15" on="0"/>
      </contour>
    </TTGlyph>
    <TTGlyph name="Umacron" xMin="87" yMin="-15" xMax="462" yMax="793">
      <contour>
        <pt x="433" y="793" on="1"/>
        <pt x="433" y="754" on="1"/>
        <pt x="115" y="754" on="1"/>
        <pt x="115" y="793" on="1"/>
      </contour>
      <contour>
        <pt x="270" y="-15" on="1"/>
        <pt x="185" y="-15" on="0"/>
        <pt x="87" y="91" on="0"/>
        <pt x="87" y="192" on="1"/>
        <pt x="87" y="620" on="1"/>
        <pt x="132" y="620" on="1"/>
        <pt x="132" y="201" on="1"/>
        <pt x="132" y="111" on="0"/>
        <pt x="210" y="25" on="0"/>
        <pt x="277" y="25" on="1"/>
        <pt x="347" y="25" on="0"/>
        <pt x="417" y="103" on="0"/>
        <pt x="417" y="187" on="1"/>
        <pt x="417" y="620" on="1"/>
        <pt x="462" y="620" on="1"/>
        <pt x="462" y="191" on="1"/>
        <pt x="462" y="91" on="0"/>
        <pt x="360" y="-15" on="0"/>
      </contour>
    </TTGlyph>
    <TTGlyph name="Uogonek" xMin="87" yMin="-205" xMax="462" yMax="620">
      <contour>
        <pt x="360" y="-205" on="1"/>
        <pt x="271" y="-195" on="0"/>
        <pt x="199" y="-154" on="0"/>
        <pt x="199" y="-122" on="1"/>
        <pt x="199" y="-97" on="0"/>
        <pt x="235" y="-47" on="0"/>
        <pt x="281" y="-16" on="1"/>
        <pt x="187" y="-15" on="0"/>
        <pt x="87" y="92" on="0"/>
        <pt x="87" y="192" on="1"/>
        <pt x="87" y="620" on="1"/>
        <pt x="132" y="620" on="1"/>
        <pt x="132" y="201" on="1"/>
        <pt x="132" y="111" on="0"/>
        <pt x="210" y="25" on="0"/>
        <pt x="277" y="25" on="1"/>
        <pt x="347" y="25" on="0"/>
        <pt x="417" y="103" on="0"/>
        <pt x="417" y="187" on="1"/>
        <pt x="417" y="620" on="1"/>
        <pt x="462" y="620" on="1"/>
        <pt x="462" y="191" on="1"/>
        <pt x="462" y="122" on="0"/>
        <pt x="415" y="36" on="0"/>
        <pt x="359" y="3" on="1"/>
        <pt x="287" y="-40" on="0"/>
        <pt x="239" y="-95" on="0"/>
        <pt x="239" y="-114" on="1"/>
        <pt x="239" y="-133" on="0"/>
        <pt x="297" y="-159" on="0"/>
        <pt x="365" y="-167" on="1"/>
      </contour>
    </TTGlyph>
    <TTGlyph name="Uring" xMin="87" yMin="-15" xMax="462" yMax="889">
      <contour>
        <pt x="273" y="889" on="1"/>
        <pt x="329" y="889" on="0"/>
        <pt x="402" y="830" on="0"/>
        <pt x="402" y="788" on="1"/>
        <pt x="402" y="742" on="0"/>
        <pt x="331" y="683" on="0"/>
        <pt x="273" y="683" on="1"/>
        <pt x="217" y="683" on="0"/>
        <pt x="144" y="742" on="0"/>
        <pt x="144" y="784" on="1"/>
        <pt x="144" y="830" on="0"/>
        <pt x="215" y="889" on="0"/>
      </contour>
      <contour>
        <pt x="273" y="858" on="1"/>
        <pt x="230" y="858" on="0"/>
        <pt x="180" y="817" on="0"/>
        <pt x="180" y="786" on="1"/>
        <pt x="180" y="755" on="0"/>
        <pt x="230" y="714" on="0"/>
        <pt x="273" y="714" on="1"/>
        <pt x="316" y="714" on="0"/>
        <pt x="366" y="755" on="0"/>
        <pt x="366" y="786" on="1"/>
        <pt x="366" y="817" on="0"/>
        <pt x="316" y="858" on="0"/>
      </contour>
      <contour>
        <pt x="270" y="-15" on="1"/>
        <pt x="185" y="-15" on="0"/>
        <pt x="87" y="91" on="0"/>
        <pt x="87" y="192" on="1"/>
        <pt x="87" y="620" on="1"/>
        <pt x="132" y="620" on="1"/>
        <pt x="132" y="201" on="1"/>
        <pt x="132" y="111" on="0"/>
        <pt x="210" y="25" on="0"/>
        <pt x="277" y="25" on="1"/>
        <pt x="347" y="25" on="0"/>
        <pt x="417" y="103" on="0"/>
        <pt x="417" y="187" on="1"/>
        <pt x="417" y="620" on="1"/>
        <pt x="462" y="620" on="1"/>
        <pt x="462" y="191" on="1"/>
        <pt x="462" y="91" on="0"/>
        <pt x="360" y="-15" on="0"/>
      </contour>
    </TTGlyph>
    <TTGlyph name="V" xMin="50" yMin="-2" xMax="500" yMax="622">
      <contour>
        <pt x="309" y="-2" on="1"/>
        <pt x="241" y="-2" on="1"/>
        <pt x="190" y="155" on="0"/>
        <pt x="95" y="464" on="0"/>
        <pt x="50" y="618" on="1"/>
        <pt x="95" y="622" on="1"/>
        <pt x="137" y="476" on="0"/>
        <pt x="226" y="185" on="0"/>
        <pt x="272" y="39" on="1"/>
        <pt x="281" y="39" on="1"/>
        <pt x="327" y="185" on="0"/>
        <pt x="415" y="474" on="0"/>
        <pt x="457" y="620" on="1"/>
        <pt x="500" y="620" on="1"/>
        <pt x="455" y="466" on="0"/>
        <pt x="360" y="155" on="0"/>
      </contour>
    </TTGlyph>
    <TTGlyph name="W" xMin="66" yMin="0" xMax="485" yMax="620">
      <contour>
        <pt x="377" y="0" on="1"/>
        <pt x="276" y="365" on="1"/>
        <pt x="176" y="0" on="1"/>
        <pt x="116" y="0" on="1"/>
        <pt x="110" y="44" on="0"/>
        <pt x="96" y="174" on="0"/>
        <pt x="83" y="334" on="0"/>
        <pt x="71" y="520" on="0"/>
        <pt x="66" y="620" on="1"/>
        <pt x="112" y="620" on="1"/>
        <pt x="115" y="546" on="0"/>
        <pt x="125" y="376" on="0"/>
        <pt x="136" y="219" on="0"/>
        <pt x="146" y="88" on="0"/>
        <pt x="150" y="51" on="1"/>
        <pt x="154" y="51" on="1"/>
        <pt x="183" y="155" on="0"/>
        <pt x="235" y="350" on="0"/>
        <pt x="259" y="439" on="1"/>
        <pt x="294" y="439" on="1"/>
        <pt x="306" y="394" on="0"/>
        <pt x="333" y="295" on="0"/>
        <pt x="360" y="195" on="0"/>
        <pt x="387" y="96" on="0"/>
        <pt x="400" y="51" on="1"/>
        <pt x="403" y="51" on="1"/>
        <pt x="407" y="88" on="0"/>
        <pt x="418" y="219" on="0"/>
        <pt x="429" y="376" on="0"/>
        <pt x="439" y="546" on="0"/>
        <pt x="442" y="620" on="1"/>
        <pt x="485" y="620" on="1"/>
        <pt x="480" y="520" on="0"/>
        <pt x="467" y="334" on="0"/>
        <pt x="454" y="174" on="0"/>
        <pt x="440" y="44" on="0"/>
        <pt x="434" y="0" on="1"/>
      </contour>
    </TTGlyph>
    <TTGlyph name="Wacute" xMin="66" yMin="0" xMax="485" yMax="896">
      <contour>
        <pt x="191" y="717" on="1"/>
        <pt x="212" y="733" on="0"/>
        <pt x="262" y="778" on="0"/>
        <pt x="310" y="826" on="0"/>
        <pt x="353" y="875" on="0"/>
        <pt x="369" y="896" on="1"/>
        <pt x="412" y="859" on="1"/>
        <pt x="393" y="840" on="0"/>
        <pt x="342" y="795" on="0"/>
        <pt x="286" y="752" on="0"/>
        <pt x="231" y="711" on="0"/>
        <pt x="207" y="696" on="1"/>
      </contour>
      <contour>
        <pt x="377" y="0" on="1"/>
        <pt x="276" y="365" on="1"/>
        <pt x="176" y="0" on="1"/>
        <pt x="116" y="0" on="1"/>
        <pt x="110" y="44" on="0"/>
        <pt x="96" y="174" on="0"/>
        <pt x="83" y="334" on="0"/>
        <pt x="71" y="520" on="0"/>
        <pt x="66" y="620" on="1"/>
        <pt x="112" y="620" on="1"/>
        <pt x="115" y="546" on="0"/>
        <pt x="125" y="376" on="0"/>
        <pt x="136" y="219" on="0"/>
        <pt x="146" y="88" on="0"/>
        <pt x="150" y="51" on="1"/>
        <pt x="154" y="51" on="1"/>
        <pt x="183" y="155" on="0"/>
        <pt x="235" y="350" on="0"/>
        <pt x="259" y="439" on="1"/>
        <pt x="294" y="439" on="1"/>
        <pt x="306" y="394" on="0"/>
        <pt x="333" y="295" on="0"/>
        <pt x="360" y="195" on="0"/>
        <pt x="387" y="96" on="0"/>
        <pt x="400" y="51" on="1"/>
        <pt x="403" y="51" on="1"/>
        <pt x="407" y="88" on="0"/>
        <pt x="418" y="219" on="0"/>
        <pt x="429" y="376" on="0"/>
        <pt x="439" y="546" on="0"/>
        <pt x="442" y="620" on="1"/>
        <pt x="485" y="620" on="1"/>
        <pt x="480" y="520" on="0"/>
        <pt x="467" y="334" on="0"/>
        <pt x="454" y="174" on="0"/>
        <pt x="440" y="44" on="0"/>
        <pt x="434" y="0" on="1"/>
      </contour>
    </TTGlyph>
    <TTGlyph name="Wcircumflex" xMin="66" yMin="0" xMax="485" yMax="876">
      <contour>
        <pt x="418" y="700" on="1"/>
        <pt x="278" y="827" on="1"/>
        <pt x="136" y="701" on="1"/>
        <pt x="111" y="724" on="1"/>
        <pt x="280" y="876" on="1"/>
        <pt x="281" y="876" on="1"/>
        <pt x="447" y="728" on="1"/>
      </contour>
      <contour>
        <pt x="377" y="0" on="1"/>
        <pt x="276" y="365" on="1"/>
        <pt x="176" y="0" on="1"/>
        <pt x="116" y="0" on="1"/>
        <pt x="110" y="44" on="0"/>
        <pt x="96" y="174" on="0"/>
        <pt x="83" y="334" on="0"/>
        <pt x="71" y="520" on="0"/>
        <pt x="66" y="620" on="1"/>
        <pt x="112" y="620" on="1"/>
        <pt x="115" y="546" on="0"/>
        <pt x="125" y="376" on="0"/>
        <pt x="136" y="219" on="0"/>
        <pt x="146" y="88" on="0"/>
        <pt x="150" y="51" on="1"/>
        <pt x="154" y="51" on="1"/>
        <pt x="183" y="155" on="0"/>
        <pt x="235" y="350" on="0"/>
        <pt x="259" y="439" on="1"/>
        <pt x="294" y="439" on="1"/>
        <pt x="306" y="394" on="0"/>
        <pt x="333" y="295" on="0"/>
        <pt x="360" y="195" on="0"/>
        <pt x="387" y="96" on="0"/>
        <pt x="400" y="51" on="1"/>
        <pt x="403" y="51" on="1"/>
        <pt x="407" y="88" on="0"/>
        <pt x="418" y="219" on="0"/>
        <pt x="429" y="376" on="0"/>
        <pt x="439" y="546" on="0"/>
        <pt x="442" y="620" on="1"/>
        <pt x="485" y="620" on="1"/>
        <pt x="480" y="520" on="0"/>
        <pt x="467" y="334" on="0"/>
        <pt x="454" y="174" on="0"/>
        <pt x="440" y="44" on="0"/>
        <pt x="434" y="0" on="1"/>
      </contour>
    </TTGlyph>
    <TTGlyph name="Wdieresis" xMin="66" yMin="0" xMax="485" yMax="835">
      <contour>
        <pt x="411" y="705" on="1"/>
        <pt x="367" y="705" on="1"/>
        <pt x="366" y="835" on="1"/>
        <pt x="413" y="835" on="1"/>
      </contour>
      <contour>
        <pt x="194" y="705" on="1"/>
        <pt x="150" y="705" on="1"/>
        <pt x="149" y="835" on="1"/>
        <pt x="196" y="835" on="1"/>
      </contour>
      <contour>
        <pt x="377" y="0" on="1"/>
        <pt x="276" y="365" on="1"/>
        <pt x="176" y="0" on="1"/>
        <pt x="116" y="0" on="1"/>
        <pt x="110" y="44" on="0"/>
        <pt x="96" y="174" on="0"/>
        <pt x="83" y="334" on="0"/>
        <pt x="71" y="520" on="0"/>
        <pt x="66" y="620" on="1"/>
        <pt x="112" y="620" on="1"/>
        <pt x="115" y="546" on="0"/>
        <pt x="125" y="376" on="0"/>
        <pt x="136" y="219" on="0"/>
        <pt x="146" y="88" on="0"/>
        <pt x="150" y="51" on="1"/>
        <pt x="154" y="51" on="1"/>
        <pt x="183" y="155" on="0"/>
        <pt x="235" y="350" on="0"/>
        <pt x="259" y="439" on="1"/>
        <pt x="294" y="439" on="1"/>
        <pt x="306" y="394" on="0"/>
        <pt x="333" y="295" on="0"/>
        <pt x="360" y="195" on="0"/>
        <pt x="387" y="96" on="0"/>
        <pt x="400" y="51" on="1"/>
        <pt x="403" y="51" on="1"/>
        <pt x="407" y="88" on="0"/>
        <pt x="418" y="219" on="0"/>
        <pt x="429" y="376" on="0"/>
        <pt x="439" y="546" on="0"/>
        <pt x="442" y="620" on="1"/>
        <pt x="485" y="620" on="1"/>
        <pt x="480" y="520" on="0"/>
        <pt x="467" y="334" on="0"/>
        <pt x="454" y="174" on="0"/>
        <pt x="440" y="44" on="0"/>
        <pt x="434" y="0" on="1"/>
      </contour>
    </TTGlyph>
    <TTGlyph name="Wgrave" xMin="66" yMin="0" xMax="485" yMax="888">
      <contour>
        <pt x="365" y="708" on="1"/>
        <pt x="349" y="688" on="1"/>
        <pt x="325" y="703" on="0"/>
        <pt x="270" y="744" on="0"/>
        <pt x="215" y="787" on="0"/>
        <pt x="164" y="830" on="0"/>
        <pt x="145" y="849" on="1"/>
        <pt x="186" y="888" on="1"/>
        <pt x="202" y="868" on="0"/>
        <pt x="246" y="819" on="0"/>
        <pt x="295" y="770" on="0"/>
        <pt x="344" y="724" on="0"/>
      </contour>
      <contour>
        <pt x="377" y="0" on="1"/>
        <pt x="276" y="365" on="1"/>
        <pt x="176" y="0" on="1"/>
        <pt x="116" y="0" on="1"/>
        <pt x="110" y="44" on="0"/>
        <pt x="96" y="174" on="0"/>
        <pt x="83" y="334" on="0"/>
        <pt x="71" y="520" on="0"/>
        <pt x="66" y="620" on="1"/>
        <pt x="112" y="620" on="1"/>
        <pt x="115" y="546" on="0"/>
        <pt x="125" y="376" on="0"/>
        <pt x="136" y="219" on="0"/>
        <pt x="146" y="88" on="0"/>
        <pt x="150" y="51" on="1"/>
        <pt x="154" y="51" on="1"/>
        <pt x="183" y="155" on="0"/>
        <pt x="235" y="350" on="0"/>
        <pt x="259" y="439" on="1"/>
        <pt x="294" y="439" on="1"/>
        <pt x="306" y="394" on="0"/>
        <pt x="333" y="295" on="0"/>
        <pt x="360" y="195" on="0"/>
        <pt x="387" y="96" on="0"/>
        <pt x="400" y="51" on="1"/>
        <pt x="403" y="51" on="1"/>
        <pt x="407" y="88" on="0"/>
        <pt x="418" y="219" on="0"/>
        <pt x="429" y="376" on="0"/>
        <pt x="439" y="546" on="0"/>
        <pt x="442" y="620" on="1"/>
        <pt x="485" y="620" on="1"/>
        <pt x="480" y="520" on="0"/>
        <pt x="467" y="334" on="0"/>
        <pt x="454" y="174" on="0"/>
        <pt x="440" y="44" on="0"/>
        <pt x="434" y="0" on="1"/>
      </contour>
    </TTGlyph>
    <TTGlyph name="X" xMin="54" yMin="-3" xMax="499" yMax="623">
      <contour>
        <pt x="451" y="-3" on="1"/>
        <pt x="275" y="278" on="1"/>
        <pt x="102" y="0" on="1"/>
        <pt x="54" y="0" on="1"/>
        <pt x="249" y="309" on="1"/>
        <pt x="54" y="617" on="1"/>
        <pt x="102" y="623" on="1"/>
        <pt x="278" y="342" on="1"/>
        <pt x="450" y="620" on="1"/>
        <pt x="499" y="620" on="1"/>
        <pt x="303" y="311" on="1"/>
        <pt x="498" y="3" on="1"/>
      </contour>
    </TTGlyph>
    <TTGlyph name="Y" xMin="49" yMin="0" xMax="502" yMax="621">
      <contour>
        <pt x="298" y="0" on="1"/>
        <pt x="253" y="0" on="1"/>
        <pt x="253" y="206" on="1"/>
        <pt x="49" y="619" on="1"/>
        <pt x="98" y="621" on="1"/>
        <pt x="276" y="254" on="1"/>
        <pt x="455" y="620" on="1"/>
        <pt x="502" y="620" on="1"/>
        <pt x="298" y="207" on="1"/>
      </contour>
    </TTGlyph>
    <TTGlyph name="Yacute" xMin="49" yMin="0" xMax="502" yMax="897">
      <contour>
        <pt x="190" y="718" on="1"/>
        <pt x="211" y="734" on="0"/>
        <pt x="261" y="779" on="0"/>
        <pt x="309" y="827" on="0"/>
        <pt x="352" y="876" on="0"/>
        <pt x="368" y="897" on="1"/>
        <pt x="411" y="860" on="1"/>
        <pt x="392" y="841" on="0"/>
        <pt x="341" y="796" on="0"/>
        <pt x="285" y="753" on="0"/>
        <pt x="230" y="712" on="0"/>
        <pt x="206" y="697" on="1"/>
      </contour>
      <contour>
        <pt x="298" y="0" on="1"/>
        <pt x="253" y="0" on="1"/>
        <pt x="253" y="206" on="1"/>
        <pt x="49" y="619" on="1"/>
        <pt x="98" y="621" on="1"/>
        <pt x="276" y="254" on="1"/>
        <pt x="455" y="620" on="1"/>
        <pt x="502" y="620" on="1"/>
        <pt x="298" y="207" on="1"/>
      </contour>
    </TTGlyph>
    <TTGlyph name="Ycircumflex" xMin="49" yMin="0" xMax="502" yMax="877">
      <contour>
        <pt x="417" y="701" on="1"/>
        <pt x="277" y="828" on="1"/>
        <pt x="135" y="702" on="1"/>
        <pt x="110" y="725" on="1"/>
        <pt x="279" y="877" on="1"/>
        <pt x="280" y="877" on="1"/>
        <pt x="446" y="729" on="1"/>
      </contour>
      <contour>
        <pt x="298" y="0" on="1"/>
        <pt x="253" y="0" on="1"/>
        <pt x="253" y="206" on="1"/>
        <pt x="49" y="619" on="1"/>
        <pt x="98" y="621" on="1"/>
        <pt x="276" y="254" on="1"/>
        <pt x="455" y="620" on="1"/>
        <pt x="502" y="620" on="1"/>
        <pt x="298" y="207" on="1"/>
      </contour>
    </TTGlyph>
    <TTGlyph name="Ydieresis" xMin="49" yMin="0" xMax="502" yMax="836">
      <contour>
        <pt x="410" y="706" on="1"/>
        <pt x="366" y="706" on="1"/>
        <pt x="365" y="836" on="1"/>
        <pt x="412" y="836" on="1"/>
      </contour>
      <contour>
        <pt x="193" y="706" on="1"/>
        <pt x="149" y="706" on="1"/>
        <pt x="148" y="836" on="1"/>
        <pt x="195" y="836" on="1"/>
      </contour>
      <contour>
        <pt x="298" y="0" on="1"/>
        <pt x="253" y="0" on="1"/>
        <pt x="253" y="206" on="1"/>
        <pt x="49" y="619" on="1"/>
        <pt x="98" y="621" on="1"/>
        <pt x="276" y="254" on="1"/>
        <pt x="455" y="620" on="1"/>
        <pt x="502" y="620" on="1"/>
        <pt x="298" y="207" on="1"/>
      </contour>
    </TTGlyph>
    <TTGlyph name="Ygrave" xMin="49" yMin="0" xMax="502" yMax="889">
      <contour>
        <pt x="364" y="709" on="1"/>
        <pt x="348" y="689" on="1"/>
        <pt x="324" y="704" on="0"/>
        <pt x="269" y="745" on="0"/>
        <pt x="214" y="788" on="0"/>
        <pt x="163" y="831" on="0"/>
        <pt x="144" y="850" on="1"/>
        <pt x="185" y="889" on="1"/>
        <pt x="201" y="869" on="0"/>
        <pt x="245" y="820" on="0"/>
        <pt x="294" y="771" on="0"/>
        <pt x="343" y="725" on="0"/>
      </contour>
      <contour>
        <pt x="298" y="0" on="1"/>
        <pt x="253" y="0" on="1"/>
        <pt x="253" y="206" on="1"/>
        <pt x="49" y="619" on="1"/>
        <pt x="98" y="621" on="1"/>
        <pt x="276" y="254" on="1"/>
        <pt x="455" y="620" on="1"/>
        <pt x="502" y="620" on="1"/>
        <pt x="298" y="207" on="1"/>
      </contour>
    </TTGlyph>
    <TTGlyph name="Z" xMin="72" yMin="0" xMax="480" yMax="620">
      <contour>
        <pt x="476" y="0" on="1"/>
        <pt x="72" y="0" on="1"/>
        <pt x="72" y="40" on="1"/>
        <pt x="430" y="580" on="1"/>
        <pt x="78" y="579" on="1"/>
        <pt x="83" y="620" on="1"/>
        <pt x="476" y="620" on="1"/>
        <pt x="476" y="580" on="1"/>
        <pt x="120" y="40" on="1"/>
        <pt x="480" y="41" on="1"/>
      </contour>
    </TTGlyph>
    <TTGlyph name="Zacute" xMin="72" yMin="0" xMax="480" yMax="896">
      <contour>
        <pt x="198" y="717" on="1"/>
        <pt x="219" y="733" on="0"/>
        <pt x="269" y="778" on="0"/>
        <pt x="317" y="826" on="0"/>
        <pt x="360" y="875" on="0"/>
        <pt x="376" y="896" on="1"/>
        <pt x="419" y="859" on="1"/>
        <pt x="400" y="840" on="0"/>
        <pt x="349" y="795" on="0"/>
        <pt x="293" y="752" on="0"/>
        <pt x="238" y="711" on="0"/>
        <pt x="214" y="696" on="1"/>
      </contour>
      <contour>
        <pt x="476" y="0" on="1"/>
        <pt x="72" y="0" on="1"/>
        <pt x="72" y="40" on="1"/>
        <pt x="430" y="580" on="1"/>
        <pt x="78" y="579" on="1"/>
        <pt x="83" y="620" on="1"/>
        <pt x="476" y="620" on="1"/>
        <pt x="476" y="580" on="1"/>
        <pt x="120" y="40" on="1"/>
        <pt x="480" y="41" on="1"/>
      </contour>
    </TTGlyph>
    <TTGlyph name="Zcaron" xMin="72" yMin="0" xMax="480" yMax="870">
      <contour>
        <pt x="291" y="695" on="1"/>
        <pt x="290" y="695" on="1"/>
        <pt x="124" y="842" on="1"/>
        <pt x="153" y="870" on="1"/>
        <pt x="293" y="743" on="1"/>
        <pt x="435" y="870" on="1"/>
        <pt x="460" y="846" on="1"/>
      </contour>
      <contour>
        <pt x="476" y="0" on="1"/>
        <pt x="72" y="0" on="1"/>
        <pt x="72" y="40" on="1"/>
        <pt x="430" y="580" on="1"/>
        <pt x="78" y="579" on="1"/>
        <pt x="83" y="620" on="1"/>
        <pt x="476" y="620" on="1"/>
        <pt x="476" y="580" on="1"/>
        <pt x="120" y="40" on="1"/>
        <pt x="480" y="41" on="1"/>
      </contour>
    </TTGlyph>
    <TTGlyph name="Zdotaccent" xMin="72" yMin="0" xMax="480" yMax="835">
      <contour>
        <pt x="306" y="705" on="1"/>
        <pt x="262" y="705" on="1"/>
        <pt x="265" y="835" on="1"/>
        <pt x="311" y="835" on="1"/>
      </contour>
      <contour>
        <pt x="476" y="0" on="1"/>
        <pt x="72" y="0" on="1"/>
        <pt x="72" y="40" on="1"/>
        <pt x="430" y="580" on="1"/>
        <pt x="78" y="579" on="1"/>
        <pt x="83" y="620" on="1"/>
        <pt x="476" y="620" on="1"/>
        <pt x="476" y="580" on="1"/>
        <pt x="120" y="40" on="1"/>
        <pt x="480" y="41" on="1"/>
      </contour>
    </TTGlyph>
    <TTGlyph name="a" xMin="76" yMin="-12" xMax="458" yMax="488">
      <contour>
        <pt x="241" y="27" on="1"/>
        <pt x="288" y="27" on="0"/>
        <pt x="379" y="68" on="0"/>
        <pt x="411" y="96" on="1"/>
        <pt x="410" y="123" on="0"/>
        <pt x="409" y="185" on="0"/>
        <pt x="409" y="229" on="1"/>
        <pt x="383" y="232" on="0"/>
        <pt x="336" y="235" on="0"/>
        <pt x="315" y="235" on="1"/>
        <pt x="211" y="235" on="0"/>
        <pt x="120" y="173" on="0"/>
        <pt x="120" y="122" on="1"/>
        <pt x="120" y="76" on="0"/>
        <pt x="187" y="27" on="0"/>
      </contour>
      <contour>
        <pt x="419" y="-2" on="1"/>
        <pt x="418" y="11" on="0"/>
        <pt x="415" y="48" on="0"/>
        <pt x="414" y="64" on="1"/>
        <pt x="383" y="36" on="0"/>
        <pt x="288" y="-12" on="0"/>
        <pt x="226" y="-12" on="1"/>
        <pt x="160" y="-12" on="0"/>
        <pt x="76" y="55" on="0"/>
        <pt x="76" y="112" on="1"/>
        <pt x="76" y="181" on="0"/>
        <pt x="207" y="271" on="0"/>
        <pt x="341" y="271" on="1"/>
        <pt x="357" y="271" on="0"/>
        <pt x="390" y="269" on="0"/>
        <pt x="408" y="268" on="1"/>
        <pt x="406" y="318" on="0"/>
        <pt x="374" y="384" on="0"/>
        <pt x="305" y="424" on="0"/>
        <pt x="191" y="444" on="0"/>
        <pt x="107" y="448" on="1"/>
        <pt x="113" y="488" on="1"/>
        <pt x="211" y="484" on="0"/>
        <pt x="342" y="455" on="0"/>
        <pt x="420" y="398" on="0"/>
        <pt x="453" y="307" on="0"/>
        <pt x="453" y="239" on="1"/>
        <pt x="453" y="158" on="0"/>
        <pt x="456" y="54" on="0"/>
        <pt x="458" y="1" on="1"/>
      </contour>
    </TTGlyph>
    <TTGlyph name="aacute" xMin="76" yMin="-12" xMax="458" yMax="756">
      <contour>
        <pt x="188" y="577" on="1"/>
        <pt x="209" y="593" on="0"/>
        <pt x="259" y="638" on="0"/>
        <pt x="307" y="686" on="0"/>
        <pt x="350" y="735" on="0"/>
        <pt x="366" y="756" on="1"/>
        <pt x="409" y="719" on="1"/>
        <pt x="390" y="700" on="0"/>
        <pt x="339" y="655" on="0"/>
        <pt x="283" y="612" on="0"/>
        <pt x="228" y="571" on="0"/>
        <pt x="204" y="556" on="1"/>
      </contour>
      <contour>
        <pt x="241" y="27" on="1"/>
        <pt x="288" y="27" on="0"/>
        <pt x="379" y="68" on="0"/>
        <pt x="411" y="96" on="1"/>
        <pt x="410" y="123" on="0"/>
        <pt x="409" y="185" on="0"/>
        <pt x="409" y="229" on="1"/>
        <pt x="383" y="232" on="0"/>
        <pt x="336" y="235" on="0"/>
        <pt x="315" y="235" on="1"/>
        <pt x="211" y="235" on="0"/>
        <pt x="120" y="173" on="0"/>
        <pt x="120" y="122" on="1"/>
        <pt x="120" y="76" on="0"/>
        <pt x="187" y="27" on="0"/>
      </contour>
      <contour>
        <pt x="419" y="-2" on="1"/>
        <pt x="418" y="11" on="0"/>
        <pt x="415" y="48" on="0"/>
        <pt x="414" y="64" on="1"/>
        <pt x="383" y="36" on="0"/>
        <pt x="288" y="-12" on="0"/>
        <pt x="226" y="-12" on="1"/>
        <pt x="160" y="-12" on="0"/>
        <pt x="76" y="55" on="0"/>
        <pt x="76" y="112" on="1"/>
        <pt x="76" y="181" on="0"/>
        <pt x="207" y="271" on="0"/>
        <pt x="341" y="271" on="1"/>
        <pt x="357" y="271" on="0"/>
        <pt x="390" y="269" on="0"/>
        <pt x="408" y="268" on="1"/>
        <pt x="406" y="318" on="0"/>
        <pt x="374" y="384" on="0"/>
        <pt x="305" y="424" on="0"/>
        <pt x="191" y="444" on="0"/>
        <pt x="107" y="448" on="1"/>
        <pt x="113" y="488" on="1"/>
        <pt x="211" y="484" on="0"/>
        <pt x="342" y="455" on="0"/>
        <pt x="420" y="398" on="0"/>
        <pt x="453" y="307" on="0"/>
        <pt x="453" y="239" on="1"/>
        <pt x="453" y="158" on="0"/>
        <pt x="456" y="54" on="0"/>
        <pt x="458" y="1" on="1"/>
      </contour>
    </TTGlyph>
    <TTGlyph name="abreve" xMin="76" yMin="-12" xMax="458" yMax="727">
      <contour>
        <pt x="272" y="565" on="1"/>
        <pt x="224" y="565" on="0"/>
        <pt x="140" y="635" on="0"/>
        <pt x="98" y="707" on="1"/>
        <pt x="131" y="727" on="1"/>
        <pt x="171" y="660" on="0"/>
        <pt x="236" y="603" on="0"/>
        <pt x="275" y="603" on="1"/>
        <pt x="318" y="603" on="0"/>
        <pt x="387" y="665" on="0"/>
        <pt x="427" y="723" on="1"/>
        <pt x="456" y="708" on="1"/>
        <pt x="414" y="641" on="0"/>
        <pt x="322" y="565" on="0"/>
      </contour>
      <contour>
        <pt x="241" y="27" on="1"/>
        <pt x="288" y="27" on="0"/>
        <pt x="379" y="68" on="0"/>
        <pt x="411" y="96" on="1"/>
        <pt x="410" y="123" on="0"/>
        <pt x="409" y="185" on="0"/>
        <pt x="409" y="229" on="1"/>
        <pt x="383" y="232" on="0"/>
        <pt x="336" y="235" on="0"/>
        <pt x="315" y="235" on="1"/>
        <pt x="211" y="235" on="0"/>
        <pt x="120" y="173" on="0"/>
        <pt x="120" y="122" on="1"/>
        <pt x="120" y="76" on="0"/>
        <pt x="187" y="27" on="0"/>
      </contour>
      <contour>
        <pt x="419" y="-2" on="1"/>
        <pt x="418" y="11" on="0"/>
        <pt x="415" y="48" on="0"/>
        <pt x="414" y="64" on="1"/>
        <pt x="383" y="36" on="0"/>
        <pt x="288" y="-12" on="0"/>
        <pt x="226" y="-12" on="1"/>
        <pt x="160" y="-12" on="0"/>
        <pt x="76" y="55" on="0"/>
        <pt x="76" y="112" on="1"/>
        <pt x="76" y="181" on="0"/>
        <pt x="207" y="271" on="0"/>
        <pt x="341" y="271" on="1"/>
        <pt x="357" y="271" on="0"/>
        <pt x="390" y="269" on="0"/>
        <pt x="408" y="268" on="1"/>
        <pt x="406" y="318" on="0"/>
        <pt x="374" y="384" on="0"/>
        <pt x="305" y="424" on="0"/>
        <pt x="191" y="444" on="0"/>
        <pt x="107" y="448" on="1"/>
        <pt x="113" y="488" on="1"/>
        <pt x="211" y="484" on="0"/>
        <pt x="342" y="455" on="0"/>
        <pt x="420" y="398" on="0"/>
        <pt x="453" y="307" on="0"/>
        <pt x="453" y="239" on="1"/>
        <pt x="453" y="158" on="0"/>
        <pt x="456" y="54" on="0"/>
        <pt x="458" y="1" on="1"/>
      </contour>
    </TTGlyph>
    <TTGlyph name="acircumflex" xMin="76" yMin="-12" xMax="458" yMax="736">
      <contour>
        <pt x="415" y="560" on="1"/>
        <pt x="275" y="687" on="1"/>
        <pt x="133" y="561" on="1"/>
        <pt x="108" y="584" on="1"/>
        <pt x="277" y="736" on="1"/>
        <pt x="278" y="736" on="1"/>
        <pt x="444" y="588" on="1"/>
      </contour>
      <contour>
        <pt x="241" y="27" on="1"/>
        <pt x="288" y="27" on="0"/>
        <pt x="379" y="68" on="0"/>
        <pt x="411" y="96" on="1"/>
        <pt x="410" y="123" on="0"/>
        <pt x="409" y="185" on="0"/>
        <pt x="409" y="229" on="1"/>
        <pt x="383" y="232" on="0"/>
        <pt x="336" y="235" on="0"/>
        <pt x="315" y="235" on="1"/>
        <pt x="211" y="235" on="0"/>
        <pt x="120" y="173" on="0"/>
        <pt x="120" y="122" on="1"/>
        <pt x="120" y="76" on="0"/>
        <pt x="187" y="27" on="0"/>
      </contour>
      <contour>
        <pt x="419" y="-2" on="1"/>
        <pt x="418" y="11" on="0"/>
        <pt x="415" y="48" on="0"/>
        <pt x="414" y="64" on="1"/>
        <pt x="383" y="36" on="0"/>
        <pt x="288" y="-12" on="0"/>
        <pt x="226" y="-12" on="1"/>
        <pt x="160" y="-12" on="0"/>
        <pt x="76" y="55" on="0"/>
        <pt x="76" y="112" on="1"/>
        <pt x="76" y="181" on="0"/>
        <pt x="207" y="271" on="0"/>
        <pt x="341" y="271" on="1"/>
        <pt x="357" y="271" on="0"/>
        <pt x="390" y="269" on="0"/>
        <pt x="408" y="268" on="1"/>
        <pt x="406" y="318" on="0"/>
        <pt x="374" y="384" on="0"/>
        <pt x="305" y="424" on="0"/>
        <pt x="191" y="444" on="0"/>
        <pt x="107" y="448" on="1"/>
        <pt x="113" y="488" on="1"/>
        <pt x="211" y="484" on="0"/>
        <pt x="342" y="455" on="0"/>
        <pt x="420" y="398" on="0"/>
        <pt x="453" y="307" on="0"/>
        <pt x="453" y="239" on="1"/>
        <pt x="453" y="158" on="0"/>
        <pt x="456" y="54" on="0"/>
        <pt x="458" y="1" on="1"/>
      </contour>
    </TTGlyph>
    <TTGlyph name="acute" xMin="185" yMin="556" xMax="406" yMax="756">
      <contour>
        <pt x="185" y="577" on="1"/>
        <pt x="206" y="593" on="0"/>
        <pt x="256" y="638" on="0"/>
        <pt x="304" y="686" on="0"/>
        <pt x="347" y="735" on="0"/>
        <pt x="363" y="756" on="1"/>
        <pt x="406" y="719" on="1"/>
        <pt x="387" y="700" on="0"/>
        <pt x="336" y="655" on="0"/>
        <pt x="280" y="612" on="0"/>
        <pt x="225" y="571" on="0"/>
        <pt x="201" y="556" on="1"/>
      </contour>
    </TTGlyph>
    <TTGlyph name="adieresis" xMin="76" yMin="-12" xMax="458" yMax="695">
      <contour>
        <pt x="408" y="565" on="1"/>
        <pt x="364" y="565" on="1"/>
        <pt x="363" y="695" on="1"/>
        <pt x="410" y="695" on="1"/>
      </contour>
      <contour>
        <pt x="191" y="565" on="1"/>
        <pt x="147" y="565" on="1"/>
        <pt x="146" y="695" on="1"/>
        <pt x="193" y="695" on="1"/>
      </contour>
      <contour>
        <pt x="241" y="27" on="1"/>
        <pt x="288" y="27" on="0"/>
        <pt x="379" y="68" on="0"/>
        <pt x="411" y="96" on="1"/>
        <pt x="410" y="123" on="0"/>
        <pt x="409" y="185" on="0"/>
        <pt x="409" y="229" on="1"/>
        <pt x="383" y="232" on="0"/>
        <pt x="336" y="235" on="0"/>
        <pt x="315" y="235" on="1"/>
        <pt x="211" y="235" on="0"/>
        <pt x="120" y="173" on="0"/>
        <pt x="120" y="122" on="1"/>
        <pt x="120" y="76" on="0"/>
        <pt x="187" y="27" on="0"/>
      </contour>
      <contour>
        <pt x="419" y="-2" on="1"/>
        <pt x="418" y="11" on="0"/>
        <pt x="415" y="48" on="0"/>
        <pt x="414" y="64" on="1"/>
        <pt x="383" y="36" on="0"/>
        <pt x="288" y="-12" on="0"/>
        <pt x="226" y="-12" on="1"/>
        <pt x="160" y="-12" on="0"/>
        <pt x="76" y="55" on="0"/>
        <pt x="76" y="112" on="1"/>
        <pt x="76" y="181" on="0"/>
        <pt x="207" y="271" on="0"/>
        <pt x="341" y="271" on="1"/>
        <pt x="357" y="271" on="0"/>
        <pt x="390" y="269" on="0"/>
        <pt x="408" y="268" on="1"/>
        <pt x="406" y="318" on="0"/>
        <pt x="374" y="384" on="0"/>
        <pt x="305" y="424" on="0"/>
        <pt x="191" y="444" on="0"/>
        <pt x="107" y="448" on="1"/>
        <pt x="113" y="488" on="1"/>
        <pt x="211" y="484" on="0"/>
        <pt x="342" y="455" on="0"/>
        <pt x="420" y="398" on="0"/>
        <pt x="453" y="307" on="0"/>
        <pt x="453" y="239" on="1"/>
        <pt x="453" y="158" on="0"/>
        <pt x="456" y="54" on="0"/>
        <pt x="458" y="1" on="1"/>
      </contour>
    </TTGlyph>
    <TTGlyph name="ae" xMin="43" yMin="-6" xMax="504" yMax="485">
      <contour>
        <pt x="487" y="-6" on="1"/>
        <pt x="403" y="-2" on="0"/>
        <pt x="304" y="40" on="0"/>
        <pt x="279" y="80" on="1"/>
        <pt x="259" y="48" on="0"/>
        <pt x="190" y="-6" on="0"/>
        <pt x="144" y="-6" on="1"/>
        <pt x="102" y="-6" on="0"/>
        <pt x="43" y="54" on="0"/>
        <pt x="43" y="111" on="1"/>
        <pt x="43" y="180" on="0"/>
        <pt x="151" y="257" on="0"/>
        <pt x="247" y="260" on="1"/>
        <pt x="246" y="312" on="0"/>
        <pt x="228" y="379" on="0"/>
        <pt x="187" y="420" on="0"/>
        <pt x="117" y="439" on="0"/>
        <pt x="64" y="443" on="1"/>
        <pt x="69" y="483" on="1"/>
        <pt x="156" y="478" on="0"/>
        <pt x="251" y="433" on="0"/>
        <pt x="269" y="381" on="1"/>
        <pt x="285" y="429" on="0"/>
        <pt x="347" y="485" on="0"/>
        <pt x="389" y="485" on="1"/>
        <pt x="445" y="485" on="0"/>
        <pt x="504" y="376" on="0"/>
        <pt x="504" y="279" on="1"/>
        <pt x="504" y="268" on="0"/>
        <pt x="504" y="246" on="0"/>
        <pt x="503" y="234" on="1"/>
        <pt x="289" y="228" on="1"/>
        <pt x="289" y="179" on="0"/>
        <pt x="308" y="107" on="0"/>
        <pt x="354" y="60" on="0"/>
        <pt x="432" y="35" on="0"/>
        <pt x="492" y="34" on="1"/>
      </contour>
      <contour>
        <pt x="380" y="446" on="1"/>
        <pt x="340" y="446" on="0"/>
        <pt x="291" y="353" on="0"/>
        <pt x="289" y="260" on="1"/>
        <pt x="461" y="264" on="1"/>
        <pt x="461" y="270" on="0"/>
        <pt x="461" y="282" on="0"/>
        <pt x="461" y="287" on="1"/>
        <pt x="461" y="365" on="0"/>
        <pt x="422" y="446" on="0"/>
      </contour>
      <contour>
        <pt x="158" y="34" on="1"/>
        <pt x="191" y="34" on="0"/>
        <pt x="245" y="79" on="0"/>
        <pt x="264" y="111" on="1"/>
        <pt x="255" y="135" on="0"/>
        <pt x="247" y="193" on="0"/>
        <pt x="247" y="226" on="1"/>
        <pt x="172" y="223" on="0"/>
        <pt x="87" y="177" on="0"/>
        <pt x="87" y="121" on="1"/>
        <pt x="87" y="75" on="0"/>
        <pt x="128" y="34" on="0"/>
      </contour>
    </TTGlyph>
    <TTGlyph name="aeacute" xMin="43" yMin="-6" xMax="504" yMax="756">
      <contour>
        <pt x="186" y="577" on="1"/>
        <pt x="207" y="593" on="0"/>
        <pt x="257" y="638" on="0"/>
        <pt x="305" y="686" on="0"/>
        <pt x="348" y="735" on="0"/>
        <pt x="364" y="756" on="1"/>
        <pt x="407" y="719" on="1"/>
        <pt x="388" y="700" on="0"/>
        <pt x="337" y="655" on="0"/>
        <pt x="281" y="612" on="0"/>
        <pt x="226" y="571" on="0"/>
        <pt x="202" y="556" on="1"/>
      </contour>
      <contour>
        <pt x="487" y="-6" on="1"/>
        <pt x="403" y="-2" on="0"/>
        <pt x="304" y="40" on="0"/>
        <pt x="279" y="80" on="1"/>
        <pt x="259" y="48" on="0"/>
        <pt x="190" y="-6" on="0"/>
        <pt x="144" y="-6" on="1"/>
        <pt x="102" y="-6" on="0"/>
        <pt x="43" y="54" on="0"/>
        <pt x="43" y="111" on="1"/>
        <pt x="43" y="180" on="0"/>
        <pt x="151" y="257" on="0"/>
        <pt x="247" y="260" on="1"/>
        <pt x="246" y="312" on="0"/>
        <pt x="228" y="379" on="0"/>
        <pt x="187" y="420" on="0"/>
        <pt x="117" y="439" on="0"/>
        <pt x="64" y="443" on="1"/>
        <pt x="69" y="483" on="1"/>
        <pt x="156" y="478" on="0"/>
        <pt x="251" y="433" on="0"/>
        <pt x="269" y="381" on="1"/>
        <pt x="285" y="429" on="0"/>
        <pt x="347" y="485" on="0"/>
        <pt x="389" y="485" on="1"/>
        <pt x="445" y="485" on="0"/>
        <pt x="504" y="376" on="0"/>
        <pt x="504" y="279" on="1"/>
        <pt x="504" y="268" on="0"/>
        <pt x="504" y="246" on="0"/>
        <pt x="503" y="234" on="1"/>
        <pt x="289" y="228" on="1"/>
        <pt x="289" y="179" on="0"/>
        <pt x="308" y="107" on="0"/>
        <pt x="354" y="60" on="0"/>
        <pt x="432" y="35" on="0"/>
        <pt x="492" y="34" on="1"/>
      </contour>
      <contour>
        <pt x="380" y="446" on="1"/>
        <pt x="340" y="446" on="0"/>
        <pt x="291" y="353" on="0"/>
        <pt x="289" y="260" on="1"/>
        <pt x="461" y="264" on="1"/>
        <pt x="461" y="270" on="0"/>
        <pt x="461" y="282" on="0"/>
        <pt x="461" y="287" on="1"/>
        <pt x="461" y="365" on="0"/>
        <pt x="422" y="446" on="0"/>
      </contour>
      <contour>
        <pt x="158" y="34" on="1"/>
        <pt x="191" y="34" on="0"/>
        <pt x="245" y="79" on="0"/>
        <pt x="264" y="111" on="1"/>
        <pt x="255" y="135" on="0"/>
        <pt x="247" y="193" on="0"/>
        <pt x="247" y="226" on="1"/>
        <pt x="172" y="223" on="0"/>
        <pt x="87" y="177" on="0"/>
        <pt x="87" y="121" on="1"/>
        <pt x="87" y="75" on="0"/>
        <pt x="128" y="34" on="0"/>
      </contour>
    </TTGlyph>
    <TTGlyph name="agrave" xMin="76" yMin="-12" xMax="458" yMax="748">
      <contour>
        <pt x="362" y="568" on="1"/>
        <pt x="346" y="548" on="1"/>
        <pt x="322" y="563" on="0"/>
        <pt x="267" y="604" on="0"/>
        <pt x="212" y="647" on="0"/>
        <pt x="161" y="690" on="0"/>
        <pt x="142" y="709" on="1"/>
        <pt x="183" y="748" on="1"/>
        <pt x="199" y="728" on="0"/>
        <pt x="243" y="679" on="0"/>
        <pt x="292" y="630" on="0"/>
        <pt x="341" y="584" on="0"/>
      </contour>
      <contour>
        <pt x="241" y="27" on="1"/>
        <pt x="288" y="27" on="0"/>
        <pt x="379" y="68" on="0"/>
        <pt x="411" y="96" on="1"/>
        <pt x="410" y="123" on="0"/>
        <pt x="409" y="185" on="0"/>
        <pt x="409" y="229" on="1"/>
        <pt x="383" y="232" on="0"/>
        <pt x="336" y="235" on="0"/>
        <pt x="315" y="235" on="1"/>
        <pt x="211" y="235" on="0"/>
        <pt x="120" y="173" on="0"/>
        <pt x="120" y="122" on="1"/>
        <pt x="120" y="76" on="0"/>
        <pt x="187" y="27" on="0"/>
      </contour>
      <contour>
        <pt x="419" y="-2" on="1"/>
        <pt x="418" y="11" on="0"/>
        <pt x="415" y="48" on="0"/>
        <pt x="414" y="64" on="1"/>
        <pt x="383" y="36" on="0"/>
        <pt x="288" y="-12" on="0"/>
        <pt x="226" y="-12" on="1"/>
        <pt x="160" y="-12" on="0"/>
        <pt x="76" y="55" on="0"/>
        <pt x="76" y="112" on="1"/>
        <pt x="76" y="181" on="0"/>
        <pt x="207" y="271" on="0"/>
        <pt x="341" y="271" on="1"/>
        <pt x="357" y="271" on="0"/>
        <pt x="390" y="269" on="0"/>
        <pt x="408" y="268" on="1"/>
        <pt x="406" y="318" on="0"/>
        <pt x="374" y="384" on="0"/>
        <pt x="305" y="424" on="0"/>
        <pt x="191" y="444" on="0"/>
        <pt x="107" y="448" on="1"/>
        <pt x="113" y="488" on="1"/>
        <pt x="211" y="484" on="0"/>
        <pt x="342" y="455" on="0"/>
        <pt x="420" y="398" on="0"/>
        <pt x="453" y="307" on="0"/>
        <pt x="453" y="239" on="1"/>
        <pt x="453" y="158" on="0"/>
        <pt x="456" y="54" on="0"/>
        <pt x="458" y="1" on="1"/>
      </contour>
    </TTGlyph>
    <TTGlyph name="amacron" xMin="76" yMin="-12" xMax="458" yMax="653">
      <contour>
        <pt x="435" y="653" on="1"/>
        <pt x="435" y="614" on="1"/>
        <pt x="117" y="614" on="1"/>
        <pt x="117" y="653" on="1"/>
      </contour>
      <contour>
        <pt x="241" y="27" on="1"/>
        <pt x="288" y="27" on="0"/>
        <pt x="379" y="68" on="0"/>
        <pt x="411" y="96" on="1"/>
        <pt x="410" y="123" on="0"/>
        <pt x="409" y="185" on="0"/>
        <pt x="409" y="229" on="1"/>
        <pt x="383" y="232" on="0"/>
        <pt x="336" y="235" on="0"/>
        <pt x="315" y="235" on="1"/>
        <pt x="211" y="235" on="0"/>
        <pt x="120" y="173" on="0"/>
        <pt x="120" y="122" on="1"/>
        <pt x="120" y="76" on="0"/>
        <pt x="187" y="27" on="0"/>
      </contour>
      <contour>
        <pt x="419" y="-2" on="1"/>
        <pt x="418" y="11" on="0"/>
        <pt x="415" y="48" on="0"/>
        <pt x="414" y="64" on="1"/>
        <pt x="383" y="36" on="0"/>
        <pt x="288" y="-12" on="0"/>
        <pt x="226" y="-12" on="1"/>
        <pt x="160" y="-12" on="0"/>
        <pt x="76" y="55" on="0"/>
        <pt x="76" y="112" on="1"/>
        <pt x="76" y="181" on="0"/>
        <pt x="207" y="271" on="0"/>
        <pt x="341" y="271" on="1"/>
        <pt x="357" y="271" on="0"/>
        <pt x="390" y="269" on="0"/>
        <pt x="408" y="268" on="1"/>
        <pt x="406" y="318" on="0"/>
        <pt x="374" y="384" on="0"/>
        <pt x="305" y="424" on="0"/>
        <pt x="191" y="444" on="0"/>
        <pt x="107" y="448" on="1"/>
        <pt x="113" y="488" on="1"/>
        <pt x="211" y="484" on="0"/>
        <pt x="342" y="455" on="0"/>
        <pt x="420" y="398" on="0"/>
        <pt x="453" y="307" on="0"/>
        <pt x="453" y="239" on="1"/>
        <pt x="453" y="158" on="0"/>
        <pt x="456" y="54" on="0"/>
        <pt x="458" y="1" on="1"/>
      </contour>
    </TTGlyph>
    <TTGlyph name="ampersand" xMin="47" yMin="-13" xMax="506" yMax="630">
      <contour>
        <pt x="506" y="18" on="1"/>
        <pt x="472" y="-13" on="1"/>
        <pt x="443" y="22" on="0"/>
        <pt x="389" y="84" on="0"/>
        <pt x="365" y="112" on="1"/>
        <pt x="323" y="49" on="0"/>
        <pt x="227" y="-11" on="0"/>
        <pt x="180" y="-11" on="1"/>
        <pt x="117" y="-11" on="0"/>
        <pt x="47" y="69" on="0"/>
        <pt x="47" y="125" on="1"/>
        <pt x="47" y="176" on="0"/>
        <pt x="114" y="277" on="0"/>
        <pt x="182" y="320" on="1"/>
        <pt x="149" y="362" on="0"/>
        <pt x="116" y="428" on="0"/>
        <pt x="116" y="462" on="1"/>
        <pt x="116" y="492" on="0"/>
        <pt x="142" y="552" on="0"/>
        <pt x="203" y="600" on="0"/>
        <pt x="305" y="630" on="0"/>
        <pt x="380" y="630" on="1"/>
        <pt x="393" y="630" on="1"/>
        <pt x="397" y="587" on="1"/>
        <pt x="388" y="588" on="0"/>
        <pt x="370" y="588" on="0"/>
        <pt x="363" y="588" on="1"/>
        <pt x="303" y="588" on="0"/>
        <pt x="223" y="567" on="0"/>
        <pt x="176" y="534" on="0"/>
        <pt x="157" y="491" on="0"/>
        <pt x="157" y="469" on="1"/>
        <pt x="157" y="444" on="0"/>
        <pt x="181" y="392" on="0"/>
        <pt x="232" y="325" on="0"/>
        <pt x="310" y="237" on="0"/>
        <pt x="364" y="178" on="1"/>
        <pt x="386" y="222" on="0"/>
        <pt x="425" y="336" on="0"/>
        <pt x="439" y="403" on="1"/>
        <pt x="481" y="398" on="1"/>
        <pt x="462" y="322" on="0"/>
        <pt x="416" y="198" on="0"/>
        <pt x="389" y="150" on="1"/>
        <pt x="414" y="122" on="0"/>
        <pt x="473" y="55" on="0"/>
      </contour>
      <contour>
        <pt x="188" y="28" on="1"/>
        <pt x="225" y="28" on="0"/>
        <pt x="306" y="83" on="0"/>
        <pt x="340" y="139" on="1"/>
        <pt x="297" y="188" on="0"/>
        <pt x="227" y="266" on="0"/>
        <pt x="201" y="297" on="1"/>
        <pt x="145" y="260" on="0"/>
        <pt x="91" y="174" on="0"/>
        <pt x="91" y="134" on="1"/>
        <pt x="91" y="88" on="0"/>
        <pt x="140" y="28" on="0"/>
      </contour>
    </TTGlyph>
    <TTGlyph name="aogonek" xMin="76" yMin="-204" xMax="458" yMax="488">
      <contour>
        <pt x="436" y="-204" on="1"/>
        <pt x="347" y="-194" on="0"/>
        <pt x="275" y="-153" on="0"/>
        <pt x="275" y="-121" on="1"/>
        <pt x="275" y="-93" on="0"/>
        <pt x="338" y="-32" on="0"/>
        <pt x="418" y="10" on="1"/>
        <pt x="417" y="27" on="0"/>
        <pt x="413" y="79" on="0"/>
        <pt x="412" y="95" on="1"/>
        <pt x="380" y="56" on="0"/>
        <pt x="280" y="-12" on="0"/>
        <pt x="216" y="-12" on="1"/>
        <pt x="155" y="-12" on="0"/>
        <pt x="76" y="55" on="0"/>
        <pt x="76" y="112" on="1"/>
        <pt x="76" y="181" on="0"/>
        <pt x="207" y="271" on="0"/>
        <pt x="341" y="271" on="1"/>
        <pt x="357" y="271" on="0"/>
        <pt x="390" y="269" on="0"/>
        <pt x="408" y="268" on="1"/>
        <pt x="406" y="318" on="0"/>
        <pt x="374" y="384" on="0"/>
        <pt x="305" y="424" on="0"/>
        <pt x="191" y="444" on="0"/>
        <pt x="107" y="448" on="1"/>
        <pt x="113" y="488" on="1"/>
        <pt x="211" y="484" on="0"/>
        <pt x="342" y="455" on="0"/>
        <pt x="420" y="398" on="0"/>
        <pt x="453" y="307" on="0"/>
        <pt x="453" y="239" on="1"/>
        <pt x="453" y="158" on="0"/>
        <pt x="456" y="54" on="0"/>
        <pt x="458" y="1" on="1"/>
        <pt x="374" y="-41" on="0"/>
        <pt x="315" y="-94" on="0"/>
        <pt x="315" y="-113" on="1"/>
        <pt x="315" y="-132" on="0"/>
        <pt x="373" y="-158" on="0"/>
        <pt x="441" y="-166" on="1"/>
      </contour>
      <contour>
        <pt x="231" y="27" on="1"/>
        <pt x="281" y="27" on="0"/>
        <pt x="376" y="87" on="0"/>
        <pt x="410" y="128" on="1"/>
        <pt x="409" y="150" on="0"/>
        <pt x="409" y="190" on="0"/>
        <pt x="409" y="229" on="1"/>
        <pt x="383" y="232" on="0"/>
        <pt x="336" y="235" on="0"/>
        <pt x="315" y="235" on="1"/>
        <pt x="211" y="235" on="0"/>
        <pt x="120" y="173" on="0"/>
        <pt x="120" y="122" on="1"/>
        <pt x="120" y="76" on="0"/>
        <pt x="182" y="27" on="0"/>
      </contour>
    </TTGlyph>
    <TTGlyph name="approxequal" xMin="63" yMin="106" xMax="485" yMax="469">
      <contour>
        <pt x="365" y="310" on="1"/>
        <pt x="336" y="310" on="0"/>
        <pt x="287" y="348" on="0"/>
        <pt x="244" y="394" on="0"/>
        <pt x="204" y="432" on="0"/>
        <pt x="183" y="432" on="1"/>
        <pt x="157" y="432" on="0"/>
        <pt x="115" y="363" on="0"/>
        <pt x="94" y="314" on="1"/>
        <pt x="63" y="326" on="1"/>
        <pt x="91" y="398" on="0"/>
        <pt x="149" y="469" on="0"/>
        <pt x="186" y="469" on="1"/>
        <pt x="215" y="469" on="0"/>
        <pt x="264" y="431" on="0"/>
        <pt x="306" y="385" on="0"/>
        <pt x="345" y="347" on="0"/>
        <pt x="366" y="347" on="1"/>
        <pt x="392" y="347" on="0"/>
        <pt x="434" y="414" on="0"/>
        <pt x="454" y="463" on="1"/>
        <pt x="485" y="451" on="1"/>
        <pt x="457" y="380" on="0"/>
        <pt x="402" y="310" on="0"/>
      </contour>
      <contour>
        <pt x="365" y="106" on="1"/>
        <pt x="336" y="106" on="0"/>
        <pt x="287" y="144" on="0"/>
        <pt x="244" y="190" on="0"/>
        <pt x="204" y="228" on="0"/>
        <pt x="183" y="228" on="1"/>
        <pt x="157" y="228" on="0"/>
        <pt x="115" y="159" on="0"/>
        <pt x="94" y="110" on="1"/>
        <pt x="63" y="122" on="1"/>
        <pt x="91" y="194" on="0"/>
        <pt x="149" y="265" on="0"/>
        <pt x="186" y="265" on="1"/>
        <pt x="215" y="265" on="0"/>
        <pt x="264" y="227" on="0"/>
        <pt x="306" y="181" on="0"/>
        <pt x="345" y="143" on="0"/>
        <pt x="366" y="143" on="1"/>
        <pt x="392" y="143" on="0"/>
        <pt x="434" y="210" on="0"/>
        <pt x="454" y="259" on="1"/>
        <pt x="485" y="247" on="1"/>
        <pt x="457" y="176" on="0"/>
        <pt x="402" y="106" on="0"/>
      </contour>
    </TTGlyph>
    <TTGlyph name="aring" xMin="76" yMin="-12" xMax="458" yMax="749">
      <contour>
        <pt x="275" y="749" on="1"/>
        <pt x="331" y="749" on="0"/>
        <pt x="404" y="690" on="0"/>
        <pt x="404" y="648" on="1"/>
        <pt x="404" y="602" on="0"/>
        <pt x="333" y="543" on="0"/>
        <pt x="275" y="543" on="1"/>
        <pt x="219" y="543" on="0"/>
        <pt x="146" y="602" on="0"/>
        <pt x="146" y="644" on="1"/>
        <pt x="146" y="690" on="0"/>
        <pt x="217" y="749" on="0"/>
      </contour>
      <contour>
        <pt x="275" y="718" on="1"/>
        <pt x="232" y="718" on="0"/>
        <pt x="182" y="677" on="0"/>
        <pt x="182" y="646" on="1"/>
        <pt x="182" y="615" on="0"/>
        <pt x="232" y="574" on="0"/>
        <pt x="275" y="574" on="1"/>
        <pt x="318" y="574" on="0"/>
        <pt x="368" y="615" on="0"/>
        <pt x="368" y="646" on="1"/>
        <pt x="368" y="677" on="0"/>
        <pt x="318" y="718" on="0"/>
      </contour>
      <contour>
        <pt x="241" y="27" on="1"/>
        <pt x="288" y="27" on="0"/>
        <pt x="379" y="68" on="0"/>
        <pt x="411" y="96" on="1"/>
        <pt x="410" y="123" on="0"/>
        <pt x="409" y="185" on="0"/>
        <pt x="409" y="229" on="1"/>
        <pt x="383" y="232" on="0"/>
        <pt x="336" y="235" on="0"/>
        <pt x="315" y="235" on="1"/>
        <pt x="211" y="235" on="0"/>
        <pt x="120" y="173" on="0"/>
        <pt x="120" y="122" on="1"/>
        <pt x="120" y="76" on="0"/>
        <pt x="187" y="27" on="0"/>
      </contour>
      <contour>
        <pt x="419" y="-2" on="1"/>
        <pt x="418" y="11" on="0"/>
        <pt x="415" y="48" on="0"/>
        <pt x="414" y="64" on="1"/>
        <pt x="383" y="36" on="0"/>
        <pt x="288" y="-12" on="0"/>
        <pt x="226" y="-12" on="1"/>
        <pt x="160" y="-12" on="0"/>
        <pt x="76" y="55" on="0"/>
        <pt x="76" y="112" on="1"/>
        <pt x="76" y="181" on="0"/>
        <pt x="207" y="271" on="0"/>
        <pt x="341" y="271" on="1"/>
        <pt x="357" y="271" on="0"/>
        <pt x="390" y="269" on="0"/>
        <pt x="408" y="268" on="1"/>
        <pt x="406" y="318" on="0"/>
        <pt x="374" y="384" on="0"/>
        <pt x="305" y="424" on="0"/>
        <pt x="191" y="444" on="0"/>
        <pt x="107" y="448" on="1"/>
        <pt x="113" y="488" on="1"/>
        <pt x="211" y="484" on="0"/>
        <pt x="342" y="455" on="0"/>
        <pt x="420" y="398" on="0"/>
        <pt x="453" y="307" on="0"/>
        <pt x="453" y="239" on="1"/>
        <pt x="453" y="158" on="0"/>
        <pt x="456" y="54" on="0"/>
        <pt x="458" y="1" on="1"/>
      </contour>
    </TTGlyph>
    <TTGlyph name="aringacute" xMin="76" yMin="-12" xMax="458" yMax="1000">
      <contour>
        <pt x="188" y="821" on="1"/>
        <pt x="209" y="837" on="0"/>
        <pt x="259" y="882" on="0"/>
        <pt x="307" y="930" on="0"/>
        <pt x="350" y="979" on="0"/>
        <pt x="366" y="1000" on="1"/>
        <pt x="409" y="963" on="1"/>
        <pt x="390" y="944" on="0"/>
        <pt x="339" y="899" on="0"/>
        <pt x="283" y="856" on="0"/>
        <pt x="228" y="815" on="0"/>
        <pt x="204" y="800" on="1"/>
      </contour>
      <contour>
        <pt x="275" y="749" on="1"/>
        <pt x="331" y="749" on="0"/>
        <pt x="404" y="690" on="0"/>
        <pt x="404" y="648" on="1"/>
        <pt x="404" y="602" on="0"/>
        <pt x="333" y="543" on="0"/>
        <pt x="275" y="543" on="1"/>
        <pt x="219" y="543" on="0"/>
        <pt x="146" y="602" on="0"/>
        <pt x="146" y="644" on="1"/>
        <pt x="146" y="690" on="0"/>
        <pt x="217" y="749" on="0"/>
      </contour>
      <contour>
        <pt x="275" y="718" on="1"/>
        <pt x="232" y="718" on="0"/>
        <pt x="182" y="677" on="0"/>
        <pt x="182" y="646" on="1"/>
        <pt x="182" y="615" on="0"/>
        <pt x="232" y="574" on="0"/>
        <pt x="275" y="574" on="1"/>
        <pt x="318" y="574" on="0"/>
        <pt x="368" y="615" on="0"/>
        <pt x="368" y="646" on="1"/>
        <pt x="368" y="677" on="0"/>
        <pt x="318" y="718" on="0"/>
      </contour>
      <contour>
        <pt x="241" y="27" on="1"/>
        <pt x="288" y="27" on="0"/>
        <pt x="379" y="68" on="0"/>
        <pt x="411" y="96" on="1"/>
        <pt x="410" y="123" on="0"/>
        <pt x="409" y="185" on="0"/>
        <pt x="409" y="229" on="1"/>
        <pt x="383" y="232" on="0"/>
        <pt x="336" y="235" on="0"/>
        <pt x="315" y="235" on="1"/>
        <pt x="211" y="235" on="0"/>
        <pt x="120" y="173" on="0"/>
        <pt x="120" y="122" on="1"/>
        <pt x="120" y="76" on="0"/>
        <pt x="187" y="27" on="0"/>
      </contour>
      <contour>
        <pt x="419" y="-2" on="1"/>
        <pt x="418" y="11" on="0"/>
        <pt x="415" y="48" on="0"/>
        <pt x="414" y="64" on="1"/>
        <pt x="383" y="36" on="0"/>
        <pt x="288" y="-12" on="0"/>
        <pt x="226" y="-12" on="1"/>
        <pt x="160" y="-12" on="0"/>
        <pt x="76" y="55" on="0"/>
        <pt x="76" y="112" on="1"/>
        <pt x="76" y="181" on="0"/>
        <pt x="207" y="271" on="0"/>
        <pt x="341" y="271" on="1"/>
        <pt x="357" y="271" on="0"/>
        <pt x="390" y="269" on="0"/>
        <pt x="408" y="268" on="1"/>
        <pt x="406" y="318" on="0"/>
        <pt x="374" y="384" on="0"/>
        <pt x="305" y="424" on="0"/>
        <pt x="191" y="444" on="0"/>
        <pt x="107" y="448" on="1"/>
        <pt x="113" y="488" on="1"/>
        <pt x="211" y="484" on="0"/>
        <pt x="342" y="455" on="0"/>
        <pt x="420" y="398" on="0"/>
        <pt x="453" y="307" on="0"/>
        <pt x="453" y="239" on="1"/>
        <pt x="453" y="158" on="0"/>
        <pt x="456" y="54" on="0"/>
        <pt x="458" y="1" on="1"/>
      </contour>
    </TTGlyph>
    <TTGlyph name="asciicircum" xMin="63" yMin="169" xMax="489" yMax="488">
      <contour>
        <pt x="454" y="169" on="1"/>
        <pt x="271" y="425" on="1"/>
        <pt x="96" y="169" on="1"/>
        <pt x="63" y="193" on="1"/>
        <pt x="265" y="485" on="1"/>
        <pt x="277" y="488" on="1"/>
        <pt x="489" y="194" on="1"/>
      </contour>
    </TTGlyph>
    <TTGlyph name="asciitilde" xMin="44" yMin="204" xMax="506" yMax="406">
      <contour>
        <pt x="375" y="204" on="1"/>
        <pt x="344" y="204" on="0"/>
        <pt x="290" y="254" on="0"/>
        <pt x="241" y="314" on="0"/>
        <pt x="196" y="364" on="0"/>
        <pt x="173" y="364" on="1"/>
        <pt x="145" y="364" on="0"/>
        <pt x="99" y="278" on="0"/>
        <pt x="78" y="215" on="1"/>
        <pt x="44" y="228" on="1"/>
        <pt x="72" y="315" on="0"/>
        <pt x="135" y="406" on="0"/>
        <pt x="176" y="406" on="1"/>
        <pt x="207" y="406" on="0"/>
        <pt x="261" y="356" on="0"/>
        <pt x="309" y="296" on="0"/>
        <pt x="354" y="246" on="0"/>
        <pt x="376" y="246" on="1"/>
        <pt x="405" y="246" on="0"/>
        <pt x="450" y="332" on="0"/>
        <pt x="472" y="395" on="1"/>
        <pt x="506" y="382" on="1"/>
        <pt x="477" y="295" on="0"/>
        <pt x="416" y="204" on="0"/>
      </contour>
    </TTGlyph>
    <TTGlyph name="asterisk" xMin="90" yMin="313" xMax="478" yMax="688">
      <contour>
        <pt x="370" y="313" on="1"/>
        <pt x="275" y="439" on="1"/>
        <pt x="160" y="332" on="1"/>
        <pt x="139" y="349" on="1"/>
        <pt x="231" y="477" on="1"/>
        <pt x="90" y="554" on="1"/>
        <pt x="102" y="579" on="1"/>
        <pt x="252" y="531" on="1"/>
        <pt x="283" y="688" on="1"/>
        <pt x="311" y="686" on="1"/>
        <pt x="312" y="527" on="1"/>
        <pt x="471" y="545" on="1"/>
        <pt x="478" y="520" on="1"/>
        <pt x="325" y="470" on="1"/>
        <pt x="393" y="327" on="1"/>
      </contour>
    </TTGlyph>
    <TTGlyph name="asterisk.alt" xMin="85" yMin="293" xMax="467" yMax="692">
      <contour>
        <pt x="296" y="561" on="1"/>
        <pt x="274" y="564" on="1"/>
        <pt x="277" y="692" on="1"/>
        <pt x="325" y="685" on="1"/>
      </contour>
      <contour>
        <pt x="227" y="544" on="1"/>
        <pt x="213" y="526" on="1"/>
        <pt x="104" y="593" on="1"/>
        <pt x="134" y="631" on="1"/>
      </contour>
      <contour>
        <pt x="345" y="509" on="1"/>
        <pt x="337" y="530" on="1"/>
        <pt x="449" y="591" on="1"/>
        <pt x="467" y="546" on="1"/>
      </contour>
      <contour>
        <pt x="207" y="475" on="1"/>
        <pt x="215" y="454" on="1"/>
        <pt x="103" y="394" on="1"/>
        <pt x="85" y="438" on="1"/>
      </contour>
      <contour>
        <pt x="325" y="441" on="1"/>
        <pt x="340" y="459" on="1"/>
        <pt x="448" y="391" on="1"/>
        <pt x="419" y="353" on="1"/>
      </contour>
      <contour>
        <pt x="256" y="424" on="1"/>
        <pt x="278" y="421" on="1"/>
        <pt x="275" y="293" on="1"/>
        <pt x="227" y="299" on="1"/>
      </contour>
    </TTGlyph>
    <TTGlyph name="at" xMin="65" yMin="-157" xMax="481" yMax="680">
      <contour>
        <pt x="370" y="-157" on="1"/>
        <pt x="283" y="-157" on="0"/>
        <pt x="165" y="-97" on="0"/>
        <pt x="95" y="11" on="0"/>
        <pt x="65" y="160" on="0"/>
        <pt x="65" y="248" on="1"/>
        <pt x="65" y="347" on="0"/>
        <pt x="103" y="507" on="0"/>
        <pt x="169" y="619" on="0"/>
        <pt x="262" y="680" on="0"/>
        <pt x="316" y="680" on="1"/>
        <pt x="399" y="680" on="0"/>
        <pt x="476" y="558" on="0"/>
        <pt x="476" y="445" on="1"/>
        <pt x="476" y="377" on="0"/>
        <pt x="477" y="272" on="0"/>
        <pt x="478" y="186" on="0"/>
        <pt x="480" y="111" on="0"/>
        <pt x="481" y="72" on="1"/>
        <pt x="443" y="68" on="1"/>
        <pt x="442" y="78" on="0"/>
        <pt x="440" y="100" on="0"/>
        <pt x="439" y="110" on="1"/>
        <pt x="418" y="88" on="0"/>
        <pt x="372" y="59" on="0"/>
        <pt x="341" y="59" on="1"/>
        <pt x="290" y="59" on="0"/>
        <pt x="224" y="160" on="0"/>
        <pt x="224" y="249" on="1"/>
        <pt x="224" y="355" on="0"/>
        <pt x="322" y="478" on="0"/>
        <pt x="406" y="478" on="1"/>
        <pt x="413" y="478" on="0"/>
        <pt x="427" y="477" on="0"/>
        <pt x="434" y="476" on="1"/>
        <pt x="430" y="557" on="0"/>
        <pt x="371" y="642" on="0"/>
        <pt x="311" y="642" on="1"/>
        <pt x="221" y="642" on="0"/>
        <pt x="105" y="440" on="0"/>
        <pt x="105" y="253" on="1"/>
        <pt x="105" y="169" on="0"/>
        <pt x="130" y="32" on="0"/>
        <pt x="191" y="-65" on="0"/>
        <pt x="296" y="-118" on="0"/>
        <pt x="376" y="-118" on="1"/>
        <pt x="392" y="-118" on="0"/>
        <pt x="426" y="-116" on="0"/>
        <pt x="444" y="-114" on="1"/>
        <pt x="444" y="-152" on="1"/>
        <pt x="425" y="-154" on="0"/>
        <pt x="387" y="-157" on="0"/>
      </contour>
      <contour>
        <pt x="352" y="97" on="1"/>
        <pt x="377" y="97" on="0"/>
        <pt x="419" y="122" on="0"/>
        <pt x="435" y="139" on="1"/>
        <pt x="435" y="434" on="1"/>
        <pt x="422" y="437" on="0"/>
        <pt x="397" y="440" on="0"/>
        <pt x="386" y="440" on="1"/>
        <pt x="320" y="440" on="0"/>
        <pt x="266" y="341" on="0"/>
        <pt x="266" y="258" on="1"/>
        <pt x="266" y="180" on="0"/>
        <pt x="310" y="97" on="0"/>
      </contour>
    </TTGlyph>
    <TTGlyph name="atilde" xMin="76" yMin="-12" xMax="475" yMax="722">
      <contour>
        <pt x="353" y="565" on="1"/>
        <pt x="329" y="565" on="0"/>
        <pt x="291" y="602" on="0"/>
        <pt x="257" y="646" on="0"/>
        <pt x="226" y="683" on="0"/>
        <pt x="208" y="683" on="1"/>
        <pt x="183" y="683" on="0"/>
        <pt x="139" y="622" on="0"/>
        <pt x="119" y="574" on="1"/>
        <pt x="90" y="586" on="1"/>
        <pt x="116" y="651" on="0"/>
        <pt x="178" y="722" on="0"/>
        <pt x="212" y="722" on="1"/>
        <pt x="236" y="722" on="0"/>
        <pt x="274" y="685" on="0"/>
        <pt x="308" y="641" on="0"/>
        <pt x="339" y="604" on="0"/>
        <pt x="357" y="604" on="1"/>
        <pt x="382" y="604" on="0"/>
        <pt x="425" y="665" on="0"/>
        <pt x="445" y="713" on="1"/>
        <pt x="475" y="701" on="1"/>
        <pt x="449" y="636" on="0"/>
        <pt x="387" y="565" on="0"/>
      </contour>
      <contour>
        <pt x="241" y="27" on="1"/>
        <pt x="288" y="27" on="0"/>
        <pt x="379" y="68" on="0"/>
        <pt x="411" y="96" on="1"/>
        <pt x="410" y="123" on="0"/>
        <pt x="409" y="185" on="0"/>
        <pt x="409" y="229" on="1"/>
        <pt x="383" y="232" on="0"/>
        <pt x="336" y="235" on="0"/>
        <pt x="315" y="235" on="1"/>
        <pt x="211" y="235" on="0"/>
        <pt x="120" y="173" on="0"/>
        <pt x="120" y="122" on="1"/>
        <pt x="120" y="76" on="0"/>
        <pt x="187" y="27" on="0"/>
      </contour>
      <contour>
        <pt x="419" y="-2" on="1"/>
        <pt x="418" y="11" on="0"/>
        <pt x="415" y="48" on="0"/>
        <pt x="414" y="64" on="1"/>
        <pt x="383" y="36" on="0"/>
        <pt x="288" y="-12" on="0"/>
        <pt x="226" y="-12" on="1"/>
        <pt x="160" y="-12" on="0"/>
        <pt x="76" y="55" on="0"/>
        <pt x="76" y="112" on="1"/>
        <pt x="76" y="181" on="0"/>
        <pt x="207" y="271" on="0"/>
        <pt x="341" y="271" on="1"/>
        <pt x="357" y="271" on="0"/>
        <pt x="390" y="269" on="0"/>
        <pt x="408" y="268" on="1"/>
        <pt x="406" y="318" on="0"/>
        <pt x="374" y="384" on="0"/>
        <pt x="305" y="424" on="0"/>
        <pt x="191" y="444" on="0"/>
        <pt x="107" y="448" on="1"/>
        <pt x="113" y="488" on="1"/>
        <pt x="211" y="484" on="0"/>
        <pt x="342" y="455" on="0"/>
        <pt x="420" y="398" on="0"/>
        <pt x="453" y="307" on="0"/>
        <pt x="453" y="239" on="1"/>
        <pt x="453" y="158" on="0"/>
        <pt x="456" y="54" on="0"/>
        <pt x="458" y="1" on="1"/>
      </contour>
    </TTGlyph>
    <TTGlyph name="b" xMin="105" yMin="-10" xMax="486" yMax="701">
      <contour>
        <pt x="240" y="-10" on="1"/>
        <pt x="206" y="-10" on="0"/>
        <pt x="136" y="2" on="0"/>
        <pt x="105" y="13" on="1"/>
        <pt x="105" y="697" on="1"/>
        <pt x="149" y="701" on="1"/>
        <pt x="149" y="433" on="1"/>
        <pt x="178" y="456" on="0"/>
        <pt x="255" y="490" on="0"/>
        <pt x="302" y="490" on="1"/>
        <pt x="380" y="490" on="0"/>
        <pt x="486" y="364" on="0"/>
        <pt x="486" y="259" on="1"/>
        <pt x="486" y="197" on="0"/>
        <pt x="445" y="96" on="0"/>
        <pt x="377" y="27" on="0"/>
        <pt x="287" y="-10" on="0"/>
      </contour>
      <contour>
        <pt x="255" y="28" on="1"/>
        <pt x="293" y="28" on="0"/>
        <pt x="362" y="58" on="0"/>
        <pt x="413" y="113" on="0"/>
        <pt x="443" y="196" on="0"/>
        <pt x="443" y="248" on="1"/>
        <pt x="443" y="345" on="0"/>
        <pt x="353" y="452" on="0"/>
        <pt x="287" y="452" on="1"/>
        <pt x="249" y="452" on="0"/>
        <pt x="177" y="423" on="0"/>
        <pt x="149" y="401" on="1"/>
        <pt x="149" y="48" on="1"/>
        <pt x="177" y="38" on="0"/>
        <pt x="230" y="28" on="0"/>
      </contour>
    </TTGlyph>
    <TTGlyph name="backslash" xMin="20" yMin="-175" xMax="529" yMax="709">
      <contour>
        <pt x="57" y="709" on="1"/>
        <pt x="529" y="-164" on="1"/>
        <pt x="489" y="-175" on="1"/>
        <pt x="20" y="692" on="1"/>
      </contour>
    </TTGlyph>
    <TTGlyph name="bar" xMin="257" yMin="-180" xMax="297" yMax="701">
      <contour>
        <pt x="257" y="697" on="1"/>
        <pt x="297" y="701" on="1"/>
        <pt x="297" y="-180" on="1"/>
        <pt x="257" y="-180" on="1"/>
      </contour>
    </TTGlyph>
    <TTGlyph name="braceleft" xMin="89" yMin="-205" xMax="483" yMax="718">
      <contour>
        <pt x="465" y="-205" on="1"/>
        <pt x="302" y="-152" on="0"/>
        <pt x="166" y="-70" on="0"/>
        <pt x="166" y="-16" on="1"/>
        <pt x="166" y="13" on="0"/>
        <pt x="196" y="60" on="0"/>
        <pt x="231" y="101" on="0"/>
        <pt x="261" y="137" on="0"/>
        <pt x="261" y="156" on="1"/>
        <pt x="261" y="187" on="0"/>
        <pt x="180" y="236" on="0"/>
        <pt x="89" y="240" on="1"/>
        <pt x="90" y="274" on="1"/>
        <pt x="192" y="281" on="0"/>
        <pt x="266" y="322" on="0"/>
        <pt x="266" y="347" on="1"/>
        <pt x="266" y="366" on="0"/>
        <pt x="234" y="403" on="0"/>
        <pt x="195" y="443" on="0"/>
        <pt x="163" y="489" on="0"/>
        <pt x="163" y="516" on="1"/>
        <pt x="163" y="565" on="0"/>
        <pt x="302" y="665" on="0"/>
        <pt x="469" y="718" on="1"/>
        <pt x="483" y="678" on="1"/>
        <pt x="337" y="635" on="0"/>
        <pt x="205" y="561" on="0"/>
        <pt x="205" y="523" on="1"/>
        <pt x="205" y="501" on="0"/>
        <pt x="237" y="460" on="0"/>
        <pt x="274" y="420" on="0"/>
        <pt x="306" y="379" on="0"/>
        <pt x="306" y="358" on="1"/>
        <pt x="306" y="331" on="0"/>
        <pt x="251" y="276" on="0"/>
        <pt x="186" y="260" on="1"/>
        <pt x="248" y="246" on="0"/>
        <pt x="302" y="190" on="0"/>
        <pt x="302" y="162" on="1"/>
        <pt x="302" y="139" on="0"/>
        <pt x="273" y="98" on="0"/>
        <pt x="240" y="58" on="0"/>
        <pt x="211" y="17" on="0"/>
        <pt x="211" y="-7" on="1"/>
        <pt x="211" y="-50" on="0"/>
        <pt x="338" y="-122" on="0"/>
        <pt x="481" y="-166" on="1"/>
      </contour>
    </TTGlyph>
    <TTGlyph name="braceleft.cap" xMin="89" yMin="-156" xMax="483" yMax="767">
      <contour>
        <pt x="465" y="-156" on="1"/>
        <pt x="302" y="-103" on="0"/>
        <pt x="166" y="-21" on="0"/>
        <pt x="166" y="33" on="1"/>
        <pt x="166" y="62" on="0"/>
        <pt x="196" y="109" on="0"/>
        <pt x="231" y="150" on="0"/>
        <pt x="261" y="186" on="0"/>
        <pt x="261" y="205" on="1"/>
        <pt x="261" y="236" on="0"/>
        <pt x="180" y="285" on="0"/>
        <pt x="89" y="289" on="1"/>
        <pt x="90" y="323" on="1"/>
        <pt x="192" y="330" on="0"/>
        <pt x="266" y="371" on="0"/>
        <pt x="266" y="396" on="1"/>
        <pt x="266" y="415" on="0"/>
        <pt x="234" y="452" on="0"/>
        <pt x="195" y="492" on="0"/>
        <pt x="163" y="538" on="0"/>
        <pt x="163" y="565" on="1"/>
        <pt x="163" y="614" on="0"/>
        <pt x="302" y="714" on="0"/>
        <pt x="469" y="767" on="1"/>
        <pt x="483" y="727" on="1"/>
        <pt x="337" y="684" on="0"/>
        <pt x="205" y="610" on="0"/>
        <pt x="205" y="572" on="1"/>
        <pt x="205" y="550" on="0"/>
        <pt x="237" y="509" on="0"/>
        <pt x="274" y="469" on="0"/>
        <pt x="306" y="428" on="0"/>
        <pt x="306" y="407" on="1"/>
        <pt x="306" y="380" on="0"/>
        <pt x="251" y="325" on="0"/>
        <pt x="186" y="309" on="1"/>
        <pt x="248" y="295" on="0"/>
        <pt x="302" y="239" on="0"/>
        <pt x="302" y="211" on="1"/>
        <pt x="302" y="188" on="0"/>
        <pt x="273" y="147" on="0"/>
        <pt x="240" y="107" on="0"/>
        <pt x="211" y="66" on="0"/>
        <pt x="211" y="42" on="1"/>
        <pt x="211" y="-1" on="0"/>
        <pt x="338" y="-73" on="0"/>
        <pt x="481" y="-117" on="1"/>
      </contour>
    </TTGlyph>
    <TTGlyph name="braceright" xMin="69" yMin="-204" xMax="463" yMax="719">
      <contour>
        <pt x="84" y="-204" on="1"/>
        <pt x="69" y="-163" on="1"/>
        <pt x="215" y="-121" on="0"/>
        <pt x="346" y="-46" on="0"/>
        <pt x="346" y="-9" on="1"/>
        <pt x="346" y="13" on="0"/>
        <pt x="315" y="55" on="0"/>
        <pt x="277" y="95" on="0"/>
        <pt x="246" y="135" on="0"/>
        <pt x="246" y="156" on="1"/>
        <pt x="246" y="183" on="0"/>
        <pt x="302" y="238" on="0"/>
        <pt x="368" y="254" on="1"/>
        <pt x="305" y="268" on="0"/>
        <pt x="249" y="324" on="0"/>
        <pt x="249" y="352" on="1"/>
        <pt x="249" y="375" on="0"/>
        <pt x="278" y="416" on="0"/>
        <pt x="312" y="456" on="0"/>
        <pt x="341" y="497" on="0"/>
        <pt x="341" y="521" on="1"/>
        <pt x="341" y="565" on="0"/>
        <pt x="214" y="636" on="0"/>
        <pt x="71" y="680" on="1"/>
        <pt x="87" y="719" on="1"/>
        <pt x="250" y="666" on="0"/>
        <pt x="385" y="584" on="0"/>
        <pt x="385" y="530" on="1"/>
        <pt x="385" y="501" on="0"/>
        <pt x="355" y="454" on="0"/>
        <pt x="320" y="414" on="0"/>
        <pt x="290" y="377" on="0"/>
        <pt x="290" y="358" on="1"/>
        <pt x="290" y="327" on="0"/>
        <pt x="371" y="278" on="0"/>
        <pt x="463" y="274" on="1"/>
        <pt x="461" y="241" on="1"/>
        <pt x="360" y="234" on="0"/>
        <pt x="285" y="192" on="0"/>
        <pt x="285" y="167" on="1"/>
        <pt x="285" y="148" on="0"/>
        <pt x="317" y="111" on="0"/>
        <pt x="356" y="72" on="0"/>
        <pt x="388" y="26" on="0"/>
        <pt x="388" y="-2" on="1"/>
        <pt x="388" y="-51" on="0"/>
        <pt x="250" y="-151" on="0"/>
      </contour>
    </TTGlyph>
</ttFont>
